G04 #@! TF.GenerationSoftware,KiCad,Pcbnew,5.0.2-bee76a0~70~ubuntu18.04.1*
G04 #@! TF.CreationDate,2018-12-18T05:27:10+01:00*
G04 #@! TF.ProjectId,myoelectronics_spi_harness_to_motor_controller_adapter,6d796f65-6c65-4637-9472-6f6e6963735f,rev?*
G04 #@! TF.SameCoordinates,Original*
G04 #@! TF.FileFunction,Paste,Top*
G04 #@! TF.FilePolarity,Positive*
%FSLAX46Y46*%
G04 Gerber Fmt 4.6, Leading zero omitted, Abs format (unit mm)*
G04 Created by KiCad (PCBNEW 5.0.2-bee76a0~70~ubuntu18.04.1) date Tue 18 Dec 2018 05:27:10 CET*
%MOMM*%
%LPD*%
G01*
G04 APERTURE LIST*
%ADD10C,0.100000*%
%ADD11C,0.600000*%
%ADD12C,1.200000*%
G04 APERTURE END LIST*
D10*
G04 #@! TO.C,SPI_OUT1*
G36*
X133089703Y-78350722D02*
X133104264Y-78352882D01*
X133118543Y-78356459D01*
X133132403Y-78361418D01*
X133145710Y-78367712D01*
X133158336Y-78375280D01*
X133170159Y-78384048D01*
X133181066Y-78393934D01*
X133190952Y-78404841D01*
X133199720Y-78416664D01*
X133207288Y-78429290D01*
X133213582Y-78442597D01*
X133218541Y-78456457D01*
X133222118Y-78470736D01*
X133224278Y-78485297D01*
X133225000Y-78500000D01*
X133225000Y-78800000D01*
X133224278Y-78814703D01*
X133222118Y-78829264D01*
X133218541Y-78843543D01*
X133213582Y-78857403D01*
X133207288Y-78870710D01*
X133199720Y-78883336D01*
X133190952Y-78895159D01*
X133181066Y-78906066D01*
X133170159Y-78915952D01*
X133158336Y-78924720D01*
X133145710Y-78932288D01*
X133132403Y-78938582D01*
X133118543Y-78943541D01*
X133104264Y-78947118D01*
X133089703Y-78949278D01*
X133075000Y-78950000D01*
X131825000Y-78950000D01*
X131810297Y-78949278D01*
X131795736Y-78947118D01*
X131781457Y-78943541D01*
X131767597Y-78938582D01*
X131754290Y-78932288D01*
X131741664Y-78924720D01*
X131729841Y-78915952D01*
X131718934Y-78906066D01*
X131709048Y-78895159D01*
X131700280Y-78883336D01*
X131692712Y-78870710D01*
X131686418Y-78857403D01*
X131681459Y-78843543D01*
X131677882Y-78829264D01*
X131675722Y-78814703D01*
X131675000Y-78800000D01*
X131675000Y-78500000D01*
X131675722Y-78485297D01*
X131677882Y-78470736D01*
X131681459Y-78456457D01*
X131686418Y-78442597D01*
X131692712Y-78429290D01*
X131700280Y-78416664D01*
X131709048Y-78404841D01*
X131718934Y-78393934D01*
X131729841Y-78384048D01*
X131741664Y-78375280D01*
X131754290Y-78367712D01*
X131767597Y-78361418D01*
X131781457Y-78356459D01*
X131795736Y-78352882D01*
X131810297Y-78350722D01*
X131825000Y-78350000D01*
X133075000Y-78350000D01*
X133089703Y-78350722D01*
X133089703Y-78350722D01*
G37*
D11*
X132450000Y-78650000D03*
D10*
G36*
X133089703Y-79350722D02*
X133104264Y-79352882D01*
X133118543Y-79356459D01*
X133132403Y-79361418D01*
X133145710Y-79367712D01*
X133158336Y-79375280D01*
X133170159Y-79384048D01*
X133181066Y-79393934D01*
X133190952Y-79404841D01*
X133199720Y-79416664D01*
X133207288Y-79429290D01*
X133213582Y-79442597D01*
X133218541Y-79456457D01*
X133222118Y-79470736D01*
X133224278Y-79485297D01*
X133225000Y-79500000D01*
X133225000Y-79800000D01*
X133224278Y-79814703D01*
X133222118Y-79829264D01*
X133218541Y-79843543D01*
X133213582Y-79857403D01*
X133207288Y-79870710D01*
X133199720Y-79883336D01*
X133190952Y-79895159D01*
X133181066Y-79906066D01*
X133170159Y-79915952D01*
X133158336Y-79924720D01*
X133145710Y-79932288D01*
X133132403Y-79938582D01*
X133118543Y-79943541D01*
X133104264Y-79947118D01*
X133089703Y-79949278D01*
X133075000Y-79950000D01*
X131825000Y-79950000D01*
X131810297Y-79949278D01*
X131795736Y-79947118D01*
X131781457Y-79943541D01*
X131767597Y-79938582D01*
X131754290Y-79932288D01*
X131741664Y-79924720D01*
X131729841Y-79915952D01*
X131718934Y-79906066D01*
X131709048Y-79895159D01*
X131700280Y-79883336D01*
X131692712Y-79870710D01*
X131686418Y-79857403D01*
X131681459Y-79843543D01*
X131677882Y-79829264D01*
X131675722Y-79814703D01*
X131675000Y-79800000D01*
X131675000Y-79500000D01*
X131675722Y-79485297D01*
X131677882Y-79470736D01*
X131681459Y-79456457D01*
X131686418Y-79442597D01*
X131692712Y-79429290D01*
X131700280Y-79416664D01*
X131709048Y-79404841D01*
X131718934Y-79393934D01*
X131729841Y-79384048D01*
X131741664Y-79375280D01*
X131754290Y-79367712D01*
X131767597Y-79361418D01*
X131781457Y-79356459D01*
X131795736Y-79352882D01*
X131810297Y-79350722D01*
X131825000Y-79350000D01*
X133075000Y-79350000D01*
X133089703Y-79350722D01*
X133089703Y-79350722D01*
G37*
D11*
X132450000Y-79650000D03*
D10*
G36*
X133089703Y-80350722D02*
X133104264Y-80352882D01*
X133118543Y-80356459D01*
X133132403Y-80361418D01*
X133145710Y-80367712D01*
X133158336Y-80375280D01*
X133170159Y-80384048D01*
X133181066Y-80393934D01*
X133190952Y-80404841D01*
X133199720Y-80416664D01*
X133207288Y-80429290D01*
X133213582Y-80442597D01*
X133218541Y-80456457D01*
X133222118Y-80470736D01*
X133224278Y-80485297D01*
X133225000Y-80500000D01*
X133225000Y-80800000D01*
X133224278Y-80814703D01*
X133222118Y-80829264D01*
X133218541Y-80843543D01*
X133213582Y-80857403D01*
X133207288Y-80870710D01*
X133199720Y-80883336D01*
X133190952Y-80895159D01*
X133181066Y-80906066D01*
X133170159Y-80915952D01*
X133158336Y-80924720D01*
X133145710Y-80932288D01*
X133132403Y-80938582D01*
X133118543Y-80943541D01*
X133104264Y-80947118D01*
X133089703Y-80949278D01*
X133075000Y-80950000D01*
X131825000Y-80950000D01*
X131810297Y-80949278D01*
X131795736Y-80947118D01*
X131781457Y-80943541D01*
X131767597Y-80938582D01*
X131754290Y-80932288D01*
X131741664Y-80924720D01*
X131729841Y-80915952D01*
X131718934Y-80906066D01*
X131709048Y-80895159D01*
X131700280Y-80883336D01*
X131692712Y-80870710D01*
X131686418Y-80857403D01*
X131681459Y-80843543D01*
X131677882Y-80829264D01*
X131675722Y-80814703D01*
X131675000Y-80800000D01*
X131675000Y-80500000D01*
X131675722Y-80485297D01*
X131677882Y-80470736D01*
X131681459Y-80456457D01*
X131686418Y-80442597D01*
X131692712Y-80429290D01*
X131700280Y-80416664D01*
X131709048Y-80404841D01*
X131718934Y-80393934D01*
X131729841Y-80384048D01*
X131741664Y-80375280D01*
X131754290Y-80367712D01*
X131767597Y-80361418D01*
X131781457Y-80356459D01*
X131795736Y-80352882D01*
X131810297Y-80350722D01*
X131825000Y-80350000D01*
X133075000Y-80350000D01*
X133089703Y-80350722D01*
X133089703Y-80350722D01*
G37*
D11*
X132450000Y-80650000D03*
D10*
G36*
X133089703Y-81350722D02*
X133104264Y-81352882D01*
X133118543Y-81356459D01*
X133132403Y-81361418D01*
X133145710Y-81367712D01*
X133158336Y-81375280D01*
X133170159Y-81384048D01*
X133181066Y-81393934D01*
X133190952Y-81404841D01*
X133199720Y-81416664D01*
X133207288Y-81429290D01*
X133213582Y-81442597D01*
X133218541Y-81456457D01*
X133222118Y-81470736D01*
X133224278Y-81485297D01*
X133225000Y-81500000D01*
X133225000Y-81800000D01*
X133224278Y-81814703D01*
X133222118Y-81829264D01*
X133218541Y-81843543D01*
X133213582Y-81857403D01*
X133207288Y-81870710D01*
X133199720Y-81883336D01*
X133190952Y-81895159D01*
X133181066Y-81906066D01*
X133170159Y-81915952D01*
X133158336Y-81924720D01*
X133145710Y-81932288D01*
X133132403Y-81938582D01*
X133118543Y-81943541D01*
X133104264Y-81947118D01*
X133089703Y-81949278D01*
X133075000Y-81950000D01*
X131825000Y-81950000D01*
X131810297Y-81949278D01*
X131795736Y-81947118D01*
X131781457Y-81943541D01*
X131767597Y-81938582D01*
X131754290Y-81932288D01*
X131741664Y-81924720D01*
X131729841Y-81915952D01*
X131718934Y-81906066D01*
X131709048Y-81895159D01*
X131700280Y-81883336D01*
X131692712Y-81870710D01*
X131686418Y-81857403D01*
X131681459Y-81843543D01*
X131677882Y-81829264D01*
X131675722Y-81814703D01*
X131675000Y-81800000D01*
X131675000Y-81500000D01*
X131675722Y-81485297D01*
X131677882Y-81470736D01*
X131681459Y-81456457D01*
X131686418Y-81442597D01*
X131692712Y-81429290D01*
X131700280Y-81416664D01*
X131709048Y-81404841D01*
X131718934Y-81393934D01*
X131729841Y-81384048D01*
X131741664Y-81375280D01*
X131754290Y-81367712D01*
X131767597Y-81361418D01*
X131781457Y-81356459D01*
X131795736Y-81352882D01*
X131810297Y-81350722D01*
X131825000Y-81350000D01*
X133075000Y-81350000D01*
X133089703Y-81350722D01*
X133089703Y-81350722D01*
G37*
D11*
X132450000Y-81650000D03*
D10*
G36*
X133089703Y-82350722D02*
X133104264Y-82352882D01*
X133118543Y-82356459D01*
X133132403Y-82361418D01*
X133145710Y-82367712D01*
X133158336Y-82375280D01*
X133170159Y-82384048D01*
X133181066Y-82393934D01*
X133190952Y-82404841D01*
X133199720Y-82416664D01*
X133207288Y-82429290D01*
X133213582Y-82442597D01*
X133218541Y-82456457D01*
X133222118Y-82470736D01*
X133224278Y-82485297D01*
X133225000Y-82500000D01*
X133225000Y-82800000D01*
X133224278Y-82814703D01*
X133222118Y-82829264D01*
X133218541Y-82843543D01*
X133213582Y-82857403D01*
X133207288Y-82870710D01*
X133199720Y-82883336D01*
X133190952Y-82895159D01*
X133181066Y-82906066D01*
X133170159Y-82915952D01*
X133158336Y-82924720D01*
X133145710Y-82932288D01*
X133132403Y-82938582D01*
X133118543Y-82943541D01*
X133104264Y-82947118D01*
X133089703Y-82949278D01*
X133075000Y-82950000D01*
X131825000Y-82950000D01*
X131810297Y-82949278D01*
X131795736Y-82947118D01*
X131781457Y-82943541D01*
X131767597Y-82938582D01*
X131754290Y-82932288D01*
X131741664Y-82924720D01*
X131729841Y-82915952D01*
X131718934Y-82906066D01*
X131709048Y-82895159D01*
X131700280Y-82883336D01*
X131692712Y-82870710D01*
X131686418Y-82857403D01*
X131681459Y-82843543D01*
X131677882Y-82829264D01*
X131675722Y-82814703D01*
X131675000Y-82800000D01*
X131675000Y-82500000D01*
X131675722Y-82485297D01*
X131677882Y-82470736D01*
X131681459Y-82456457D01*
X131686418Y-82442597D01*
X131692712Y-82429290D01*
X131700280Y-82416664D01*
X131709048Y-82404841D01*
X131718934Y-82393934D01*
X131729841Y-82384048D01*
X131741664Y-82375280D01*
X131754290Y-82367712D01*
X131767597Y-82361418D01*
X131781457Y-82356459D01*
X131795736Y-82352882D01*
X131810297Y-82350722D01*
X131825000Y-82350000D01*
X133075000Y-82350000D01*
X133089703Y-82350722D01*
X133089703Y-82350722D01*
G37*
D11*
X132450000Y-82650000D03*
D10*
G36*
X129249505Y-76751204D02*
X129273773Y-76754804D01*
X129297572Y-76760765D01*
X129320671Y-76769030D01*
X129342850Y-76779520D01*
X129363893Y-76792132D01*
X129383599Y-76806747D01*
X129401777Y-76823223D01*
X129418253Y-76841401D01*
X129432868Y-76861107D01*
X129445480Y-76882150D01*
X129455970Y-76904329D01*
X129464235Y-76927428D01*
X129470196Y-76951227D01*
X129473796Y-76975495D01*
X129475000Y-76999999D01*
X129475000Y-77700001D01*
X129473796Y-77724505D01*
X129470196Y-77748773D01*
X129464235Y-77772572D01*
X129455970Y-77795671D01*
X129445480Y-77817850D01*
X129432868Y-77838893D01*
X129418253Y-77858599D01*
X129401777Y-77876777D01*
X129383599Y-77893253D01*
X129363893Y-77907868D01*
X129342850Y-77920480D01*
X129320671Y-77930970D01*
X129297572Y-77939235D01*
X129273773Y-77945196D01*
X129249505Y-77948796D01*
X129225001Y-77950000D01*
X127924999Y-77950000D01*
X127900495Y-77948796D01*
X127876227Y-77945196D01*
X127852428Y-77939235D01*
X127829329Y-77930970D01*
X127807150Y-77920480D01*
X127786107Y-77907868D01*
X127766401Y-77893253D01*
X127748223Y-77876777D01*
X127731747Y-77858599D01*
X127717132Y-77838893D01*
X127704520Y-77817850D01*
X127694030Y-77795671D01*
X127685765Y-77772572D01*
X127679804Y-77748773D01*
X127676204Y-77724505D01*
X127675000Y-77700001D01*
X127675000Y-76999999D01*
X127676204Y-76975495D01*
X127679804Y-76951227D01*
X127685765Y-76927428D01*
X127694030Y-76904329D01*
X127704520Y-76882150D01*
X127717132Y-76861107D01*
X127731747Y-76841401D01*
X127748223Y-76823223D01*
X127766401Y-76806747D01*
X127786107Y-76792132D01*
X127807150Y-76779520D01*
X127829329Y-76769030D01*
X127852428Y-76760765D01*
X127876227Y-76754804D01*
X127900495Y-76751204D01*
X127924999Y-76750000D01*
X129225001Y-76750000D01*
X129249505Y-76751204D01*
X129249505Y-76751204D01*
G37*
D12*
X128575000Y-77350000D03*
D10*
G36*
X129249505Y-83351204D02*
X129273773Y-83354804D01*
X129297572Y-83360765D01*
X129320671Y-83369030D01*
X129342850Y-83379520D01*
X129363893Y-83392132D01*
X129383599Y-83406747D01*
X129401777Y-83423223D01*
X129418253Y-83441401D01*
X129432868Y-83461107D01*
X129445480Y-83482150D01*
X129455970Y-83504329D01*
X129464235Y-83527428D01*
X129470196Y-83551227D01*
X129473796Y-83575495D01*
X129475000Y-83599999D01*
X129475000Y-84300001D01*
X129473796Y-84324505D01*
X129470196Y-84348773D01*
X129464235Y-84372572D01*
X129455970Y-84395671D01*
X129445480Y-84417850D01*
X129432868Y-84438893D01*
X129418253Y-84458599D01*
X129401777Y-84476777D01*
X129383599Y-84493253D01*
X129363893Y-84507868D01*
X129342850Y-84520480D01*
X129320671Y-84530970D01*
X129297572Y-84539235D01*
X129273773Y-84545196D01*
X129249505Y-84548796D01*
X129225001Y-84550000D01*
X127924999Y-84550000D01*
X127900495Y-84548796D01*
X127876227Y-84545196D01*
X127852428Y-84539235D01*
X127829329Y-84530970D01*
X127807150Y-84520480D01*
X127786107Y-84507868D01*
X127766401Y-84493253D01*
X127748223Y-84476777D01*
X127731747Y-84458599D01*
X127717132Y-84438893D01*
X127704520Y-84417850D01*
X127694030Y-84395671D01*
X127685765Y-84372572D01*
X127679804Y-84348773D01*
X127676204Y-84324505D01*
X127675000Y-84300001D01*
X127675000Y-83599999D01*
X127676204Y-83575495D01*
X127679804Y-83551227D01*
X127685765Y-83527428D01*
X127694030Y-83504329D01*
X127704520Y-83482150D01*
X127717132Y-83461107D01*
X127731747Y-83441401D01*
X127748223Y-83423223D01*
X127766401Y-83406747D01*
X127786107Y-83392132D01*
X127807150Y-83379520D01*
X127829329Y-83369030D01*
X127852428Y-83360765D01*
X127876227Y-83354804D01*
X127900495Y-83351204D01*
X127924999Y-83350000D01*
X129225001Y-83350000D01*
X129249505Y-83351204D01*
X129249505Y-83351204D01*
G37*
D12*
X128575000Y-83950000D03*
G04 #@! TD*
M02*
