G04 #@! TF.GenerationSoftware,KiCad,Pcbnew,5.0.2-bee76a0~70~ubuntu18.04.1*
G04 #@! TF.CreationDate,2018-12-18T05:27:10+01:00*
G04 #@! TF.ProjectId,myoelectronics_spi_harness_to_motor_controller_adapter,6d796f65-6c65-4637-9472-6f6e6963735f,rev?*
G04 #@! TF.SameCoordinates,Original*
G04 #@! TF.FileFunction,Soldermask,Bot*
G04 #@! TF.FilePolarity,Negative*
%FSLAX46Y46*%
G04 Gerber Fmt 4.6, Leading zero omitted, Abs format (unit mm)*
G04 Created by KiCad (PCBNEW 5.0.2-bee76a0~70~ubuntu18.04.1) date Tue 18 Dec 2018 05:27:10 CET*
%MOMM*%
%LPD*%
G01*
G04 APERTURE LIST*
%ADD10C,0.100000*%
G04 APERTURE END LIST*
D10*
G36*
X134567396Y-91085546D02*
X134740466Y-91157234D01*
X134896230Y-91261312D01*
X135028688Y-91393770D01*
X135132766Y-91549534D01*
X135204454Y-91722604D01*
X135241000Y-91906333D01*
X135241000Y-92093667D01*
X135204454Y-92277396D01*
X135132766Y-92450466D01*
X135028688Y-92606230D01*
X134896230Y-92738688D01*
X134740466Y-92842766D01*
X134567396Y-92914454D01*
X134383667Y-92951000D01*
X134196333Y-92951000D01*
X134012604Y-92914454D01*
X133839534Y-92842766D01*
X133683770Y-92738688D01*
X133551312Y-92606230D01*
X133447234Y-92450466D01*
X133375546Y-92277396D01*
X133339000Y-92093667D01*
X133339000Y-91906333D01*
X133375546Y-91722604D01*
X133447234Y-91549534D01*
X133551312Y-91393770D01*
X133683770Y-91261312D01*
X133839534Y-91157234D01*
X134012604Y-91085546D01*
X134196333Y-91049000D01*
X134383667Y-91049000D01*
X134567396Y-91085546D01*
X134567396Y-91085546D01*
G37*
G36*
X130583655Y-89429733D02*
X130583657Y-89429734D01*
X130583658Y-89429734D01*
X130637509Y-89452040D01*
X130729440Y-89490119D01*
X130860643Y-89577786D01*
X130972214Y-89689357D01*
X131059881Y-89820560D01*
X131120267Y-89966345D01*
X131151050Y-90121102D01*
X131151050Y-90278898D01*
X131120267Y-90433655D01*
X131059881Y-90579440D01*
X130972214Y-90710643D01*
X130857907Y-90824950D01*
X130844915Y-90835612D01*
X130829370Y-90854554D01*
X130817819Y-90876165D01*
X130810706Y-90899614D01*
X130808304Y-90924001D01*
X130810706Y-90948387D01*
X130817819Y-90971836D01*
X130829371Y-90993447D01*
X130844916Y-91012389D01*
X130863858Y-91027934D01*
X130885469Y-91039485D01*
X130908918Y-91046598D01*
X130933304Y-91049000D01*
X132701000Y-91049000D01*
X132701000Y-92951000D01*
X130799000Y-92951000D01*
X130799000Y-91068145D01*
X130796598Y-91043759D01*
X130789485Y-91020310D01*
X130777934Y-90998699D01*
X130762388Y-90979757D01*
X130743446Y-90964211D01*
X130721835Y-90952660D01*
X130698386Y-90945547D01*
X130674000Y-90943145D01*
X130649614Y-90945547D01*
X130626165Y-90952660D01*
X130583658Y-90970267D01*
X130428898Y-91001050D01*
X130271102Y-91001050D01*
X130116345Y-90970267D01*
X130116343Y-90970266D01*
X130116342Y-90970266D01*
X130004649Y-90924001D01*
X129970560Y-90909881D01*
X129839357Y-90822214D01*
X129727786Y-90710643D01*
X129640119Y-90579440D01*
X129579733Y-90433655D01*
X129548950Y-90278898D01*
X129548950Y-90121102D01*
X129579733Y-89966345D01*
X129640119Y-89820560D01*
X129727786Y-89689357D01*
X129839357Y-89577786D01*
X129970560Y-89490119D01*
X130062491Y-89452040D01*
X130116342Y-89429734D01*
X130116343Y-89429734D01*
X130116345Y-89429733D01*
X130271102Y-89398950D01*
X130428898Y-89398950D01*
X130583655Y-89429733D01*
X130583655Y-89429733D01*
G37*
G36*
X137107396Y-91085546D02*
X137280466Y-91157234D01*
X137436230Y-91261312D01*
X137568688Y-91393770D01*
X137672766Y-91549534D01*
X137744454Y-91722604D01*
X137781000Y-91906333D01*
X137781000Y-92093667D01*
X137744454Y-92277396D01*
X137672766Y-92450466D01*
X137568688Y-92606230D01*
X137436230Y-92738688D01*
X137280466Y-92842766D01*
X137107396Y-92914454D01*
X136923667Y-92951000D01*
X136736333Y-92951000D01*
X136552604Y-92914454D01*
X136379534Y-92842766D01*
X136223770Y-92738688D01*
X136091312Y-92606230D01*
X135987234Y-92450466D01*
X135915546Y-92277396D01*
X135879000Y-92093667D01*
X135879000Y-91906333D01*
X135915546Y-91722604D01*
X135987234Y-91549534D01*
X136091312Y-91393770D01*
X136223770Y-91261312D01*
X136379534Y-91157234D01*
X136552604Y-91085546D01*
X136736333Y-91049000D01*
X136923667Y-91049000D01*
X137107396Y-91085546D01*
X137107396Y-91085546D01*
G37*
G36*
X138377396Y-88545546D02*
X138550466Y-88617234D01*
X138706230Y-88721312D01*
X138838688Y-88853770D01*
X138942766Y-89009534D01*
X139014454Y-89182604D01*
X139051000Y-89366333D01*
X139051000Y-89553667D01*
X139014454Y-89737396D01*
X138942766Y-89910466D01*
X138838688Y-90066230D01*
X138706230Y-90198688D01*
X138550466Y-90302766D01*
X138377396Y-90374454D01*
X138193667Y-90411000D01*
X138006333Y-90411000D01*
X137822604Y-90374454D01*
X137649534Y-90302766D01*
X137493770Y-90198688D01*
X137361312Y-90066230D01*
X137257234Y-89910466D01*
X137185546Y-89737396D01*
X137149000Y-89553667D01*
X137149000Y-89366333D01*
X137185546Y-89182604D01*
X137257234Y-89009534D01*
X137361312Y-88853770D01*
X137493770Y-88721312D01*
X137649534Y-88617234D01*
X137822604Y-88545546D01*
X138006333Y-88509000D01*
X138193667Y-88509000D01*
X138377396Y-88545546D01*
X138377396Y-88545546D01*
G37*
G36*
X133297396Y-88545546D02*
X133470466Y-88617234D01*
X133626230Y-88721312D01*
X133758688Y-88853770D01*
X133862766Y-89009534D01*
X133934454Y-89182604D01*
X133971000Y-89366333D01*
X133971000Y-89553667D01*
X133934454Y-89737396D01*
X133862766Y-89910466D01*
X133758688Y-90066230D01*
X133626230Y-90198688D01*
X133470466Y-90302766D01*
X133297396Y-90374454D01*
X133113667Y-90411000D01*
X132926333Y-90411000D01*
X132742604Y-90374454D01*
X132569534Y-90302766D01*
X132413770Y-90198688D01*
X132281312Y-90066230D01*
X132177234Y-89910466D01*
X132105546Y-89737396D01*
X132069000Y-89553667D01*
X132069000Y-89366333D01*
X132105546Y-89182604D01*
X132177234Y-89009534D01*
X132281312Y-88853770D01*
X132413770Y-88721312D01*
X132569534Y-88617234D01*
X132742604Y-88545546D01*
X132926333Y-88509000D01*
X133113667Y-88509000D01*
X133297396Y-88545546D01*
X133297396Y-88545546D01*
G37*
G36*
X135837396Y-88545546D02*
X136010466Y-88617234D01*
X136166230Y-88721312D01*
X136298688Y-88853770D01*
X136402766Y-89009534D01*
X136474454Y-89182604D01*
X136511000Y-89366333D01*
X136511000Y-89553667D01*
X136474454Y-89737396D01*
X136402766Y-89910466D01*
X136298688Y-90066230D01*
X136166230Y-90198688D01*
X136010466Y-90302766D01*
X135837396Y-90374454D01*
X135653667Y-90411000D01*
X135466333Y-90411000D01*
X135282604Y-90374454D01*
X135109534Y-90302766D01*
X134953770Y-90198688D01*
X134821312Y-90066230D01*
X134717234Y-89910466D01*
X134645546Y-89737396D01*
X134609000Y-89553667D01*
X134609000Y-89366333D01*
X134645546Y-89182604D01*
X134717234Y-89009534D01*
X134821312Y-88853770D01*
X134953770Y-88721312D01*
X135109534Y-88617234D01*
X135282604Y-88545546D01*
X135466333Y-88509000D01*
X135653667Y-88509000D01*
X135837396Y-88545546D01*
X135837396Y-88545546D01*
G37*
G36*
X138942397Y-84135547D02*
X139115467Y-84207235D01*
X139271231Y-84311313D01*
X139403689Y-84443771D01*
X139507767Y-84599535D01*
X139579455Y-84772605D01*
X139616001Y-84956334D01*
X139616001Y-85143668D01*
X139579455Y-85327397D01*
X139507767Y-85500467D01*
X139403689Y-85656231D01*
X139271231Y-85788689D01*
X139115467Y-85892767D01*
X138942397Y-85964455D01*
X138758668Y-86001001D01*
X138571334Y-86001001D01*
X138387605Y-85964455D01*
X138214535Y-85892767D01*
X138058771Y-85788689D01*
X137926313Y-85656231D01*
X137822235Y-85500467D01*
X137750547Y-85327397D01*
X137714001Y-85143668D01*
X137714001Y-84956334D01*
X137750547Y-84772605D01*
X137822235Y-84599535D01*
X137926313Y-84443771D01*
X138058771Y-84311313D01*
X138214535Y-84207235D01*
X138387605Y-84135547D01*
X138571334Y-84099001D01*
X138758668Y-84099001D01*
X138942397Y-84135547D01*
X138942397Y-84135547D01*
G37*
G36*
X136402397Y-82865547D02*
X136575467Y-82937235D01*
X136731231Y-83041313D01*
X136863689Y-83173771D01*
X136967767Y-83329535D01*
X137039455Y-83502605D01*
X137076001Y-83686334D01*
X137076001Y-83873668D01*
X137039455Y-84057397D01*
X136967767Y-84230467D01*
X136863689Y-84386231D01*
X136731231Y-84518689D01*
X136575467Y-84622767D01*
X136402397Y-84694455D01*
X136218668Y-84731001D01*
X136031334Y-84731001D01*
X135847605Y-84694455D01*
X135674535Y-84622767D01*
X135518771Y-84518689D01*
X135386313Y-84386231D01*
X135282235Y-84230467D01*
X135210547Y-84057397D01*
X135174001Y-83873668D01*
X135174001Y-83686334D01*
X135210547Y-83502605D01*
X135282235Y-83329535D01*
X135386313Y-83173771D01*
X135518771Y-83041313D01*
X135674535Y-82937235D01*
X135847605Y-82865547D01*
X136031334Y-82829001D01*
X136218668Y-82829001D01*
X136402397Y-82865547D01*
X136402397Y-82865547D01*
G37*
G36*
X138942397Y-81595547D02*
X139115467Y-81667235D01*
X139271231Y-81771313D01*
X139403689Y-81903771D01*
X139507767Y-82059535D01*
X139579455Y-82232605D01*
X139616001Y-82416334D01*
X139616001Y-82603668D01*
X139579455Y-82787397D01*
X139507767Y-82960467D01*
X139403689Y-83116231D01*
X139271231Y-83248689D01*
X139115467Y-83352767D01*
X138942397Y-83424455D01*
X138758668Y-83461001D01*
X138571334Y-83461001D01*
X138387605Y-83424455D01*
X138214535Y-83352767D01*
X138058771Y-83248689D01*
X137926313Y-83116231D01*
X137822235Y-82960467D01*
X137750547Y-82787397D01*
X137714001Y-82603668D01*
X137714001Y-82416334D01*
X137750547Y-82232605D01*
X137822235Y-82059535D01*
X137926313Y-81903771D01*
X138058771Y-81771313D01*
X138214535Y-81667235D01*
X138387605Y-81595547D01*
X138571334Y-81559001D01*
X138758668Y-81559001D01*
X138942397Y-81595547D01*
X138942397Y-81595547D01*
G37*
G36*
X136402397Y-80325547D02*
X136575467Y-80397235D01*
X136731231Y-80501313D01*
X136863689Y-80633771D01*
X136967767Y-80789535D01*
X137039455Y-80962605D01*
X137076001Y-81146334D01*
X137076001Y-81333668D01*
X137039455Y-81517397D01*
X136967767Y-81690467D01*
X136863689Y-81846231D01*
X136731231Y-81978689D01*
X136575467Y-82082767D01*
X136402397Y-82154455D01*
X136218668Y-82191001D01*
X136031334Y-82191001D01*
X135847605Y-82154455D01*
X135674535Y-82082767D01*
X135518771Y-81978689D01*
X135386313Y-81846231D01*
X135282235Y-81690467D01*
X135210547Y-81517397D01*
X135174001Y-81333668D01*
X135174001Y-81146334D01*
X135210547Y-80962605D01*
X135282235Y-80789535D01*
X135386313Y-80633771D01*
X135518771Y-80501313D01*
X135674535Y-80397235D01*
X135847605Y-80325547D01*
X136031334Y-80289001D01*
X136218668Y-80289001D01*
X136402397Y-80325547D01*
X136402397Y-80325547D01*
G37*
G36*
X138942397Y-79055547D02*
X139115467Y-79127235D01*
X139271231Y-79231313D01*
X139403689Y-79363771D01*
X139507767Y-79519535D01*
X139579455Y-79692605D01*
X139616001Y-79876334D01*
X139616001Y-80063668D01*
X139579455Y-80247397D01*
X139507767Y-80420467D01*
X139403689Y-80576231D01*
X139271231Y-80708689D01*
X139115467Y-80812767D01*
X138942397Y-80884455D01*
X138758668Y-80921001D01*
X138571334Y-80921001D01*
X138387605Y-80884455D01*
X138214535Y-80812767D01*
X138058771Y-80708689D01*
X137926313Y-80576231D01*
X137822235Y-80420467D01*
X137750547Y-80247397D01*
X137714001Y-80063668D01*
X137714001Y-79876334D01*
X137750547Y-79692605D01*
X137822235Y-79519535D01*
X137926313Y-79363771D01*
X138058771Y-79231313D01*
X138214535Y-79127235D01*
X138387605Y-79055547D01*
X138571334Y-79019001D01*
X138758668Y-79019001D01*
X138942397Y-79055547D01*
X138942397Y-79055547D01*
G37*
G36*
X138158656Y-76529734D02*
X138158658Y-76529735D01*
X138158659Y-76529735D01*
X138212510Y-76552041D01*
X138304441Y-76590120D01*
X138435644Y-76677787D01*
X138547215Y-76789358D01*
X138634882Y-76920561D01*
X138695268Y-77066346D01*
X138726051Y-77221103D01*
X138726051Y-77378899D01*
X138695268Y-77533656D01*
X138634882Y-77679441D01*
X138547215Y-77810644D01*
X138435644Y-77922215D01*
X138304441Y-78009882D01*
X138212510Y-78047961D01*
X138158659Y-78070267D01*
X138158658Y-78070267D01*
X138158656Y-78070268D01*
X138003899Y-78101051D01*
X137846103Y-78101051D01*
X137691346Y-78070268D01*
X137691344Y-78070267D01*
X137691343Y-78070267D01*
X137637492Y-78047961D01*
X137545561Y-78009882D01*
X137414358Y-77922215D01*
X137300051Y-77807908D01*
X137289389Y-77794916D01*
X137270447Y-77779371D01*
X137248836Y-77767820D01*
X137225387Y-77760707D01*
X137201000Y-77758305D01*
X137176614Y-77760707D01*
X137153165Y-77767820D01*
X137131554Y-77779372D01*
X137112612Y-77794917D01*
X137097067Y-77813859D01*
X137085516Y-77835470D01*
X137078403Y-77858919D01*
X137076001Y-77883305D01*
X137076001Y-79651001D01*
X135174001Y-79651001D01*
X135174001Y-77749001D01*
X137056856Y-77749001D01*
X137081242Y-77746599D01*
X137104691Y-77739486D01*
X137126302Y-77727935D01*
X137145244Y-77712389D01*
X137160790Y-77693447D01*
X137172341Y-77671836D01*
X137179454Y-77648387D01*
X137181856Y-77624001D01*
X137179454Y-77599615D01*
X137172341Y-77576166D01*
X137154734Y-77533659D01*
X137123951Y-77378899D01*
X137123951Y-77221103D01*
X137154734Y-77066346D01*
X137215120Y-76920561D01*
X137302787Y-76789358D01*
X137414358Y-76677787D01*
X137545561Y-76590120D01*
X137637492Y-76552041D01*
X137691343Y-76529735D01*
X137691344Y-76529735D01*
X137691346Y-76529734D01*
X137846103Y-76498951D01*
X138003899Y-76498951D01*
X138158656Y-76529734D01*
X138158656Y-76529734D01*
G37*
M02*
