G04 #@! TF.GenerationSoftware,KiCad,Pcbnew,5.0.2-bee76a0~70~ubuntu18.04.1*
G04 #@! TF.CreationDate,2018-12-18T05:27:10+01:00*
G04 #@! TF.ProjectId,myoelectronics_spi_harness_to_motor_controller_adapter,6d796f65-6c65-4637-9472-6f6e6963735f,rev?*
G04 #@! TF.SameCoordinates,Original*
G04 #@! TF.FileFunction,Copper,L2,Bot*
G04 #@! TF.FilePolarity,Positive*
%FSLAX46Y46*%
G04 Gerber Fmt 4.6, Leading zero omitted, Abs format (unit mm)*
G04 Created by KiCad (PCBNEW 5.0.2-bee76a0~70~ubuntu18.04.1) date Tue 18 Dec 2018 05:27:10 CET*
%MOMM*%
%LPD*%
G01*
G04 APERTURE LIST*
G04 #@! TA.AperFunction,ComponentPad*
%ADD10C,1.800000*%
G04 #@! TD*
G04 #@! TA.AperFunction,ComponentPad*
%ADD11R,1.800000X1.800000*%
G04 #@! TD*
G04 #@! TA.AperFunction,ViaPad*
%ADD12C,0.800000*%
G04 #@! TD*
G04 #@! TA.AperFunction,Conductor*
%ADD13C,0.250000*%
G04 #@! TD*
G04 #@! TA.AperFunction,Conductor*
%ADD14C,0.254000*%
G04 #@! TD*
G04 APERTURE END LIST*
D10*
G04 #@! TO.P,SPI_OUT2,4*
G04 #@! TO.N,/MISO*
X135560000Y-89460000D03*
G04 #@! TO.P,SPI_OUT2,3*
G04 #@! TO.N,/SS*
X134290000Y-92000000D03*
G04 #@! TO.P,SPI_OUT2,2*
G04 #@! TO.N,/GND*
X133020000Y-89460000D03*
D11*
G04 #@! TO.P,SPI_OUT2,1*
G04 #@! TO.N,Net-(J3-Pad1)*
X131750000Y-92000000D03*
D10*
G04 #@! TO.P,SPI_OUT2,5*
G04 #@! TO.N,/MOSI*
X136830000Y-92000000D03*
G04 #@! TO.P,SPI_OUT2,6*
G04 #@! TO.N,/SCK*
X138100000Y-89460000D03*
G04 #@! TD*
G04 #@! TO.P,SPI_IN,6*
G04 #@! TO.N,/GND*
X138665001Y-85050001D03*
G04 #@! TO.P,SPI_IN,5*
G04 #@! TO.N,/SS*
X136125001Y-83780001D03*
D11*
G04 #@! TO.P,SPI_IN,1*
G04 #@! TO.N,/MOSI*
X136125001Y-78700001D03*
D10*
G04 #@! TO.P,SPI_IN,2*
G04 #@! TO.N,/MISO*
X138665001Y-79970001D03*
G04 #@! TO.P,SPI_IN,3*
G04 #@! TO.N,/SCK*
X136125001Y-81240001D03*
G04 #@! TO.P,SPI_IN,4*
G04 #@! TO.N,/GND*
X138665001Y-82510001D03*
G04 #@! TD*
D12*
G04 #@! TO.N,/MOSI*
X130600000Y-81000000D03*
G04 #@! TO.N,/MISO*
X130600000Y-82999966D03*
G04 #@! TD*
D13*
G04 #@! TO.N,/SS*
X134290000Y-85615002D02*
X136125001Y-83780001D01*
X134290000Y-92000000D02*
X134290000Y-85615002D01*
G04 #@! TO.N,/MOSI*
X136125001Y-78700001D02*
X132899999Y-78700001D01*
X132899999Y-78700001D02*
X130600000Y-81000000D01*
G04 #@! TO.N,/MISO*
X138665001Y-79970001D02*
X133629965Y-79970001D01*
X130999999Y-82599967D02*
X130600000Y-82999966D01*
X133629965Y-79970001D02*
X130999999Y-82599967D01*
G04 #@! TD*
D14*
G04 #@! TO.N,/GND*
G36*
X136873000Y-77016927D02*
X136844751Y-77085126D01*
X136844751Y-77463332D01*
X135619707Y-77463332D01*
X135617333Y-77451399D01*
X135589803Y-77410197D01*
X135548601Y-77382667D01*
X135500000Y-77373000D01*
X135000000Y-77373000D01*
X134951399Y-77382667D01*
X134910197Y-77410197D01*
X134882667Y-77451399D01*
X134873000Y-77500000D01*
X134873000Y-78244801D01*
X132944824Y-78244801D01*
X132899999Y-78235885D01*
X132855174Y-78244801D01*
X132855170Y-78244801D01*
X132722389Y-78271213D01*
X132609823Y-78346427D01*
X132609822Y-78346428D01*
X132571819Y-78371821D01*
X132546426Y-78409824D01*
X130686451Y-80269800D01*
X130454754Y-80269800D01*
X130186375Y-80380967D01*
X129980967Y-80586375D01*
X129869800Y-80854754D01*
X129869800Y-81145246D01*
X129980967Y-81413625D01*
X130186375Y-81619033D01*
X130454754Y-81730200D01*
X130745246Y-81730200D01*
X131013625Y-81619033D01*
X131219033Y-81413625D01*
X131330200Y-81145246D01*
X131330200Y-80913549D01*
X133088549Y-79155201D01*
X134873000Y-79155201D01*
X134873000Y-79514801D01*
X133674790Y-79514801D01*
X133629965Y-79505885D01*
X133585140Y-79514801D01*
X133585136Y-79514801D01*
X133452355Y-79541213D01*
X133339789Y-79616427D01*
X133339788Y-79616428D01*
X133301785Y-79641821D01*
X133276392Y-79679824D01*
X130709825Y-82246392D01*
X130709822Y-82246394D01*
X130686450Y-82269766D01*
X130454754Y-82269766D01*
X130186375Y-82380933D01*
X129980967Y-82586341D01*
X129869800Y-82854720D01*
X129869800Y-83145212D01*
X129980967Y-83413591D01*
X130186375Y-83618999D01*
X130454754Y-83730166D01*
X130745246Y-83730166D01*
X131013625Y-83618999D01*
X131219033Y-83413591D01*
X131330200Y-83145212D01*
X131330200Y-82913516D01*
X131353572Y-82890144D01*
X131353574Y-82890141D01*
X133818515Y-80425201D01*
X134873000Y-80425201D01*
X134873000Y-84388253D01*
X133999824Y-85261429D01*
X133961821Y-85286822D01*
X133936428Y-85324825D01*
X133936427Y-85324826D01*
X133861212Y-85437393D01*
X133825884Y-85615002D01*
X133834801Y-85659832D01*
X133834800Y-88465592D01*
X133781671Y-88518721D01*
X133681321Y-88333704D01*
X133199966Y-88166362D01*
X132691213Y-88195964D01*
X132358679Y-88333704D01*
X132258328Y-88518723D01*
X133020000Y-89280395D01*
X133034143Y-89266253D01*
X133213748Y-89445858D01*
X133199605Y-89460000D01*
X133213748Y-89474143D01*
X133034143Y-89653748D01*
X133020000Y-89639605D01*
X132258328Y-90401277D01*
X132358679Y-90586296D01*
X132840034Y-90753638D01*
X133348787Y-90724036D01*
X133681321Y-90586296D01*
X133781671Y-90401279D01*
X133834800Y-90454408D01*
X133834800Y-90856991D01*
X133593148Y-90957087D01*
X133247087Y-91303148D01*
X133059800Y-91755298D01*
X133059800Y-92244702D01*
X133247087Y-92696852D01*
X133593148Y-93042913D01*
X134045298Y-93230200D01*
X134534702Y-93230200D01*
X134986852Y-93042913D01*
X135332913Y-92696852D01*
X135520200Y-92244702D01*
X135520200Y-91755298D01*
X135599800Y-91755298D01*
X135599800Y-92244702D01*
X135787087Y-92696852D01*
X136133148Y-93042913D01*
X136585298Y-93230200D01*
X137074702Y-93230200D01*
X137526852Y-93042913D01*
X137872913Y-92696852D01*
X138060200Y-92244702D01*
X138060200Y-91755298D01*
X137872913Y-91303148D01*
X137526852Y-90957087D01*
X137074702Y-90769800D01*
X136585298Y-90769800D01*
X136133148Y-90957087D01*
X135787087Y-91303148D01*
X135599800Y-91755298D01*
X135520200Y-91755298D01*
X135332913Y-91303148D01*
X134986852Y-90957087D01*
X134745200Y-90856991D01*
X134745200Y-90384965D01*
X134863148Y-90502913D01*
X135315298Y-90690200D01*
X135804702Y-90690200D01*
X136256852Y-90502913D01*
X136602913Y-90156852D01*
X136790200Y-89704702D01*
X136790200Y-89215298D01*
X136869800Y-89215298D01*
X136869800Y-89704702D01*
X137057087Y-90156852D01*
X137403148Y-90502913D01*
X137855298Y-90690200D01*
X138344702Y-90690200D01*
X138796852Y-90502913D01*
X139142913Y-90156852D01*
X139330200Y-89704702D01*
X139330200Y-89215298D01*
X139142913Y-88763148D01*
X138796852Y-88417087D01*
X138344702Y-88229800D01*
X137855298Y-88229800D01*
X137403148Y-88417087D01*
X137057087Y-88763148D01*
X136869800Y-89215298D01*
X136790200Y-89215298D01*
X136602913Y-88763148D01*
X136256852Y-88417087D01*
X135804702Y-88229800D01*
X135315298Y-88229800D01*
X134863148Y-88417087D01*
X134745200Y-88535035D01*
X134745200Y-85991278D01*
X137903329Y-85991278D01*
X138003680Y-86176297D01*
X138485035Y-86343639D01*
X138993788Y-86314037D01*
X139326322Y-86176297D01*
X139426673Y-85991278D01*
X138665001Y-85229606D01*
X137903329Y-85991278D01*
X134745200Y-85991278D01*
X134745200Y-85803551D01*
X135638646Y-84910105D01*
X135880299Y-85010201D01*
X136369703Y-85010201D01*
X136708093Y-84870035D01*
X137371363Y-84870035D01*
X137400965Y-85378788D01*
X137538705Y-85711322D01*
X137723724Y-85811673D01*
X138485396Y-85050001D01*
X138844606Y-85050001D01*
X139606278Y-85811673D01*
X139791297Y-85711322D01*
X139958639Y-85229967D01*
X139929037Y-84721214D01*
X139791297Y-84388680D01*
X139606278Y-84288329D01*
X138844606Y-85050001D01*
X138485396Y-85050001D01*
X137723724Y-84288329D01*
X137538705Y-84388680D01*
X137371363Y-84870035D01*
X136708093Y-84870035D01*
X136821853Y-84822914D01*
X137167914Y-84476853D01*
X137355201Y-84024703D01*
X137355201Y-83535299D01*
X137320399Y-83451278D01*
X137903329Y-83451278D01*
X138003680Y-83636297D01*
X138420148Y-83781081D01*
X138336214Y-83785965D01*
X138003680Y-83923705D01*
X137903329Y-84108724D01*
X138665001Y-84870396D01*
X139426673Y-84108724D01*
X139326322Y-83923705D01*
X138909854Y-83778921D01*
X138993788Y-83774037D01*
X139326322Y-83636297D01*
X139426673Y-83451278D01*
X138665001Y-82689606D01*
X137903329Y-83451278D01*
X137320399Y-83451278D01*
X137167914Y-83083149D01*
X136821853Y-82737088D01*
X136369703Y-82549801D01*
X135880299Y-82549801D01*
X135627000Y-82654721D01*
X135627000Y-82365281D01*
X135880299Y-82470201D01*
X136369703Y-82470201D01*
X136708093Y-82330035D01*
X137371363Y-82330035D01*
X137400965Y-82838788D01*
X137538705Y-83171322D01*
X137723724Y-83271673D01*
X138485396Y-82510001D01*
X138844606Y-82510001D01*
X139606278Y-83271673D01*
X139791297Y-83171322D01*
X139958639Y-82689967D01*
X139929037Y-82181214D01*
X139791297Y-81848680D01*
X139606278Y-81748329D01*
X138844606Y-82510001D01*
X138485396Y-82510001D01*
X137723724Y-81748329D01*
X137538705Y-81848680D01*
X137371363Y-82330035D01*
X136708093Y-82330035D01*
X136821853Y-82282914D01*
X137167914Y-81936853D01*
X137320398Y-81568724D01*
X137903329Y-81568724D01*
X138665001Y-82330396D01*
X139426673Y-81568724D01*
X139326322Y-81383705D01*
X138844967Y-81216363D01*
X138336214Y-81245965D01*
X138003680Y-81383705D01*
X137903329Y-81568724D01*
X137320398Y-81568724D01*
X137355201Y-81484703D01*
X137355201Y-80995299D01*
X137167914Y-80543149D01*
X137049966Y-80425201D01*
X137521992Y-80425201D01*
X137622088Y-80666853D01*
X137968149Y-81012914D01*
X138420299Y-81200201D01*
X138909703Y-81200201D01*
X139361853Y-81012914D01*
X139707914Y-80666853D01*
X139895201Y-80214703D01*
X139895201Y-79725299D01*
X139707914Y-79273149D01*
X139361853Y-78927088D01*
X138909703Y-78739801D01*
X138420299Y-78739801D01*
X137968149Y-78927088D01*
X137622088Y-79273149D01*
X137521992Y-79514801D01*
X137361670Y-79514801D01*
X137361670Y-78235915D01*
X137710126Y-78380251D01*
X138139876Y-78380251D01*
X138536913Y-78215792D01*
X138840792Y-77911913D01*
X139005251Y-77514876D01*
X139005251Y-77085126D01*
X138840792Y-76688089D01*
X138557903Y-76405200D01*
X140594800Y-76405200D01*
X140594801Y-93594800D01*
X126905200Y-93594800D01*
X126905200Y-89985125D01*
X129269750Y-89985125D01*
X129269750Y-90414875D01*
X129434209Y-90811912D01*
X129738088Y-91115791D01*
X130135125Y-91280250D01*
X130513331Y-91280250D01*
X130513331Y-92900000D01*
X130538958Y-93028838D01*
X130611939Y-93138061D01*
X130721162Y-93211042D01*
X130850000Y-93236669D01*
X132650000Y-93236669D01*
X132778838Y-93211042D01*
X132888061Y-93138061D01*
X132961042Y-93028838D01*
X132986669Y-92900000D01*
X132986669Y-91100000D01*
X132961042Y-90971162D01*
X132888061Y-90861939D01*
X132778838Y-90788958D01*
X132650000Y-90763331D01*
X131285914Y-90763331D01*
X131430250Y-90414875D01*
X131430250Y-89985125D01*
X131265791Y-89588088D01*
X130961912Y-89284209D01*
X130951833Y-89280034D01*
X131726362Y-89280034D01*
X131755964Y-89788787D01*
X131893704Y-90121321D01*
X132078723Y-90221672D01*
X132840395Y-89460000D01*
X132078723Y-88698328D01*
X131893704Y-88798679D01*
X131726362Y-89280034D01*
X130951833Y-89280034D01*
X130564875Y-89119750D01*
X130135125Y-89119750D01*
X129738088Y-89284209D01*
X129434209Y-89588088D01*
X129269750Y-89985125D01*
X126905200Y-89985125D01*
X126905200Y-76405200D01*
X136873000Y-76405200D01*
X136873000Y-77016927D01*
X136873000Y-77016927D01*
G37*
X136873000Y-77016927D02*
X136844751Y-77085126D01*
X136844751Y-77463332D01*
X135619707Y-77463332D01*
X135617333Y-77451399D01*
X135589803Y-77410197D01*
X135548601Y-77382667D01*
X135500000Y-77373000D01*
X135000000Y-77373000D01*
X134951399Y-77382667D01*
X134910197Y-77410197D01*
X134882667Y-77451399D01*
X134873000Y-77500000D01*
X134873000Y-78244801D01*
X132944824Y-78244801D01*
X132899999Y-78235885D01*
X132855174Y-78244801D01*
X132855170Y-78244801D01*
X132722389Y-78271213D01*
X132609823Y-78346427D01*
X132609822Y-78346428D01*
X132571819Y-78371821D01*
X132546426Y-78409824D01*
X130686451Y-80269800D01*
X130454754Y-80269800D01*
X130186375Y-80380967D01*
X129980967Y-80586375D01*
X129869800Y-80854754D01*
X129869800Y-81145246D01*
X129980967Y-81413625D01*
X130186375Y-81619033D01*
X130454754Y-81730200D01*
X130745246Y-81730200D01*
X131013625Y-81619033D01*
X131219033Y-81413625D01*
X131330200Y-81145246D01*
X131330200Y-80913549D01*
X133088549Y-79155201D01*
X134873000Y-79155201D01*
X134873000Y-79514801D01*
X133674790Y-79514801D01*
X133629965Y-79505885D01*
X133585140Y-79514801D01*
X133585136Y-79514801D01*
X133452355Y-79541213D01*
X133339789Y-79616427D01*
X133339788Y-79616428D01*
X133301785Y-79641821D01*
X133276392Y-79679824D01*
X130709825Y-82246392D01*
X130709822Y-82246394D01*
X130686450Y-82269766D01*
X130454754Y-82269766D01*
X130186375Y-82380933D01*
X129980967Y-82586341D01*
X129869800Y-82854720D01*
X129869800Y-83145212D01*
X129980967Y-83413591D01*
X130186375Y-83618999D01*
X130454754Y-83730166D01*
X130745246Y-83730166D01*
X131013625Y-83618999D01*
X131219033Y-83413591D01*
X131330200Y-83145212D01*
X131330200Y-82913516D01*
X131353572Y-82890144D01*
X131353574Y-82890141D01*
X133818515Y-80425201D01*
X134873000Y-80425201D01*
X134873000Y-84388253D01*
X133999824Y-85261429D01*
X133961821Y-85286822D01*
X133936428Y-85324825D01*
X133936427Y-85324826D01*
X133861212Y-85437393D01*
X133825884Y-85615002D01*
X133834801Y-85659832D01*
X133834800Y-88465592D01*
X133781671Y-88518721D01*
X133681321Y-88333704D01*
X133199966Y-88166362D01*
X132691213Y-88195964D01*
X132358679Y-88333704D01*
X132258328Y-88518723D01*
X133020000Y-89280395D01*
X133034143Y-89266253D01*
X133213748Y-89445858D01*
X133199605Y-89460000D01*
X133213748Y-89474143D01*
X133034143Y-89653748D01*
X133020000Y-89639605D01*
X132258328Y-90401277D01*
X132358679Y-90586296D01*
X132840034Y-90753638D01*
X133348787Y-90724036D01*
X133681321Y-90586296D01*
X133781671Y-90401279D01*
X133834800Y-90454408D01*
X133834800Y-90856991D01*
X133593148Y-90957087D01*
X133247087Y-91303148D01*
X133059800Y-91755298D01*
X133059800Y-92244702D01*
X133247087Y-92696852D01*
X133593148Y-93042913D01*
X134045298Y-93230200D01*
X134534702Y-93230200D01*
X134986852Y-93042913D01*
X135332913Y-92696852D01*
X135520200Y-92244702D01*
X135520200Y-91755298D01*
X135599800Y-91755298D01*
X135599800Y-92244702D01*
X135787087Y-92696852D01*
X136133148Y-93042913D01*
X136585298Y-93230200D01*
X137074702Y-93230200D01*
X137526852Y-93042913D01*
X137872913Y-92696852D01*
X138060200Y-92244702D01*
X138060200Y-91755298D01*
X137872913Y-91303148D01*
X137526852Y-90957087D01*
X137074702Y-90769800D01*
X136585298Y-90769800D01*
X136133148Y-90957087D01*
X135787087Y-91303148D01*
X135599800Y-91755298D01*
X135520200Y-91755298D01*
X135332913Y-91303148D01*
X134986852Y-90957087D01*
X134745200Y-90856991D01*
X134745200Y-90384965D01*
X134863148Y-90502913D01*
X135315298Y-90690200D01*
X135804702Y-90690200D01*
X136256852Y-90502913D01*
X136602913Y-90156852D01*
X136790200Y-89704702D01*
X136790200Y-89215298D01*
X136869800Y-89215298D01*
X136869800Y-89704702D01*
X137057087Y-90156852D01*
X137403148Y-90502913D01*
X137855298Y-90690200D01*
X138344702Y-90690200D01*
X138796852Y-90502913D01*
X139142913Y-90156852D01*
X139330200Y-89704702D01*
X139330200Y-89215298D01*
X139142913Y-88763148D01*
X138796852Y-88417087D01*
X138344702Y-88229800D01*
X137855298Y-88229800D01*
X137403148Y-88417087D01*
X137057087Y-88763148D01*
X136869800Y-89215298D01*
X136790200Y-89215298D01*
X136602913Y-88763148D01*
X136256852Y-88417087D01*
X135804702Y-88229800D01*
X135315298Y-88229800D01*
X134863148Y-88417087D01*
X134745200Y-88535035D01*
X134745200Y-85991278D01*
X137903329Y-85991278D01*
X138003680Y-86176297D01*
X138485035Y-86343639D01*
X138993788Y-86314037D01*
X139326322Y-86176297D01*
X139426673Y-85991278D01*
X138665001Y-85229606D01*
X137903329Y-85991278D01*
X134745200Y-85991278D01*
X134745200Y-85803551D01*
X135638646Y-84910105D01*
X135880299Y-85010201D01*
X136369703Y-85010201D01*
X136708093Y-84870035D01*
X137371363Y-84870035D01*
X137400965Y-85378788D01*
X137538705Y-85711322D01*
X137723724Y-85811673D01*
X138485396Y-85050001D01*
X138844606Y-85050001D01*
X139606278Y-85811673D01*
X139791297Y-85711322D01*
X139958639Y-85229967D01*
X139929037Y-84721214D01*
X139791297Y-84388680D01*
X139606278Y-84288329D01*
X138844606Y-85050001D01*
X138485396Y-85050001D01*
X137723724Y-84288329D01*
X137538705Y-84388680D01*
X137371363Y-84870035D01*
X136708093Y-84870035D01*
X136821853Y-84822914D01*
X137167914Y-84476853D01*
X137355201Y-84024703D01*
X137355201Y-83535299D01*
X137320399Y-83451278D01*
X137903329Y-83451278D01*
X138003680Y-83636297D01*
X138420148Y-83781081D01*
X138336214Y-83785965D01*
X138003680Y-83923705D01*
X137903329Y-84108724D01*
X138665001Y-84870396D01*
X139426673Y-84108724D01*
X139326322Y-83923705D01*
X138909854Y-83778921D01*
X138993788Y-83774037D01*
X139326322Y-83636297D01*
X139426673Y-83451278D01*
X138665001Y-82689606D01*
X137903329Y-83451278D01*
X137320399Y-83451278D01*
X137167914Y-83083149D01*
X136821853Y-82737088D01*
X136369703Y-82549801D01*
X135880299Y-82549801D01*
X135627000Y-82654721D01*
X135627000Y-82365281D01*
X135880299Y-82470201D01*
X136369703Y-82470201D01*
X136708093Y-82330035D01*
X137371363Y-82330035D01*
X137400965Y-82838788D01*
X137538705Y-83171322D01*
X137723724Y-83271673D01*
X138485396Y-82510001D01*
X138844606Y-82510001D01*
X139606278Y-83271673D01*
X139791297Y-83171322D01*
X139958639Y-82689967D01*
X139929037Y-82181214D01*
X139791297Y-81848680D01*
X139606278Y-81748329D01*
X138844606Y-82510001D01*
X138485396Y-82510001D01*
X137723724Y-81748329D01*
X137538705Y-81848680D01*
X137371363Y-82330035D01*
X136708093Y-82330035D01*
X136821853Y-82282914D01*
X137167914Y-81936853D01*
X137320398Y-81568724D01*
X137903329Y-81568724D01*
X138665001Y-82330396D01*
X139426673Y-81568724D01*
X139326322Y-81383705D01*
X138844967Y-81216363D01*
X138336214Y-81245965D01*
X138003680Y-81383705D01*
X137903329Y-81568724D01*
X137320398Y-81568724D01*
X137355201Y-81484703D01*
X137355201Y-80995299D01*
X137167914Y-80543149D01*
X137049966Y-80425201D01*
X137521992Y-80425201D01*
X137622088Y-80666853D01*
X137968149Y-81012914D01*
X138420299Y-81200201D01*
X138909703Y-81200201D01*
X139361853Y-81012914D01*
X139707914Y-80666853D01*
X139895201Y-80214703D01*
X139895201Y-79725299D01*
X139707914Y-79273149D01*
X139361853Y-78927088D01*
X138909703Y-78739801D01*
X138420299Y-78739801D01*
X137968149Y-78927088D01*
X137622088Y-79273149D01*
X137521992Y-79514801D01*
X137361670Y-79514801D01*
X137361670Y-78235915D01*
X137710126Y-78380251D01*
X138139876Y-78380251D01*
X138536913Y-78215792D01*
X138840792Y-77911913D01*
X139005251Y-77514876D01*
X139005251Y-77085126D01*
X138840792Y-76688089D01*
X138557903Y-76405200D01*
X140594800Y-76405200D01*
X140594801Y-93594800D01*
X126905200Y-93594800D01*
X126905200Y-89985125D01*
X129269750Y-89985125D01*
X129269750Y-90414875D01*
X129434209Y-90811912D01*
X129738088Y-91115791D01*
X130135125Y-91280250D01*
X130513331Y-91280250D01*
X130513331Y-92900000D01*
X130538958Y-93028838D01*
X130611939Y-93138061D01*
X130721162Y-93211042D01*
X130850000Y-93236669D01*
X132650000Y-93236669D01*
X132778838Y-93211042D01*
X132888061Y-93138061D01*
X132961042Y-93028838D01*
X132986669Y-92900000D01*
X132986669Y-91100000D01*
X132961042Y-90971162D01*
X132888061Y-90861939D01*
X132778838Y-90788958D01*
X132650000Y-90763331D01*
X131285914Y-90763331D01*
X131430250Y-90414875D01*
X131430250Y-89985125D01*
X131265791Y-89588088D01*
X130961912Y-89284209D01*
X130951833Y-89280034D01*
X131726362Y-89280034D01*
X131755964Y-89788787D01*
X131893704Y-90121321D01*
X132078723Y-90221672D01*
X132840395Y-89460000D01*
X132078723Y-88698328D01*
X131893704Y-88798679D01*
X131726362Y-89280034D01*
X130951833Y-89280034D01*
X130564875Y-89119750D01*
X130135125Y-89119750D01*
X129738088Y-89284209D01*
X129434209Y-89588088D01*
X129269750Y-89985125D01*
X126905200Y-89985125D01*
X126905200Y-76405200D01*
X136873000Y-76405200D01*
X136873000Y-77016927D01*
G04 #@! TD*
M02*
