G04 #@! TF.GenerationSoftware,KiCad,Pcbnew,5.0.2-bee76a0~70~ubuntu18.04.1*
G04 #@! TF.CreationDate,2018-12-18T05:27:10+01:00*
G04 #@! TF.ProjectId,myoelectronics_spi_harness_to_motor_controller_adapter,6d796f65-6c65-4637-9472-6f6e6963735f,rev?*
G04 #@! TF.SameCoordinates,Original*
G04 #@! TF.FileFunction,Soldermask,Top*
G04 #@! TF.FilePolarity,Negative*
%FSLAX46Y46*%
G04 Gerber Fmt 4.6, Leading zero omitted, Abs format (unit mm)*
G04 Created by KiCad (PCBNEW 5.0.2-bee76a0~70~ubuntu18.04.1) date Tue 18 Dec 2018 05:27:10 CET*
%MOMM*%
%LPD*%
G01*
G04 APERTURE LIST*
%ADD10C,0.010000*%
%ADD11C,0.100000*%
G04 APERTURE END LIST*
D10*
G04 #@! TO.C,G\002A\002A\002A*
G36*
X128462563Y-89930464D02*
X128461185Y-89953725D01*
X128458500Y-89974737D01*
X128455954Y-89988626D01*
X128438232Y-90052383D01*
X128411922Y-90111523D01*
X128377475Y-90165205D01*
X128336449Y-90211520D01*
X128288391Y-90251121D01*
X128234987Y-90282950D01*
X128177400Y-90307011D01*
X128116793Y-90323308D01*
X128054330Y-90331845D01*
X127991174Y-90332628D01*
X127928489Y-90325661D01*
X127867438Y-90310949D01*
X127809185Y-90288495D01*
X127754894Y-90258306D01*
X127705727Y-90220385D01*
X127693643Y-90208980D01*
X127650790Y-90159844D01*
X127616692Y-90105582D01*
X127591479Y-90046438D01*
X127576477Y-89989158D01*
X127573100Y-89964182D01*
X127570918Y-89932717D01*
X127569924Y-89897634D01*
X127570115Y-89861800D01*
X127571485Y-89828085D01*
X127574030Y-89799356D01*
X127576826Y-89782260D01*
X127595468Y-89718316D01*
X127621844Y-89660699D01*
X127656271Y-89608790D01*
X127680261Y-89580832D01*
X127728128Y-89536314D01*
X127780044Y-89500719D01*
X127836468Y-89473861D01*
X127897858Y-89455551D01*
X127964673Y-89445603D01*
X128015676Y-89443540D01*
X128015676Y-89615136D01*
X127978601Y-89616173D01*
X127944627Y-89619199D01*
X127918565Y-89623827D01*
X127867373Y-89641023D01*
X127822220Y-89665704D01*
X127783740Y-89697281D01*
X127752567Y-89735167D01*
X127729337Y-89778772D01*
X127719144Y-89808631D01*
X127715015Y-89831172D01*
X127712649Y-89860054D01*
X127712034Y-89891882D01*
X127713161Y-89923259D01*
X127716019Y-89950787D01*
X127719625Y-89968027D01*
X127738365Y-90014962D01*
X127765047Y-90056481D01*
X127798817Y-90091577D01*
X127838818Y-90119242D01*
X127854971Y-90127368D01*
X127883082Y-90139325D01*
X127908593Y-90147838D01*
X127934314Y-90153435D01*
X127963056Y-90156642D01*
X127997629Y-90157987D01*
X128018860Y-90158126D01*
X128049932Y-90157838D01*
X128073573Y-90156830D01*
X128092504Y-90154808D01*
X128109445Y-90151474D01*
X128127117Y-90146532D01*
X128128080Y-90146234D01*
X128179814Y-90126006D01*
X128223376Y-90099880D01*
X128259063Y-90067568D01*
X128287173Y-90028785D01*
X128308003Y-89983243D01*
X128312934Y-89968027D01*
X128317581Y-89944652D01*
X128320248Y-89914841D01*
X128320917Y-89882126D01*
X128319570Y-89850040D01*
X128316188Y-89822116D01*
X128313740Y-89810865D01*
X128296140Y-89762975D01*
X128270534Y-89721306D01*
X128237009Y-89685942D01*
X128195656Y-89656965D01*
X128146562Y-89634458D01*
X128112840Y-89623938D01*
X128086062Y-89619020D01*
X128052585Y-89616086D01*
X128015676Y-89615136D01*
X128015676Y-89443540D01*
X128016320Y-89443513D01*
X128087117Y-89447521D01*
X128152116Y-89459691D01*
X128211853Y-89480245D01*
X128266867Y-89509401D01*
X128317695Y-89547380D01*
X128353171Y-89581552D01*
X128375423Y-89606794D01*
X128393070Y-89631097D01*
X128409098Y-89658799D01*
X128416917Y-89674223D01*
X128431810Y-89705806D01*
X128442865Y-89733095D01*
X128450719Y-89758814D01*
X128456009Y-89785690D01*
X128459372Y-89816448D01*
X128461446Y-89853813D01*
X128461912Y-89866706D01*
X128462763Y-89902332D01*
X128462563Y-89930464D01*
X128462563Y-89930464D01*
G37*
X128462563Y-89930464D02*
X128461185Y-89953725D01*
X128458500Y-89974737D01*
X128455954Y-89988626D01*
X128438232Y-90052383D01*
X128411922Y-90111523D01*
X128377475Y-90165205D01*
X128336449Y-90211520D01*
X128288391Y-90251121D01*
X128234987Y-90282950D01*
X128177400Y-90307011D01*
X128116793Y-90323308D01*
X128054330Y-90331845D01*
X127991174Y-90332628D01*
X127928489Y-90325661D01*
X127867438Y-90310949D01*
X127809185Y-90288495D01*
X127754894Y-90258306D01*
X127705727Y-90220385D01*
X127693643Y-90208980D01*
X127650790Y-90159844D01*
X127616692Y-90105582D01*
X127591479Y-90046438D01*
X127576477Y-89989158D01*
X127573100Y-89964182D01*
X127570918Y-89932717D01*
X127569924Y-89897634D01*
X127570115Y-89861800D01*
X127571485Y-89828085D01*
X127574030Y-89799356D01*
X127576826Y-89782260D01*
X127595468Y-89718316D01*
X127621844Y-89660699D01*
X127656271Y-89608790D01*
X127680261Y-89580832D01*
X127728128Y-89536314D01*
X127780044Y-89500719D01*
X127836468Y-89473861D01*
X127897858Y-89455551D01*
X127964673Y-89445603D01*
X128015676Y-89443540D01*
X128015676Y-89615136D01*
X127978601Y-89616173D01*
X127944627Y-89619199D01*
X127918565Y-89623827D01*
X127867373Y-89641023D01*
X127822220Y-89665704D01*
X127783740Y-89697281D01*
X127752567Y-89735167D01*
X127729337Y-89778772D01*
X127719144Y-89808631D01*
X127715015Y-89831172D01*
X127712649Y-89860054D01*
X127712034Y-89891882D01*
X127713161Y-89923259D01*
X127716019Y-89950787D01*
X127719625Y-89968027D01*
X127738365Y-90014962D01*
X127765047Y-90056481D01*
X127798817Y-90091577D01*
X127838818Y-90119242D01*
X127854971Y-90127368D01*
X127883082Y-90139325D01*
X127908593Y-90147838D01*
X127934314Y-90153435D01*
X127963056Y-90156642D01*
X127997629Y-90157987D01*
X128018860Y-90158126D01*
X128049932Y-90157838D01*
X128073573Y-90156830D01*
X128092504Y-90154808D01*
X128109445Y-90151474D01*
X128127117Y-90146532D01*
X128128080Y-90146234D01*
X128179814Y-90126006D01*
X128223376Y-90099880D01*
X128259063Y-90067568D01*
X128287173Y-90028785D01*
X128308003Y-89983243D01*
X128312934Y-89968027D01*
X128317581Y-89944652D01*
X128320248Y-89914841D01*
X128320917Y-89882126D01*
X128319570Y-89850040D01*
X128316188Y-89822116D01*
X128313740Y-89810865D01*
X128296140Y-89762975D01*
X128270534Y-89721306D01*
X128237009Y-89685942D01*
X128195656Y-89656965D01*
X128146562Y-89634458D01*
X128112840Y-89623938D01*
X128086062Y-89619020D01*
X128052585Y-89616086D01*
X128015676Y-89615136D01*
X128015676Y-89443540D01*
X128016320Y-89443513D01*
X128087117Y-89447521D01*
X128152116Y-89459691D01*
X128211853Y-89480245D01*
X128266867Y-89509401D01*
X128317695Y-89547380D01*
X128353171Y-89581552D01*
X128375423Y-89606794D01*
X128393070Y-89631097D01*
X128409098Y-89658799D01*
X128416917Y-89674223D01*
X128431810Y-89705806D01*
X128442865Y-89733095D01*
X128450719Y-89758814D01*
X128456009Y-89785690D01*
X128459372Y-89816448D01*
X128461446Y-89853813D01*
X128461912Y-89866706D01*
X128462763Y-89902332D01*
X128462563Y-89930464D01*
G36*
X128462563Y-91683064D02*
X128461185Y-91706325D01*
X128458500Y-91727337D01*
X128455954Y-91741226D01*
X128438232Y-91804983D01*
X128411922Y-91864123D01*
X128377475Y-91917805D01*
X128336449Y-91964120D01*
X128288391Y-92003721D01*
X128234987Y-92035550D01*
X128177400Y-92059611D01*
X128116793Y-92075908D01*
X128054330Y-92084445D01*
X127991174Y-92085228D01*
X127928489Y-92078261D01*
X127867438Y-92063549D01*
X127809185Y-92041095D01*
X127754894Y-92010906D01*
X127705727Y-91972985D01*
X127693643Y-91961580D01*
X127650790Y-91912444D01*
X127616692Y-91858182D01*
X127591479Y-91799038D01*
X127576477Y-91741758D01*
X127573100Y-91716782D01*
X127570918Y-91685317D01*
X127569924Y-91650234D01*
X127570115Y-91614400D01*
X127571485Y-91580685D01*
X127574030Y-91551956D01*
X127576826Y-91534860D01*
X127595468Y-91470916D01*
X127621844Y-91413299D01*
X127656271Y-91361390D01*
X127680261Y-91333432D01*
X127728128Y-91288914D01*
X127780044Y-91253319D01*
X127836468Y-91226461D01*
X127897858Y-91208151D01*
X127964673Y-91198203D01*
X128015676Y-91196140D01*
X128015676Y-91367736D01*
X127978601Y-91368773D01*
X127944627Y-91371799D01*
X127918565Y-91376427D01*
X127867373Y-91393623D01*
X127822220Y-91418304D01*
X127783740Y-91449881D01*
X127752567Y-91487767D01*
X127729337Y-91531372D01*
X127719144Y-91561231D01*
X127715015Y-91583772D01*
X127712649Y-91612654D01*
X127712034Y-91644482D01*
X127713161Y-91675859D01*
X127716019Y-91703387D01*
X127719625Y-91720627D01*
X127738365Y-91767562D01*
X127765047Y-91809081D01*
X127798817Y-91844177D01*
X127838818Y-91871842D01*
X127854971Y-91879968D01*
X127883082Y-91891925D01*
X127908593Y-91900438D01*
X127934314Y-91906035D01*
X127963056Y-91909242D01*
X127997629Y-91910587D01*
X128018860Y-91910726D01*
X128049932Y-91910438D01*
X128073573Y-91909430D01*
X128092504Y-91907408D01*
X128109445Y-91904074D01*
X128127117Y-91899132D01*
X128128080Y-91898834D01*
X128179814Y-91878606D01*
X128223376Y-91852480D01*
X128259063Y-91820168D01*
X128287173Y-91781385D01*
X128308003Y-91735843D01*
X128312934Y-91720627D01*
X128317581Y-91697252D01*
X128320248Y-91667441D01*
X128320917Y-91634726D01*
X128319570Y-91602640D01*
X128316188Y-91574716D01*
X128313740Y-91563465D01*
X128296140Y-91515575D01*
X128270534Y-91473906D01*
X128237009Y-91438542D01*
X128195656Y-91409565D01*
X128146562Y-91387058D01*
X128112840Y-91376538D01*
X128086062Y-91371620D01*
X128052585Y-91368686D01*
X128015676Y-91367736D01*
X128015676Y-91196140D01*
X128016320Y-91196113D01*
X128087117Y-91200121D01*
X128152116Y-91212291D01*
X128211853Y-91232845D01*
X128266867Y-91262001D01*
X128317695Y-91299980D01*
X128353171Y-91334152D01*
X128375423Y-91359394D01*
X128393070Y-91383697D01*
X128409098Y-91411399D01*
X128416917Y-91426823D01*
X128431810Y-91458406D01*
X128442865Y-91485695D01*
X128450719Y-91511414D01*
X128456009Y-91538290D01*
X128459372Y-91569048D01*
X128461446Y-91606413D01*
X128461912Y-91619306D01*
X128462763Y-91654932D01*
X128462563Y-91683064D01*
X128462563Y-91683064D01*
G37*
X128462563Y-91683064D02*
X128461185Y-91706325D01*
X128458500Y-91727337D01*
X128455954Y-91741226D01*
X128438232Y-91804983D01*
X128411922Y-91864123D01*
X128377475Y-91917805D01*
X128336449Y-91964120D01*
X128288391Y-92003721D01*
X128234987Y-92035550D01*
X128177400Y-92059611D01*
X128116793Y-92075908D01*
X128054330Y-92084445D01*
X127991174Y-92085228D01*
X127928489Y-92078261D01*
X127867438Y-92063549D01*
X127809185Y-92041095D01*
X127754894Y-92010906D01*
X127705727Y-91972985D01*
X127693643Y-91961580D01*
X127650790Y-91912444D01*
X127616692Y-91858182D01*
X127591479Y-91799038D01*
X127576477Y-91741758D01*
X127573100Y-91716782D01*
X127570918Y-91685317D01*
X127569924Y-91650234D01*
X127570115Y-91614400D01*
X127571485Y-91580685D01*
X127574030Y-91551956D01*
X127576826Y-91534860D01*
X127595468Y-91470916D01*
X127621844Y-91413299D01*
X127656271Y-91361390D01*
X127680261Y-91333432D01*
X127728128Y-91288914D01*
X127780044Y-91253319D01*
X127836468Y-91226461D01*
X127897858Y-91208151D01*
X127964673Y-91198203D01*
X128015676Y-91196140D01*
X128015676Y-91367736D01*
X127978601Y-91368773D01*
X127944627Y-91371799D01*
X127918565Y-91376427D01*
X127867373Y-91393623D01*
X127822220Y-91418304D01*
X127783740Y-91449881D01*
X127752567Y-91487767D01*
X127729337Y-91531372D01*
X127719144Y-91561231D01*
X127715015Y-91583772D01*
X127712649Y-91612654D01*
X127712034Y-91644482D01*
X127713161Y-91675859D01*
X127716019Y-91703387D01*
X127719625Y-91720627D01*
X127738365Y-91767562D01*
X127765047Y-91809081D01*
X127798817Y-91844177D01*
X127838818Y-91871842D01*
X127854971Y-91879968D01*
X127883082Y-91891925D01*
X127908593Y-91900438D01*
X127934314Y-91906035D01*
X127963056Y-91909242D01*
X127997629Y-91910587D01*
X128018860Y-91910726D01*
X128049932Y-91910438D01*
X128073573Y-91909430D01*
X128092504Y-91907408D01*
X128109445Y-91904074D01*
X128127117Y-91899132D01*
X128128080Y-91898834D01*
X128179814Y-91878606D01*
X128223376Y-91852480D01*
X128259063Y-91820168D01*
X128287173Y-91781385D01*
X128308003Y-91735843D01*
X128312934Y-91720627D01*
X128317581Y-91697252D01*
X128320248Y-91667441D01*
X128320917Y-91634726D01*
X128319570Y-91602640D01*
X128316188Y-91574716D01*
X128313740Y-91563465D01*
X128296140Y-91515575D01*
X128270534Y-91473906D01*
X128237009Y-91438542D01*
X128195656Y-91409565D01*
X128146562Y-91387058D01*
X128112840Y-91376538D01*
X128086062Y-91371620D01*
X128052585Y-91368686D01*
X128015676Y-91367736D01*
X128015676Y-91196140D01*
X128016320Y-91196113D01*
X128087117Y-91200121D01*
X128152116Y-91212291D01*
X128211853Y-91232845D01*
X128266867Y-91262001D01*
X128317695Y-91299980D01*
X128353171Y-91334152D01*
X128375423Y-91359394D01*
X128393070Y-91383697D01*
X128409098Y-91411399D01*
X128416917Y-91426823D01*
X128431810Y-91458406D01*
X128442865Y-91485695D01*
X128450719Y-91511414D01*
X128456009Y-91538290D01*
X128459372Y-91569048D01*
X128461446Y-91606413D01*
X128461912Y-91619306D01*
X128462763Y-91654932D01*
X128462563Y-91683064D01*
G36*
X128451857Y-88925010D02*
X128451239Y-88977775D01*
X128450540Y-89021596D01*
X128449605Y-89057687D01*
X128448278Y-89087263D01*
X128446400Y-89111539D01*
X128443817Y-89131730D01*
X128440371Y-89149050D01*
X128435906Y-89164716D01*
X128430266Y-89179941D01*
X128423294Y-89195941D01*
X128414834Y-89213930D01*
X128414575Y-89214471D01*
X128389873Y-89255157D01*
X128358376Y-89288389D01*
X128320513Y-89313858D01*
X128276716Y-89331251D01*
X128243051Y-89338412D01*
X128190623Y-89341333D01*
X128140612Y-89334847D01*
X128093943Y-89319460D01*
X128051544Y-89295676D01*
X128014341Y-89264001D01*
X127983258Y-89224941D01*
X127961721Y-89184897D01*
X127949314Y-89156494D01*
X127928207Y-89178084D01*
X127920906Y-89184224D01*
X127906663Y-89195045D01*
X127886561Y-89209792D01*
X127861680Y-89227715D01*
X127833103Y-89248058D01*
X127801913Y-89270070D01*
X127769190Y-89292998D01*
X127736016Y-89316089D01*
X127703475Y-89338589D01*
X127672647Y-89359746D01*
X127644614Y-89378807D01*
X127620459Y-89395018D01*
X127601264Y-89407628D01*
X127588110Y-89415883D01*
X127582079Y-89419030D01*
X127581970Y-89419040D01*
X127580554Y-89414289D01*
X127579624Y-89401325D01*
X127579142Y-89382082D01*
X127579073Y-89358495D01*
X127579380Y-89332497D01*
X127580026Y-89306021D01*
X127580976Y-89281003D01*
X127582193Y-89259375D01*
X127583640Y-89243072D01*
X127585282Y-89234028D01*
X127585458Y-89233590D01*
X127591596Y-89226686D01*
X127606014Y-89214800D01*
X127628772Y-89197891D01*
X127659928Y-89175919D01*
X127699542Y-89148842D01*
X127747672Y-89116619D01*
X127804377Y-89079211D01*
X127865267Y-89039466D01*
X127882657Y-89027320D01*
X127897352Y-89015543D01*
X127906598Y-89006369D01*
X127907479Y-89005155D01*
X127912085Y-88992920D01*
X127915844Y-88972516D01*
X127918314Y-88947030D01*
X127921304Y-88900880D01*
X127579440Y-88900880D01*
X127579440Y-88733240D01*
X128035555Y-88733240D01*
X128035555Y-88900880D01*
X128037758Y-88978350D01*
X128038879Y-89010242D01*
X128040352Y-89034204D01*
X128042466Y-89052466D01*
X128045509Y-89067257D01*
X128049771Y-89080809D01*
X128051664Y-89085826D01*
X128069617Y-89119667D01*
X128093909Y-89145596D01*
X128124364Y-89163500D01*
X128160809Y-89173265D01*
X128189035Y-89175200D01*
X128225591Y-89170620D01*
X128257482Y-89157394D01*
X128283750Y-89136293D01*
X128303434Y-89108088D01*
X128315576Y-89073551D01*
X128315593Y-89073472D01*
X128317854Y-89058859D01*
X128320187Y-89036815D01*
X128322352Y-89010063D01*
X128324104Y-88981328D01*
X128324441Y-88974329D01*
X128327778Y-88900880D01*
X128035555Y-88900880D01*
X128035555Y-88733240D01*
X128453955Y-88733240D01*
X128451857Y-88925010D01*
X128451857Y-88925010D01*
G37*
X128451857Y-88925010D02*
X128451239Y-88977775D01*
X128450540Y-89021596D01*
X128449605Y-89057687D01*
X128448278Y-89087263D01*
X128446400Y-89111539D01*
X128443817Y-89131730D01*
X128440371Y-89149050D01*
X128435906Y-89164716D01*
X128430266Y-89179941D01*
X128423294Y-89195941D01*
X128414834Y-89213930D01*
X128414575Y-89214471D01*
X128389873Y-89255157D01*
X128358376Y-89288389D01*
X128320513Y-89313858D01*
X128276716Y-89331251D01*
X128243051Y-89338412D01*
X128190623Y-89341333D01*
X128140612Y-89334847D01*
X128093943Y-89319460D01*
X128051544Y-89295676D01*
X128014341Y-89264001D01*
X127983258Y-89224941D01*
X127961721Y-89184897D01*
X127949314Y-89156494D01*
X127928207Y-89178084D01*
X127920906Y-89184224D01*
X127906663Y-89195045D01*
X127886561Y-89209792D01*
X127861680Y-89227715D01*
X127833103Y-89248058D01*
X127801913Y-89270070D01*
X127769190Y-89292998D01*
X127736016Y-89316089D01*
X127703475Y-89338589D01*
X127672647Y-89359746D01*
X127644614Y-89378807D01*
X127620459Y-89395018D01*
X127601264Y-89407628D01*
X127588110Y-89415883D01*
X127582079Y-89419030D01*
X127581970Y-89419040D01*
X127580554Y-89414289D01*
X127579624Y-89401325D01*
X127579142Y-89382082D01*
X127579073Y-89358495D01*
X127579380Y-89332497D01*
X127580026Y-89306021D01*
X127580976Y-89281003D01*
X127582193Y-89259375D01*
X127583640Y-89243072D01*
X127585282Y-89234028D01*
X127585458Y-89233590D01*
X127591596Y-89226686D01*
X127606014Y-89214800D01*
X127628772Y-89197891D01*
X127659928Y-89175919D01*
X127699542Y-89148842D01*
X127747672Y-89116619D01*
X127804377Y-89079211D01*
X127865267Y-89039466D01*
X127882657Y-89027320D01*
X127897352Y-89015543D01*
X127906598Y-89006369D01*
X127907479Y-89005155D01*
X127912085Y-88992920D01*
X127915844Y-88972516D01*
X127918314Y-88947030D01*
X127921304Y-88900880D01*
X127579440Y-88900880D01*
X127579440Y-88733240D01*
X128035555Y-88733240D01*
X128035555Y-88900880D01*
X128037758Y-88978350D01*
X128038879Y-89010242D01*
X128040352Y-89034204D01*
X128042466Y-89052466D01*
X128045509Y-89067257D01*
X128049771Y-89080809D01*
X128051664Y-89085826D01*
X128069617Y-89119667D01*
X128093909Y-89145596D01*
X128124364Y-89163500D01*
X128160809Y-89173265D01*
X128189035Y-89175200D01*
X128225591Y-89170620D01*
X128257482Y-89157394D01*
X128283750Y-89136293D01*
X128303434Y-89108088D01*
X128315576Y-89073551D01*
X128315593Y-89073472D01*
X128317854Y-89058859D01*
X128320187Y-89036815D01*
X128322352Y-89010063D01*
X128324104Y-88981328D01*
X128324441Y-88974329D01*
X128327778Y-88900880D01*
X128035555Y-88900880D01*
X128035555Y-88733240D01*
X128453955Y-88733240D01*
X128451857Y-88925010D01*
G36*
X128451961Y-90664910D02*
X128451481Y-90716831D01*
X128451005Y-90759682D01*
X128450475Y-90794554D01*
X128449832Y-90822535D01*
X128449017Y-90844716D01*
X128447971Y-90862187D01*
X128446636Y-90876037D01*
X128444952Y-90887357D01*
X128442861Y-90897237D01*
X128440304Y-90906766D01*
X128438589Y-90912543D01*
X128420059Y-90961002D01*
X128396278Y-91001664D01*
X128367595Y-91034075D01*
X128334355Y-91057776D01*
X128324709Y-91062593D01*
X128287069Y-91075381D01*
X128246201Y-91081614D01*
X128204865Y-91081315D01*
X128165822Y-91074505D01*
X128131832Y-91061206D01*
X128131583Y-91061071D01*
X128105041Y-91042348D01*
X128079440Y-91016593D01*
X128057468Y-90986778D01*
X128046623Y-90967088D01*
X128039066Y-90951574D01*
X128034549Y-90944222D01*
X128031857Y-90943967D01*
X128029777Y-90949746D01*
X128029250Y-90951848D01*
X128019781Y-90979196D01*
X128005172Y-91008473D01*
X127987586Y-91035970D01*
X127969181Y-91057975D01*
X127965337Y-91061619D01*
X127938731Y-91081909D01*
X127910534Y-91095432D01*
X127878245Y-91103041D01*
X127839364Y-91105589D01*
X127836243Y-91105600D01*
X127784504Y-91101482D01*
X127738427Y-91089055D01*
X127697858Y-91068203D01*
X127662647Y-91038811D01*
X127632640Y-91000767D01*
X127607688Y-90953955D01*
X127596160Y-90924701D01*
X127581993Y-90884620D01*
X127578839Y-90455360D01*
X127960440Y-90455360D01*
X127960440Y-90623000D01*
X127704922Y-90623000D01*
X127707828Y-90725870D01*
X127709150Y-90765108D01*
X127710723Y-90795743D01*
X127712688Y-90819331D01*
X127715192Y-90837427D01*
X127718375Y-90851588D01*
X127719868Y-90856490D01*
X127733343Y-90884643D01*
X127749471Y-90905541D01*
X127774176Y-90924775D01*
X127802938Y-90936750D01*
X127833727Y-90941555D01*
X127864509Y-90939277D01*
X127893252Y-90930002D01*
X127917925Y-90913819D01*
X127932197Y-90897693D01*
X127941416Y-90882135D01*
X127948512Y-90864487D01*
X127953718Y-90843283D01*
X127957268Y-90817056D01*
X127959397Y-90784339D01*
X127960340Y-90743665D01*
X127960440Y-90720992D01*
X127960440Y-90623000D01*
X127960440Y-90455360D01*
X128075682Y-90455360D01*
X128075682Y-90623000D01*
X128078844Y-90713170D01*
X128080620Y-90751489D01*
X128083007Y-90784140D01*
X128085872Y-90809680D01*
X128089082Y-90826665D01*
X128089454Y-90827963D01*
X128103307Y-90861808D01*
X128122054Y-90886908D01*
X128146300Y-90903730D01*
X128176653Y-90912740D01*
X128202150Y-90914650D01*
X128225490Y-90913782D01*
X128243505Y-90910272D01*
X128260894Y-90903149D01*
X128263110Y-90902032D01*
X128280603Y-90890552D01*
X128294804Y-90875157D01*
X128305982Y-90854898D01*
X128314405Y-90828829D01*
X128320342Y-90796003D01*
X128324062Y-90755472D01*
X128325834Y-90706289D01*
X128326069Y-90680150D01*
X128326200Y-90623000D01*
X128075682Y-90623000D01*
X128075682Y-90455360D01*
X128453814Y-90455360D01*
X128451961Y-90664910D01*
X128451961Y-90664910D01*
G37*
X128451961Y-90664910D02*
X128451481Y-90716831D01*
X128451005Y-90759682D01*
X128450475Y-90794554D01*
X128449832Y-90822535D01*
X128449017Y-90844716D01*
X128447971Y-90862187D01*
X128446636Y-90876037D01*
X128444952Y-90887357D01*
X128442861Y-90897237D01*
X128440304Y-90906766D01*
X128438589Y-90912543D01*
X128420059Y-90961002D01*
X128396278Y-91001664D01*
X128367595Y-91034075D01*
X128334355Y-91057776D01*
X128324709Y-91062593D01*
X128287069Y-91075381D01*
X128246201Y-91081614D01*
X128204865Y-91081315D01*
X128165822Y-91074505D01*
X128131832Y-91061206D01*
X128131583Y-91061071D01*
X128105041Y-91042348D01*
X128079440Y-91016593D01*
X128057468Y-90986778D01*
X128046623Y-90967088D01*
X128039066Y-90951574D01*
X128034549Y-90944222D01*
X128031857Y-90943967D01*
X128029777Y-90949746D01*
X128029250Y-90951848D01*
X128019781Y-90979196D01*
X128005172Y-91008473D01*
X127987586Y-91035970D01*
X127969181Y-91057975D01*
X127965337Y-91061619D01*
X127938731Y-91081909D01*
X127910534Y-91095432D01*
X127878245Y-91103041D01*
X127839364Y-91105589D01*
X127836243Y-91105600D01*
X127784504Y-91101482D01*
X127738427Y-91089055D01*
X127697858Y-91068203D01*
X127662647Y-91038811D01*
X127632640Y-91000767D01*
X127607688Y-90953955D01*
X127596160Y-90924701D01*
X127581993Y-90884620D01*
X127578839Y-90455360D01*
X127960440Y-90455360D01*
X127960440Y-90623000D01*
X127704922Y-90623000D01*
X127707828Y-90725870D01*
X127709150Y-90765108D01*
X127710723Y-90795743D01*
X127712688Y-90819331D01*
X127715192Y-90837427D01*
X127718375Y-90851588D01*
X127719868Y-90856490D01*
X127733343Y-90884643D01*
X127749471Y-90905541D01*
X127774176Y-90924775D01*
X127802938Y-90936750D01*
X127833727Y-90941555D01*
X127864509Y-90939277D01*
X127893252Y-90930002D01*
X127917925Y-90913819D01*
X127932197Y-90897693D01*
X127941416Y-90882135D01*
X127948512Y-90864487D01*
X127953718Y-90843283D01*
X127957268Y-90817056D01*
X127959397Y-90784339D01*
X127960340Y-90743665D01*
X127960440Y-90720992D01*
X127960440Y-90623000D01*
X127960440Y-90455360D01*
X128075682Y-90455360D01*
X128075682Y-90623000D01*
X128078844Y-90713170D01*
X128080620Y-90751489D01*
X128083007Y-90784140D01*
X128085872Y-90809680D01*
X128089082Y-90826665D01*
X128089454Y-90827963D01*
X128103307Y-90861808D01*
X128122054Y-90886908D01*
X128146300Y-90903730D01*
X128176653Y-90912740D01*
X128202150Y-90914650D01*
X128225490Y-90913782D01*
X128243505Y-90910272D01*
X128260894Y-90903149D01*
X128263110Y-90902032D01*
X128280603Y-90890552D01*
X128294804Y-90875157D01*
X128305982Y-90854898D01*
X128314405Y-90828829D01*
X128320342Y-90796003D01*
X128324062Y-90755472D01*
X128325834Y-90706289D01*
X128326069Y-90680150D01*
X128326200Y-90623000D01*
X128075682Y-90623000D01*
X128075682Y-90455360D01*
X128453814Y-90455360D01*
X128451961Y-90664910D01*
G36*
X128438988Y-92250155D02*
X128431573Y-92255398D01*
X128416373Y-92264708D01*
X128394596Y-92277427D01*
X128367451Y-92292896D01*
X128336147Y-92310454D01*
X128301890Y-92329444D01*
X128265891Y-92349204D01*
X128229356Y-92369078D01*
X128193495Y-92388404D01*
X128159516Y-92406524D01*
X128128628Y-92422779D01*
X128102037Y-92436508D01*
X128080954Y-92447054D01*
X128066586Y-92453757D01*
X128063462Y-92455037D01*
X128050528Y-92460620D01*
X128042743Y-92465223D01*
X128041720Y-92466599D01*
X128046013Y-92470101D01*
X128057279Y-92476179D01*
X128073101Y-92483532D01*
X128073470Y-92483694D01*
X128090507Y-92491609D01*
X128113697Y-92503101D01*
X128141867Y-92517531D01*
X128173842Y-92534255D01*
X128208449Y-92552632D01*
X128244513Y-92572021D01*
X128280860Y-92591780D01*
X128316315Y-92611269D01*
X128349705Y-92629844D01*
X128379855Y-92646865D01*
X128405591Y-92661691D01*
X128425739Y-92673679D01*
X128439124Y-92682188D01*
X128444439Y-92686368D01*
X128447794Y-92691921D01*
X128450148Y-92699264D01*
X128451629Y-92710032D01*
X128452367Y-92725862D01*
X128452489Y-92748390D01*
X128452124Y-92779253D01*
X128452059Y-92783310D01*
X128450660Y-92868214D01*
X128179311Y-92708267D01*
X127907961Y-92548320D01*
X127579440Y-92548320D01*
X127579440Y-92380680D01*
X127914902Y-92380680D01*
X128181258Y-92223200D01*
X128228711Y-92195170D01*
X128273549Y-92168736D01*
X128315012Y-92144342D01*
X128352341Y-92122433D01*
X128384774Y-92103454D01*
X128411553Y-92087850D01*
X128431917Y-92076064D01*
X128445106Y-92068542D01*
X128450360Y-92065729D01*
X128450407Y-92065720D01*
X128451328Y-92070523D01*
X128452122Y-92083827D01*
X128452733Y-92103975D01*
X128453107Y-92129306D01*
X128453200Y-92151129D01*
X128453200Y-92236539D01*
X128438988Y-92250155D01*
X128438988Y-92250155D01*
G37*
X128438988Y-92250155D02*
X128431573Y-92255398D01*
X128416373Y-92264708D01*
X128394596Y-92277427D01*
X128367451Y-92292896D01*
X128336147Y-92310454D01*
X128301890Y-92329444D01*
X128265891Y-92349204D01*
X128229356Y-92369078D01*
X128193495Y-92388404D01*
X128159516Y-92406524D01*
X128128628Y-92422779D01*
X128102037Y-92436508D01*
X128080954Y-92447054D01*
X128066586Y-92453757D01*
X128063462Y-92455037D01*
X128050528Y-92460620D01*
X128042743Y-92465223D01*
X128041720Y-92466599D01*
X128046013Y-92470101D01*
X128057279Y-92476179D01*
X128073101Y-92483532D01*
X128073470Y-92483694D01*
X128090507Y-92491609D01*
X128113697Y-92503101D01*
X128141867Y-92517531D01*
X128173842Y-92534255D01*
X128208449Y-92552632D01*
X128244513Y-92572021D01*
X128280860Y-92591780D01*
X128316315Y-92611269D01*
X128349705Y-92629844D01*
X128379855Y-92646865D01*
X128405591Y-92661691D01*
X128425739Y-92673679D01*
X128439124Y-92682188D01*
X128444439Y-92686368D01*
X128447794Y-92691921D01*
X128450148Y-92699264D01*
X128451629Y-92710032D01*
X128452367Y-92725862D01*
X128452489Y-92748390D01*
X128452124Y-92779253D01*
X128452059Y-92783310D01*
X128450660Y-92868214D01*
X128179311Y-92708267D01*
X127907961Y-92548320D01*
X127579440Y-92548320D01*
X127579440Y-92380680D01*
X127914902Y-92380680D01*
X128181258Y-92223200D01*
X128228711Y-92195170D01*
X128273549Y-92168736D01*
X128315012Y-92144342D01*
X128352341Y-92122433D01*
X128384774Y-92103454D01*
X128411553Y-92087850D01*
X128431917Y-92076064D01*
X128445106Y-92068542D01*
X128450360Y-92065729D01*
X128450407Y-92065720D01*
X128451328Y-92070523D01*
X128452122Y-92083827D01*
X128452733Y-92103975D01*
X128453107Y-92129306D01*
X128453200Y-92151129D01*
X128453200Y-92236539D01*
X128438988Y-92250155D01*
D11*
G36*
X130583655Y-89429733D02*
X130583657Y-89429734D01*
X130583658Y-89429734D01*
X130637509Y-89452040D01*
X130729440Y-89490119D01*
X130860643Y-89577786D01*
X130972214Y-89689357D01*
X131059881Y-89820560D01*
X131120267Y-89966345D01*
X131151050Y-90121102D01*
X131151050Y-90278898D01*
X131120267Y-90433655D01*
X131059881Y-90579440D01*
X130972214Y-90710643D01*
X130857907Y-90824950D01*
X130844915Y-90835612D01*
X130829370Y-90854554D01*
X130817819Y-90876165D01*
X130810706Y-90899614D01*
X130808304Y-90924001D01*
X130810706Y-90948387D01*
X130817819Y-90971836D01*
X130829371Y-90993447D01*
X130844916Y-91012389D01*
X130863858Y-91027934D01*
X130885469Y-91039485D01*
X130908918Y-91046598D01*
X130933304Y-91049000D01*
X132701000Y-91049000D01*
X132701000Y-92951000D01*
X130799000Y-92951000D01*
X130799000Y-91068145D01*
X130796598Y-91043759D01*
X130789485Y-91020310D01*
X130777934Y-90998699D01*
X130762388Y-90979757D01*
X130743446Y-90964211D01*
X130721835Y-90952660D01*
X130698386Y-90945547D01*
X130674000Y-90943145D01*
X130649614Y-90945547D01*
X130626165Y-90952660D01*
X130583658Y-90970267D01*
X130428898Y-91001050D01*
X130271102Y-91001050D01*
X130116345Y-90970267D01*
X130116343Y-90970266D01*
X130116342Y-90970266D01*
X130004649Y-90924001D01*
X129970560Y-90909881D01*
X129839357Y-90822214D01*
X129727786Y-90710643D01*
X129640119Y-90579440D01*
X129579733Y-90433655D01*
X129548950Y-90278898D01*
X129548950Y-90121102D01*
X129579733Y-89966345D01*
X129640119Y-89820560D01*
X129727786Y-89689357D01*
X129839357Y-89577786D01*
X129970560Y-89490119D01*
X130062491Y-89452040D01*
X130116342Y-89429734D01*
X130116343Y-89429734D01*
X130116345Y-89429733D01*
X130271102Y-89398950D01*
X130428898Y-89398950D01*
X130583655Y-89429733D01*
X130583655Y-89429733D01*
G37*
G36*
X137107396Y-91085546D02*
X137280466Y-91157234D01*
X137436230Y-91261312D01*
X137568688Y-91393770D01*
X137672766Y-91549534D01*
X137744454Y-91722604D01*
X137781000Y-91906333D01*
X137781000Y-92093667D01*
X137744454Y-92277396D01*
X137672766Y-92450466D01*
X137568688Y-92606230D01*
X137436230Y-92738688D01*
X137280466Y-92842766D01*
X137107396Y-92914454D01*
X136923667Y-92951000D01*
X136736333Y-92951000D01*
X136552604Y-92914454D01*
X136379534Y-92842766D01*
X136223770Y-92738688D01*
X136091312Y-92606230D01*
X135987234Y-92450466D01*
X135915546Y-92277396D01*
X135879000Y-92093667D01*
X135879000Y-91906333D01*
X135915546Y-91722604D01*
X135987234Y-91549534D01*
X136091312Y-91393770D01*
X136223770Y-91261312D01*
X136379534Y-91157234D01*
X136552604Y-91085546D01*
X136736333Y-91049000D01*
X136923667Y-91049000D01*
X137107396Y-91085546D01*
X137107396Y-91085546D01*
G37*
G36*
X134567396Y-91085546D02*
X134740466Y-91157234D01*
X134896230Y-91261312D01*
X135028688Y-91393770D01*
X135132766Y-91549534D01*
X135204454Y-91722604D01*
X135241000Y-91906333D01*
X135241000Y-92093667D01*
X135204454Y-92277396D01*
X135132766Y-92450466D01*
X135028688Y-92606230D01*
X134896230Y-92738688D01*
X134740466Y-92842766D01*
X134567396Y-92914454D01*
X134383667Y-92951000D01*
X134196333Y-92951000D01*
X134012604Y-92914454D01*
X133839534Y-92842766D01*
X133683770Y-92738688D01*
X133551312Y-92606230D01*
X133447234Y-92450466D01*
X133375546Y-92277396D01*
X133339000Y-92093667D01*
X133339000Y-91906333D01*
X133375546Y-91722604D01*
X133447234Y-91549534D01*
X133551312Y-91393770D01*
X133683770Y-91261312D01*
X133839534Y-91157234D01*
X134012604Y-91085546D01*
X134196333Y-91049000D01*
X134383667Y-91049000D01*
X134567396Y-91085546D01*
X134567396Y-91085546D01*
G37*
G36*
X138377396Y-88545546D02*
X138550466Y-88617234D01*
X138706230Y-88721312D01*
X138838688Y-88853770D01*
X138942766Y-89009534D01*
X139014454Y-89182604D01*
X139051000Y-89366333D01*
X139051000Y-89553667D01*
X139014454Y-89737396D01*
X138942766Y-89910466D01*
X138838688Y-90066230D01*
X138706230Y-90198688D01*
X138550466Y-90302766D01*
X138377396Y-90374454D01*
X138193667Y-90411000D01*
X138006333Y-90411000D01*
X137822604Y-90374454D01*
X137649534Y-90302766D01*
X137493770Y-90198688D01*
X137361312Y-90066230D01*
X137257234Y-89910466D01*
X137185546Y-89737396D01*
X137149000Y-89553667D01*
X137149000Y-89366333D01*
X137185546Y-89182604D01*
X137257234Y-89009534D01*
X137361312Y-88853770D01*
X137493770Y-88721312D01*
X137649534Y-88617234D01*
X137822604Y-88545546D01*
X138006333Y-88509000D01*
X138193667Y-88509000D01*
X138377396Y-88545546D01*
X138377396Y-88545546D01*
G37*
G36*
X133297396Y-88545546D02*
X133470466Y-88617234D01*
X133626230Y-88721312D01*
X133758688Y-88853770D01*
X133862766Y-89009534D01*
X133934454Y-89182604D01*
X133971000Y-89366333D01*
X133971000Y-89553667D01*
X133934454Y-89737396D01*
X133862766Y-89910466D01*
X133758688Y-90066230D01*
X133626230Y-90198688D01*
X133470466Y-90302766D01*
X133297396Y-90374454D01*
X133113667Y-90411000D01*
X132926333Y-90411000D01*
X132742604Y-90374454D01*
X132569534Y-90302766D01*
X132413770Y-90198688D01*
X132281312Y-90066230D01*
X132177234Y-89910466D01*
X132105546Y-89737396D01*
X132069000Y-89553667D01*
X132069000Y-89366333D01*
X132105546Y-89182604D01*
X132177234Y-89009534D01*
X132281312Y-88853770D01*
X132413770Y-88721312D01*
X132569534Y-88617234D01*
X132742604Y-88545546D01*
X132926333Y-88509000D01*
X133113667Y-88509000D01*
X133297396Y-88545546D01*
X133297396Y-88545546D01*
G37*
G36*
X135837396Y-88545546D02*
X136010466Y-88617234D01*
X136166230Y-88721312D01*
X136298688Y-88853770D01*
X136402766Y-89009534D01*
X136474454Y-89182604D01*
X136511000Y-89366333D01*
X136511000Y-89553667D01*
X136474454Y-89737396D01*
X136402766Y-89910466D01*
X136298688Y-90066230D01*
X136166230Y-90198688D01*
X136010466Y-90302766D01*
X135837396Y-90374454D01*
X135653667Y-90411000D01*
X135466333Y-90411000D01*
X135282604Y-90374454D01*
X135109534Y-90302766D01*
X134953770Y-90198688D01*
X134821312Y-90066230D01*
X134717234Y-89910466D01*
X134645546Y-89737396D01*
X134609000Y-89553667D01*
X134609000Y-89366333D01*
X134645546Y-89182604D01*
X134717234Y-89009534D01*
X134821312Y-88853770D01*
X134953770Y-88721312D01*
X135109534Y-88617234D01*
X135282604Y-88545546D01*
X135466333Y-88509000D01*
X135653667Y-88509000D01*
X135837396Y-88545546D01*
X135837396Y-88545546D01*
G37*
G36*
X138942397Y-84135547D02*
X139115467Y-84207235D01*
X139271231Y-84311313D01*
X139403689Y-84443771D01*
X139507767Y-84599535D01*
X139579455Y-84772605D01*
X139616001Y-84956334D01*
X139616001Y-85143668D01*
X139579455Y-85327397D01*
X139507767Y-85500467D01*
X139403689Y-85656231D01*
X139271231Y-85788689D01*
X139115467Y-85892767D01*
X138942397Y-85964455D01*
X138758668Y-86001001D01*
X138571334Y-86001001D01*
X138387605Y-85964455D01*
X138214535Y-85892767D01*
X138058771Y-85788689D01*
X137926313Y-85656231D01*
X137822235Y-85500467D01*
X137750547Y-85327397D01*
X137714001Y-85143668D01*
X137714001Y-84956334D01*
X137750547Y-84772605D01*
X137822235Y-84599535D01*
X137926313Y-84443771D01*
X138058771Y-84311313D01*
X138214535Y-84207235D01*
X138387605Y-84135547D01*
X138571334Y-84099001D01*
X138758668Y-84099001D01*
X138942397Y-84135547D01*
X138942397Y-84135547D01*
G37*
G36*
X136402397Y-82865547D02*
X136575467Y-82937235D01*
X136731231Y-83041313D01*
X136863689Y-83173771D01*
X136967767Y-83329535D01*
X137039455Y-83502605D01*
X137076001Y-83686334D01*
X137076001Y-83873668D01*
X137039455Y-84057397D01*
X136967767Y-84230467D01*
X136863689Y-84386231D01*
X136731231Y-84518689D01*
X136575467Y-84622767D01*
X136402397Y-84694455D01*
X136218668Y-84731001D01*
X136031334Y-84731001D01*
X135847605Y-84694455D01*
X135674535Y-84622767D01*
X135518771Y-84518689D01*
X135386313Y-84386231D01*
X135282235Y-84230467D01*
X135210547Y-84057397D01*
X135174001Y-83873668D01*
X135174001Y-83686334D01*
X135210547Y-83502605D01*
X135282235Y-83329535D01*
X135386313Y-83173771D01*
X135518771Y-83041313D01*
X135674535Y-82937235D01*
X135847605Y-82865547D01*
X136031334Y-82829001D01*
X136218668Y-82829001D01*
X136402397Y-82865547D01*
X136402397Y-82865547D01*
G37*
G36*
X129366242Y-83303404D02*
X129403339Y-83314657D01*
X129437520Y-83332927D01*
X129467482Y-83357518D01*
X129492073Y-83387480D01*
X129510343Y-83421661D01*
X129521596Y-83458758D01*
X129526000Y-83503473D01*
X129526000Y-84396527D01*
X129521596Y-84441242D01*
X129510343Y-84478339D01*
X129492073Y-84512520D01*
X129467482Y-84542482D01*
X129437520Y-84567073D01*
X129403339Y-84585343D01*
X129366242Y-84596596D01*
X129321527Y-84601000D01*
X127828473Y-84601000D01*
X127783758Y-84596596D01*
X127746661Y-84585343D01*
X127712480Y-84567073D01*
X127682518Y-84542482D01*
X127657927Y-84512520D01*
X127639657Y-84478339D01*
X127628404Y-84441242D01*
X127624000Y-84396527D01*
X127624000Y-83503473D01*
X127628404Y-83458758D01*
X127639657Y-83421661D01*
X127657927Y-83387480D01*
X127682518Y-83357518D01*
X127712480Y-83332927D01*
X127746661Y-83314657D01*
X127783758Y-83303404D01*
X127828473Y-83299000D01*
X129321527Y-83299000D01*
X129366242Y-83303404D01*
X129366242Y-83303404D01*
G37*
G36*
X138942397Y-81595547D02*
X139115467Y-81667235D01*
X139271231Y-81771313D01*
X139403689Y-81903771D01*
X139507767Y-82059535D01*
X139579455Y-82232605D01*
X139616001Y-82416334D01*
X139616001Y-82603668D01*
X139579455Y-82787397D01*
X139507767Y-82960467D01*
X139403689Y-83116231D01*
X139271231Y-83248689D01*
X139115467Y-83352767D01*
X138942397Y-83424455D01*
X138758668Y-83461001D01*
X138571334Y-83461001D01*
X138387605Y-83424455D01*
X138214535Y-83352767D01*
X138058771Y-83248689D01*
X137926313Y-83116231D01*
X137822235Y-82960467D01*
X137750547Y-82787397D01*
X137714001Y-82603668D01*
X137714001Y-82416334D01*
X137750547Y-82232605D01*
X137822235Y-82059535D01*
X137926313Y-81903771D01*
X138058771Y-81771313D01*
X138214535Y-81667235D01*
X138387605Y-81595547D01*
X138571334Y-81559001D01*
X138758668Y-81559001D01*
X138942397Y-81595547D01*
X138942397Y-81595547D01*
G37*
G36*
X133184928Y-82301764D02*
X133206011Y-82308160D01*
X133225442Y-82318546D01*
X133242475Y-82332525D01*
X133256454Y-82349558D01*
X133266840Y-82368989D01*
X133273236Y-82390072D01*
X133276000Y-82418140D01*
X133276000Y-82881860D01*
X133273236Y-82909928D01*
X133266840Y-82931011D01*
X133256454Y-82950442D01*
X133242475Y-82967475D01*
X133225442Y-82981454D01*
X133206011Y-82991840D01*
X133184928Y-82998236D01*
X133156860Y-83001000D01*
X131743140Y-83001000D01*
X131715072Y-82998236D01*
X131693989Y-82991840D01*
X131674558Y-82981454D01*
X131657525Y-82967475D01*
X131643546Y-82950442D01*
X131633160Y-82931011D01*
X131626764Y-82909928D01*
X131624000Y-82881860D01*
X131624000Y-82418140D01*
X131626764Y-82390072D01*
X131633160Y-82368989D01*
X131643546Y-82349558D01*
X131657525Y-82332525D01*
X131674558Y-82318546D01*
X131693989Y-82308160D01*
X131715072Y-82301764D01*
X131743140Y-82299000D01*
X133156860Y-82299000D01*
X133184928Y-82301764D01*
X133184928Y-82301764D01*
G37*
G36*
X136402397Y-80325547D02*
X136575467Y-80397235D01*
X136731231Y-80501313D01*
X136863689Y-80633771D01*
X136967767Y-80789535D01*
X137039455Y-80962605D01*
X137076001Y-81146334D01*
X137076001Y-81333668D01*
X137039455Y-81517397D01*
X136967767Y-81690467D01*
X136863689Y-81846231D01*
X136731231Y-81978689D01*
X136575467Y-82082767D01*
X136402397Y-82154455D01*
X136218668Y-82191001D01*
X136031334Y-82191001D01*
X135847605Y-82154455D01*
X135674535Y-82082767D01*
X135518771Y-81978689D01*
X135386313Y-81846231D01*
X135282235Y-81690467D01*
X135210547Y-81517397D01*
X135174001Y-81333668D01*
X135174001Y-81146334D01*
X135210547Y-80962605D01*
X135282235Y-80789535D01*
X135386313Y-80633771D01*
X135518771Y-80501313D01*
X135674535Y-80397235D01*
X135847605Y-80325547D01*
X136031334Y-80289001D01*
X136218668Y-80289001D01*
X136402397Y-80325547D01*
X136402397Y-80325547D01*
G37*
G36*
X133184928Y-81301764D02*
X133206011Y-81308160D01*
X133225442Y-81318546D01*
X133242475Y-81332525D01*
X133256454Y-81349558D01*
X133266840Y-81368989D01*
X133273236Y-81390072D01*
X133276000Y-81418140D01*
X133276000Y-81881860D01*
X133273236Y-81909928D01*
X133266840Y-81931011D01*
X133256454Y-81950442D01*
X133242475Y-81967475D01*
X133225442Y-81981454D01*
X133206011Y-81991840D01*
X133184928Y-81998236D01*
X133156860Y-82001000D01*
X131743140Y-82001000D01*
X131715072Y-81998236D01*
X131693989Y-81991840D01*
X131674558Y-81981454D01*
X131657525Y-81967475D01*
X131643546Y-81950442D01*
X131633160Y-81931011D01*
X131626764Y-81909928D01*
X131624000Y-81881860D01*
X131624000Y-81418140D01*
X131626764Y-81390072D01*
X131633160Y-81368989D01*
X131643546Y-81349558D01*
X131657525Y-81332525D01*
X131674558Y-81318546D01*
X131693989Y-81308160D01*
X131715072Y-81301764D01*
X131743140Y-81299000D01*
X133156860Y-81299000D01*
X133184928Y-81301764D01*
X133184928Y-81301764D01*
G37*
G36*
X133184928Y-80301764D02*
X133206011Y-80308160D01*
X133225442Y-80318546D01*
X133242475Y-80332525D01*
X133256454Y-80349558D01*
X133266840Y-80368989D01*
X133273236Y-80390072D01*
X133276000Y-80418140D01*
X133276000Y-80881860D01*
X133273236Y-80909928D01*
X133266840Y-80931011D01*
X133256454Y-80950442D01*
X133242475Y-80967475D01*
X133225442Y-80981454D01*
X133206011Y-80991840D01*
X133184928Y-80998236D01*
X133156860Y-81001000D01*
X131743140Y-81001000D01*
X131715072Y-80998236D01*
X131693989Y-80991840D01*
X131674558Y-80981454D01*
X131657525Y-80967475D01*
X131643546Y-80950442D01*
X131633160Y-80931011D01*
X131626764Y-80909928D01*
X131624000Y-80881860D01*
X131624000Y-80418140D01*
X131626764Y-80390072D01*
X131633160Y-80368989D01*
X131643546Y-80349558D01*
X131657525Y-80332525D01*
X131674558Y-80318546D01*
X131693989Y-80308160D01*
X131715072Y-80301764D01*
X131743140Y-80299000D01*
X133156860Y-80299000D01*
X133184928Y-80301764D01*
X133184928Y-80301764D01*
G37*
G36*
X138942397Y-79055547D02*
X139115467Y-79127235D01*
X139271231Y-79231313D01*
X139403689Y-79363771D01*
X139507767Y-79519535D01*
X139579455Y-79692605D01*
X139616001Y-79876334D01*
X139616001Y-80063668D01*
X139579455Y-80247397D01*
X139507767Y-80420467D01*
X139403689Y-80576231D01*
X139271231Y-80708689D01*
X139115467Y-80812767D01*
X138942397Y-80884455D01*
X138758668Y-80921001D01*
X138571334Y-80921001D01*
X138387605Y-80884455D01*
X138214535Y-80812767D01*
X138058771Y-80708689D01*
X137926313Y-80576231D01*
X137822235Y-80420467D01*
X137750547Y-80247397D01*
X137714001Y-80063668D01*
X137714001Y-79876334D01*
X137750547Y-79692605D01*
X137822235Y-79519535D01*
X137926313Y-79363771D01*
X138058771Y-79231313D01*
X138214535Y-79127235D01*
X138387605Y-79055547D01*
X138571334Y-79019001D01*
X138758668Y-79019001D01*
X138942397Y-79055547D01*
X138942397Y-79055547D01*
G37*
G36*
X133184928Y-79301764D02*
X133206011Y-79308160D01*
X133225442Y-79318546D01*
X133242475Y-79332525D01*
X133256454Y-79349558D01*
X133266840Y-79368989D01*
X133273236Y-79390072D01*
X133276000Y-79418140D01*
X133276000Y-79881860D01*
X133273236Y-79909928D01*
X133266840Y-79931011D01*
X133256454Y-79950442D01*
X133242475Y-79967475D01*
X133225442Y-79981454D01*
X133206011Y-79991840D01*
X133184928Y-79998236D01*
X133156860Y-80001000D01*
X131743140Y-80001000D01*
X131715072Y-79998236D01*
X131693989Y-79991840D01*
X131674558Y-79981454D01*
X131657525Y-79967475D01*
X131643546Y-79950442D01*
X131633160Y-79931011D01*
X131626764Y-79909928D01*
X131624000Y-79881860D01*
X131624000Y-79418140D01*
X131626764Y-79390072D01*
X131633160Y-79368989D01*
X131643546Y-79349558D01*
X131657525Y-79332525D01*
X131674558Y-79318546D01*
X131693989Y-79308160D01*
X131715072Y-79301764D01*
X131743140Y-79299000D01*
X133156860Y-79299000D01*
X133184928Y-79301764D01*
X133184928Y-79301764D01*
G37*
G36*
X138158656Y-76529734D02*
X138158658Y-76529735D01*
X138158659Y-76529735D01*
X138212510Y-76552041D01*
X138304441Y-76590120D01*
X138435644Y-76677787D01*
X138547215Y-76789358D01*
X138634882Y-76920561D01*
X138695268Y-77066346D01*
X138726051Y-77221103D01*
X138726051Y-77378899D01*
X138695268Y-77533656D01*
X138634882Y-77679441D01*
X138547215Y-77810644D01*
X138435644Y-77922215D01*
X138304441Y-78009882D01*
X138212510Y-78047961D01*
X138158659Y-78070267D01*
X138158658Y-78070267D01*
X138158656Y-78070268D01*
X138003899Y-78101051D01*
X137846103Y-78101051D01*
X137691346Y-78070268D01*
X137691344Y-78070267D01*
X137691343Y-78070267D01*
X137637492Y-78047961D01*
X137545561Y-78009882D01*
X137414358Y-77922215D01*
X137300051Y-77807908D01*
X137289389Y-77794916D01*
X137270447Y-77779371D01*
X137248836Y-77767820D01*
X137225387Y-77760707D01*
X137201000Y-77758305D01*
X137176614Y-77760707D01*
X137153165Y-77767820D01*
X137131554Y-77779372D01*
X137112612Y-77794917D01*
X137097067Y-77813859D01*
X137085516Y-77835470D01*
X137078403Y-77858919D01*
X137076001Y-77883305D01*
X137076001Y-79651001D01*
X135174001Y-79651001D01*
X135174001Y-77749001D01*
X137056856Y-77749001D01*
X137081242Y-77746599D01*
X137104691Y-77739486D01*
X137126302Y-77727935D01*
X137145244Y-77712389D01*
X137160790Y-77693447D01*
X137172341Y-77671836D01*
X137179454Y-77648387D01*
X137181856Y-77624001D01*
X137179454Y-77599615D01*
X137172341Y-77576166D01*
X137154734Y-77533659D01*
X137123951Y-77378899D01*
X137123951Y-77221103D01*
X137154734Y-77066346D01*
X137215120Y-76920561D01*
X137302787Y-76789358D01*
X137414358Y-76677787D01*
X137545561Y-76590120D01*
X137637492Y-76552041D01*
X137691343Y-76529735D01*
X137691344Y-76529735D01*
X137691346Y-76529734D01*
X137846103Y-76498951D01*
X138003899Y-76498951D01*
X138158656Y-76529734D01*
X138158656Y-76529734D01*
G37*
G36*
X133184928Y-78301764D02*
X133206011Y-78308160D01*
X133225442Y-78318546D01*
X133242475Y-78332525D01*
X133256454Y-78349558D01*
X133266840Y-78368989D01*
X133273236Y-78390072D01*
X133276000Y-78418140D01*
X133276000Y-78881860D01*
X133273236Y-78909928D01*
X133266840Y-78931011D01*
X133256454Y-78950442D01*
X133242475Y-78967475D01*
X133225442Y-78981454D01*
X133206011Y-78991840D01*
X133184928Y-78998236D01*
X133156860Y-79001000D01*
X131743140Y-79001000D01*
X131715072Y-78998236D01*
X131693989Y-78991840D01*
X131674558Y-78981454D01*
X131657525Y-78967475D01*
X131643546Y-78950442D01*
X131633160Y-78931011D01*
X131626764Y-78909928D01*
X131624000Y-78881860D01*
X131624000Y-78418140D01*
X131626764Y-78390072D01*
X131633160Y-78368989D01*
X131643546Y-78349558D01*
X131657525Y-78332525D01*
X131674558Y-78318546D01*
X131693989Y-78308160D01*
X131715072Y-78301764D01*
X131743140Y-78299000D01*
X133156860Y-78299000D01*
X133184928Y-78301764D01*
X133184928Y-78301764D01*
G37*
G36*
X129366242Y-76703404D02*
X129403339Y-76714657D01*
X129437520Y-76732927D01*
X129467482Y-76757518D01*
X129492073Y-76787480D01*
X129510343Y-76821661D01*
X129521596Y-76858758D01*
X129526000Y-76903473D01*
X129526000Y-77796527D01*
X129521596Y-77841242D01*
X129510343Y-77878339D01*
X129492073Y-77912520D01*
X129467482Y-77942482D01*
X129437520Y-77967073D01*
X129403339Y-77985343D01*
X129366242Y-77996596D01*
X129321527Y-78001000D01*
X127828473Y-78001000D01*
X127783758Y-77996596D01*
X127746661Y-77985343D01*
X127712480Y-77967073D01*
X127682518Y-77942482D01*
X127657927Y-77912520D01*
X127639657Y-77878339D01*
X127628404Y-77841242D01*
X127624000Y-77796527D01*
X127624000Y-76903473D01*
X127628404Y-76858758D01*
X127639657Y-76821661D01*
X127657927Y-76787480D01*
X127682518Y-76757518D01*
X127712480Y-76732927D01*
X127746661Y-76714657D01*
X127783758Y-76703404D01*
X127828473Y-76699000D01*
X129321527Y-76699000D01*
X129366242Y-76703404D01*
X129366242Y-76703404D01*
G37*
M02*
