G04 #@! TF.GenerationSoftware,KiCad,Pcbnew,5.0.2-bee76a0~70~ubuntu18.04.1*
G04 #@! TF.CreationDate,2018-12-18T05:27:10+01:00*
G04 #@! TF.ProjectId,myoelectronics_spi_harness_to_motor_controller_adapter,6d796f65-6c65-4637-9472-6f6e6963735f,rev?*
G04 #@! TF.SameCoordinates,Original*
G04 #@! TF.FileFunction,Legend,Bot*
G04 #@! TF.FilePolarity,Positive*
%FSLAX46Y46*%
G04 Gerber Fmt 4.6, Leading zero omitted, Abs format (unit mm)*
G04 Created by KiCad (PCBNEW 5.0.2-bee76a0~70~ubuntu18.04.1) date Tue 18 Dec 2018 05:27:10 CET*
%MOMM*%
%LPD*%
G01*
G04 APERTURE LIST*
%ADD10C,0.200000*%
%ADD11C,0.077506*%
%ADD12C,0.007078*%
%ADD13C,0.100000*%
%ADD14C,0.014156*%
%ADD15C,0.150000*%
G04 APERTURE END LIST*
D10*
X136250000Y-86000000D02*
X135750000Y-86250000D01*
X134750000Y-86000000D02*
X135250000Y-86250000D01*
X136250000Y-76750000D02*
X135750000Y-76500000D01*
X134750000Y-76750000D02*
X135250000Y-76500000D01*
X139500000Y-93250000D02*
X140000000Y-92500000D01*
X139500000Y-88250000D02*
X139500000Y-93250000D01*
X129000000Y-93250000D02*
X128500000Y-92500000D01*
X129000000Y-88250000D02*
X129000000Y-93250000D01*
X139500000Y-88250000D02*
X129000000Y-88250000D01*
X134750000Y-76750000D02*
X136250000Y-76750000D01*
X134750000Y-86000000D02*
X136250000Y-86000000D01*
X134750000Y-76750000D02*
X134750000Y-86000000D01*
X127000000Y-84500000D02*
X127500000Y-84750000D01*
X127000000Y-76750000D02*
X127500000Y-76500000D01*
X129000000Y-84500000D02*
X127000000Y-84500000D01*
X129000000Y-76750000D02*
X129000000Y-84500000D01*
X127000000Y-76750000D02*
X129000000Y-76750000D01*
D11*
G04 #@! TO.C,svg2mod*
X131157356Y-76566355D02*
X131157356Y-76566369D01*
X131175595Y-76565337D02*
X131157356Y-76566355D01*
X131198493Y-76564630D02*
X131175595Y-76565337D01*
X131225123Y-76564220D02*
X131198493Y-76564630D01*
X131254555Y-76564092D02*
X131225123Y-76564220D01*
X131285860Y-76564231D02*
X131254555Y-76564092D01*
X131318110Y-76564622D02*
X131285860Y-76564231D01*
X131350375Y-76565252D02*
X131318110Y-76564622D01*
X131381725Y-76566106D02*
X131350375Y-76565252D01*
X131411234Y-76567168D02*
X131381725Y-76566106D01*
X131437970Y-76568425D02*
X131411234Y-76567168D01*
X131461006Y-76569861D02*
X131437970Y-76568425D01*
X131479411Y-76571463D02*
X131461006Y-76569861D01*
X131507167Y-76574593D02*
X131479411Y-76571463D01*
X131534794Y-76578085D02*
X131507167Y-76574593D01*
X131562293Y-76581939D02*
X131534794Y-76578085D01*
X131589662Y-76586153D02*
X131562293Y-76581939D01*
X131616898Y-76590727D02*
X131589662Y-76586153D01*
X131644000Y-76595661D02*
X131616898Y-76590727D01*
X131670966Y-76600954D02*
X131644000Y-76595661D01*
X131697795Y-76606604D02*
X131670966Y-76600954D01*
X131724485Y-76612611D02*
X131697795Y-76606604D01*
X131751035Y-76618975D02*
X131724485Y-76612611D01*
X131777442Y-76625695D02*
X131751035Y-76618975D01*
X131803705Y-76632770D02*
X131777442Y-76625695D01*
X131829822Y-76640199D02*
X131803705Y-76632770D01*
X131855792Y-76647982D02*
X131829822Y-76640199D01*
X131881613Y-76656118D02*
X131855792Y-76647982D01*
X131907284Y-76664607D02*
X131881613Y-76656118D01*
X131932802Y-76673447D02*
X131907284Y-76664607D01*
X131958166Y-76682638D02*
X131932802Y-76673447D01*
X131983375Y-76692179D02*
X131958166Y-76682638D01*
X132008426Y-76702070D02*
X131983375Y-76692179D01*
X132033318Y-76712309D02*
X132008426Y-76702070D01*
X132058049Y-76722897D02*
X132033318Y-76712309D01*
X132082618Y-76733832D02*
X132058049Y-76722897D01*
X132107023Y-76745114D02*
X132082618Y-76733832D01*
X132131262Y-76756742D02*
X132107023Y-76745114D01*
X132155334Y-76768715D02*
X132131262Y-76756742D01*
X132179237Y-76781032D02*
X132155334Y-76768715D01*
X132202969Y-76793694D02*
X132179237Y-76781032D01*
X132226529Y-76806699D02*
X132202969Y-76793694D01*
X132249914Y-76820046D02*
X132226529Y-76806699D01*
X132273124Y-76833736D02*
X132249914Y-76820046D01*
X132296157Y-76847766D02*
X132273124Y-76833736D01*
X132319010Y-76862137D02*
X132296157Y-76847766D01*
X132341683Y-76876847D02*
X132319010Y-76862137D01*
X132364173Y-76891897D02*
X132341683Y-76876847D01*
X132386480Y-76907285D02*
X132364173Y-76891897D01*
X132408600Y-76923010D02*
X132386480Y-76907285D01*
X132430533Y-76939073D02*
X132408600Y-76923010D01*
X132452277Y-76955471D02*
X132430533Y-76939073D01*
X132473830Y-76972206D02*
X132452277Y-76955471D01*
X132495191Y-76989274D02*
X132473830Y-76972206D01*
X132516358Y-77006678D02*
X132495191Y-76989274D01*
X132537313Y-77024415D02*
X132516358Y-77006678D01*
X132558009Y-77042463D02*
X132537313Y-77024415D01*
X132578442Y-77060814D02*
X132558009Y-77042463D01*
X132598609Y-77079464D02*
X132578442Y-77060814D01*
X132618506Y-77098408D02*
X132598609Y-77079464D01*
X132638131Y-77117640D02*
X132618506Y-77098408D01*
X132657479Y-77137156D02*
X132638131Y-77117640D01*
X132676547Y-77156949D02*
X132657479Y-77137156D01*
X132695331Y-77177016D02*
X132676547Y-77156949D01*
X132713829Y-77197350D02*
X132695331Y-77177016D01*
X132732036Y-77217946D02*
X132713829Y-77197350D01*
X132749949Y-77238800D02*
X132732036Y-77217946D01*
X132767564Y-77259905D02*
X132749949Y-77238800D01*
X132784879Y-77281258D02*
X132767564Y-77259905D01*
X132801889Y-77302852D02*
X132784879Y-77281258D01*
X132818592Y-77324682D02*
X132801889Y-77302852D01*
X132834983Y-77346744D02*
X132818592Y-77324682D01*
X132851059Y-77369031D02*
X132834983Y-77346744D01*
X132866816Y-77391539D02*
X132851059Y-77369031D01*
X132882252Y-77414263D02*
X132866816Y-77391539D01*
X132897363Y-77437197D02*
X132882252Y-77414263D01*
X132912145Y-77460336D02*
X132897363Y-77437197D01*
X132926594Y-77483675D02*
X132912145Y-77460336D01*
X132940708Y-77507209D02*
X132926594Y-77483675D01*
X132954482Y-77530932D02*
X132940708Y-77507209D01*
X132967914Y-77554839D02*
X132954482Y-77530932D01*
X132980999Y-77578926D02*
X132967914Y-77554839D01*
X132993735Y-77603186D02*
X132980999Y-77578926D01*
X133006117Y-77627615D02*
X132993735Y-77603186D01*
X133018143Y-77652207D02*
X133006117Y-77627615D01*
X133029809Y-77676958D02*
X133018143Y-77652207D01*
X133041111Y-77701862D02*
X133029809Y-77676958D01*
X133052046Y-77726913D02*
X133041111Y-77701862D01*
X133062610Y-77752107D02*
X133052046Y-77726913D01*
X133072800Y-77777438D02*
X133062610Y-77752107D01*
X133082612Y-77802902D02*
X133072800Y-77777438D01*
X133092044Y-77828492D02*
X133082612Y-77802902D01*
X133101090Y-77854204D02*
X133092044Y-77828492D01*
X133109749Y-77880033D02*
X133101090Y-77854204D01*
X133118016Y-77905973D02*
X133109749Y-77880033D01*
X133126024Y-77932364D02*
X133118016Y-77905973D01*
X133133614Y-77958607D02*
X133126024Y-77932364D01*
X133140790Y-77984728D02*
X133133614Y-77958607D01*
X133147555Y-78010755D02*
X133140790Y-77984728D01*
X133153915Y-78036715D02*
X133147555Y-78010755D01*
X133159874Y-78062635D02*
X133153915Y-78036715D01*
X133165436Y-78088543D02*
X133159874Y-78062635D01*
X133170606Y-78114465D02*
X133165436Y-78088543D01*
X133175388Y-78140430D02*
X133170606Y-78114465D01*
X133179787Y-78166463D02*
X133175388Y-78140430D01*
X133183806Y-78192593D02*
X133179787Y-78166463D01*
X133187450Y-78218847D02*
X133183806Y-78192593D01*
X133190724Y-78245251D02*
X133187450Y-78218847D01*
X133193632Y-78271833D02*
X133190724Y-78245251D01*
X133196178Y-78298621D02*
X133193632Y-78271833D01*
X133198367Y-78325641D02*
X133196178Y-78298621D01*
X133200203Y-78352921D02*
X133198367Y-78325641D01*
X133201690Y-78380487D02*
X133200203Y-78352921D01*
X133202833Y-78408368D02*
X133201690Y-78380487D01*
X133203637Y-78436590D02*
X133202833Y-78408368D01*
X133204063Y-78464246D02*
X133203637Y-78436590D01*
X133204101Y-78491849D02*
X133204063Y-78464246D01*
X133203753Y-78519396D02*
X133204101Y-78491849D01*
X133203020Y-78546884D02*
X133203753Y-78519396D01*
X133201903Y-78574311D02*
X133203020Y-78546884D01*
X133200402Y-78601673D02*
X133201903Y-78574311D01*
X133198519Y-78628966D02*
X133200402Y-78601673D01*
X133196255Y-78656189D02*
X133198519Y-78628966D01*
X133193610Y-78683337D02*
X133196255Y-78656189D01*
X133190587Y-78710408D02*
X133193610Y-78683337D01*
X133187185Y-78737398D02*
X133190587Y-78710408D01*
X133183405Y-78764304D02*
X133187185Y-78737398D01*
X133179250Y-78791124D02*
X133183405Y-78764304D01*
X133174719Y-78817854D02*
X133179250Y-78791124D01*
X133169814Y-78844490D02*
X133174719Y-78817854D01*
X133164535Y-78871031D02*
X133169814Y-78844490D01*
X133158884Y-78897473D02*
X133164535Y-78871031D01*
X133152862Y-78923812D02*
X133158884Y-78897473D01*
X133146470Y-78950045D02*
X133152862Y-78923812D01*
X133139708Y-78976170D02*
X133146470Y-78950045D01*
X133132578Y-79002184D02*
X133139708Y-78976170D01*
X133125081Y-79028082D02*
X133132578Y-79002184D01*
X133117218Y-79053863D02*
X133125081Y-79028082D01*
X133108989Y-79079522D02*
X133117218Y-79053863D01*
X133100396Y-79105058D02*
X133108989Y-79079522D01*
X133091439Y-79130466D02*
X133100396Y-79105058D01*
X133082121Y-79155743D02*
X133091439Y-79130466D01*
X133072441Y-79180888D02*
X133082121Y-79155743D01*
X133062401Y-79205895D02*
X133072441Y-79180888D01*
X133052001Y-79230763D02*
X133062401Y-79205895D01*
X133041243Y-79255488D02*
X133052001Y-79230763D01*
X133030128Y-79280067D02*
X133041243Y-79255488D01*
X133018656Y-79304497D02*
X133030128Y-79280067D01*
X133006830Y-79328775D02*
X133018656Y-79304497D01*
X132994649Y-79352897D02*
X133006830Y-79328775D01*
X132982114Y-79376861D02*
X132994649Y-79352897D01*
X132969227Y-79400664D02*
X132982114Y-79376861D01*
X132955989Y-79424301D02*
X132969227Y-79400664D01*
X132942401Y-79447771D02*
X132955989Y-79424301D01*
X132928463Y-79471070D02*
X132942401Y-79447771D01*
X132914177Y-79494196D02*
X132928463Y-79471070D01*
X132899544Y-79517144D02*
X132914177Y-79494196D01*
X132884565Y-79539911D02*
X132899544Y-79517144D01*
X132869240Y-79562496D02*
X132884565Y-79539911D01*
X132853570Y-79584894D02*
X132869240Y-79562496D01*
X132837558Y-79607102D02*
X132853570Y-79584894D01*
X132821203Y-79629117D02*
X132837558Y-79607102D01*
X132804232Y-79651298D02*
X132821203Y-79629117D01*
X132786983Y-79673192D02*
X132804232Y-79651298D01*
X132769459Y-79694797D02*
X132786983Y-79673192D01*
X132751663Y-79716112D02*
X132769459Y-79694797D01*
X132733598Y-79737134D02*
X132751663Y-79716112D01*
X132715267Y-79757863D02*
X132733598Y-79737134D01*
X132696674Y-79778296D02*
X132715267Y-79757863D01*
X132677821Y-79798431D02*
X132696674Y-79778296D01*
X132658713Y-79818267D02*
X132677821Y-79798431D01*
X132639351Y-79837802D02*
X132658713Y-79818267D01*
X132619740Y-79857034D02*
X132639351Y-79837802D01*
X132599882Y-79875961D02*
X132619740Y-79857034D01*
X132579780Y-79894581D02*
X132599882Y-79875961D01*
X132559438Y-79912893D02*
X132579780Y-79894581D01*
X132538860Y-79930894D02*
X132559438Y-79912893D01*
X132518047Y-79948584D02*
X132538860Y-79930894D01*
X132497003Y-79965959D02*
X132518047Y-79948584D01*
X132475732Y-79983019D02*
X132497003Y-79965959D01*
X132454236Y-79999762D02*
X132475732Y-79983019D01*
X132432519Y-80016185D02*
X132454236Y-79999762D01*
X132410584Y-80032286D02*
X132432519Y-80016185D01*
X132388435Y-80048065D02*
X132410584Y-80032286D01*
X132366073Y-80063520D02*
X132388435Y-80048065D01*
X132343503Y-80078647D02*
X132366073Y-80063520D01*
X132320727Y-80093446D02*
X132343503Y-80078647D01*
X132297749Y-80107916D02*
X132320727Y-80093446D01*
X132274572Y-80122053D02*
X132297749Y-80107916D01*
X132251199Y-80135856D02*
X132274572Y-80122053D01*
X132227633Y-80149323D02*
X132251199Y-80135856D01*
X132203878Y-80162454D02*
X132227633Y-80149323D01*
X132179937Y-80175245D02*
X132203878Y-80162454D01*
X132155812Y-80187694D02*
X132179937Y-80175245D01*
X132131507Y-80199801D02*
X132155812Y-80187694D01*
X132107025Y-80211564D02*
X132131507Y-80199801D01*
X132082370Y-80222979D02*
X132107025Y-80211564D01*
X132057544Y-80234047D02*
X132082370Y-80222979D01*
X132032550Y-80244764D02*
X132057544Y-80234047D01*
X132007393Y-80255130D02*
X132032550Y-80244764D01*
X131982074Y-80265142D02*
X132007393Y-80255130D01*
X131956597Y-80274798D02*
X131982074Y-80265142D01*
X131930966Y-80284096D02*
X131956597Y-80274798D01*
X131905183Y-80293036D02*
X131930966Y-80284096D01*
X131879252Y-80301615D02*
X131905183Y-80293036D01*
X131853176Y-80309831D02*
X131879252Y-80301615D01*
X131826958Y-80317682D02*
X131853176Y-80309831D01*
X131800601Y-80325167D02*
X131826958Y-80317682D01*
X131774108Y-80332283D02*
X131800601Y-80325167D01*
X131747483Y-80339030D02*
X131774108Y-80332283D01*
X131720728Y-80345404D02*
X131747483Y-80339030D01*
X131693847Y-80351405D02*
X131720728Y-80345404D01*
X131666843Y-80357031D02*
X131693847Y-80351405D01*
X131639720Y-80362279D02*
X131666843Y-80357031D01*
X131612480Y-80367148D02*
X131639720Y-80362279D01*
X131585126Y-80371636D02*
X131612480Y-80367148D01*
X131557662Y-80375742D02*
X131585126Y-80371636D01*
X131530091Y-80379463D02*
X131557662Y-80375742D01*
X131502415Y-80382798D02*
X131530091Y-80379463D01*
X131475151Y-80385682D02*
X131502415Y-80382798D01*
X131447860Y-80388163D02*
X131475151Y-80385682D01*
X131420547Y-80390243D02*
X131447860Y-80388163D01*
X131393218Y-80391922D02*
X131420547Y-80390243D01*
X131365877Y-80393202D02*
X131393218Y-80391922D01*
X131338530Y-80394084D02*
X131365877Y-80393202D01*
X131311182Y-80394571D02*
X131338530Y-80394084D01*
X131283838Y-80394663D02*
X131311182Y-80394571D01*
X131256504Y-80394362D02*
X131283838Y-80394663D01*
X131229184Y-80393669D02*
X131256504Y-80394362D01*
X131201884Y-80392585D02*
X131229184Y-80393669D01*
X131174610Y-80391113D02*
X131201884Y-80392585D01*
X131147365Y-80389254D02*
X131174610Y-80391113D01*
X131120156Y-80387008D02*
X131147365Y-80389254D01*
X131092987Y-80384379D02*
X131120156Y-80387008D01*
X131065864Y-80381366D02*
X131092987Y-80384379D01*
X131038792Y-80377971D02*
X131065864Y-80381366D01*
X131011776Y-80374197D02*
X131038792Y-80377971D01*
X130984822Y-80370043D02*
X131011776Y-80374197D01*
X130957934Y-80365513D02*
X130984822Y-80370043D01*
X130931117Y-80360607D02*
X130957934Y-80365513D01*
X130904378Y-80355326D02*
X130931117Y-80360607D01*
X130877721Y-80349672D02*
X130904378Y-80355326D01*
X130851151Y-80343647D02*
X130877721Y-80349672D01*
X130824674Y-80337252D02*
X130851151Y-80343647D01*
X130798294Y-80330489D02*
X130824674Y-80337252D01*
X130772017Y-80323358D02*
X130798294Y-80330489D01*
X130745848Y-80315862D02*
X130772017Y-80323358D01*
X130719793Y-80308002D02*
X130745848Y-80315862D01*
X130693856Y-80299778D02*
X130719793Y-80308002D01*
X130668043Y-80291194D02*
X130693856Y-80299778D01*
X130642358Y-80282250D02*
X130668043Y-80291194D01*
X130616808Y-80272947D02*
X130642358Y-80282250D01*
X130591397Y-80263287D02*
X130616808Y-80272947D01*
X130566130Y-80253272D02*
X130591397Y-80263287D01*
X130541013Y-80242902D02*
X130566130Y-80253272D01*
X130516050Y-80232181D02*
X130541013Y-80242902D01*
X130491248Y-80221107D02*
X130516050Y-80232181D01*
X130466611Y-80209685D02*
X130491248Y-80221107D01*
X130442144Y-80197914D02*
X130466611Y-80209685D01*
X130417853Y-80185796D02*
X130442144Y-80197914D01*
X130393743Y-80173332D02*
X130417853Y-80185796D01*
X130369819Y-80160525D02*
X130393743Y-80173332D01*
X130346085Y-80147375D02*
X130369819Y-80160525D01*
X130322548Y-80133885D02*
X130346085Y-80147375D01*
X130299213Y-80120054D02*
X130322548Y-80133885D01*
X130276085Y-80105886D02*
X130299213Y-80120054D01*
X130253168Y-80091381D02*
X130276085Y-80105886D01*
X130230469Y-80076541D02*
X130253168Y-80091381D01*
X130207991Y-80061366D02*
X130230469Y-80076541D01*
X130185742Y-80045860D02*
X130207991Y-80061366D01*
X130163725Y-80030023D02*
X130185742Y-80045860D01*
X130141946Y-80013856D02*
X130163725Y-80030023D01*
X130120410Y-79997361D02*
X130141946Y-80013856D01*
X130098461Y-79980043D02*
X130120410Y-79997361D01*
X130076799Y-79962463D02*
X130098461Y-79980043D01*
X130055426Y-79944622D02*
X130076799Y-79962463D01*
X130034343Y-79926523D02*
X130055426Y-79944622D01*
X130013550Y-79908166D02*
X130034343Y-79926523D01*
X129993050Y-79889552D02*
X130013550Y-79908166D01*
X129972842Y-79870683D02*
X129993050Y-79889552D01*
X129952929Y-79851560D02*
X129972842Y-79870683D01*
X129933311Y-79832185D02*
X129952929Y-79851560D01*
X129913989Y-79812558D02*
X129933311Y-79832185D01*
X129894965Y-79792681D02*
X129913989Y-79812558D01*
X129876240Y-79772555D02*
X129894965Y-79792681D01*
X129857815Y-79752182D02*
X129876240Y-79772555D01*
X129839690Y-79731562D02*
X129857815Y-79752182D01*
X129821868Y-79710698D02*
X129839690Y-79731562D01*
X129804349Y-79689589D02*
X129821868Y-79710698D01*
X129787134Y-79668239D02*
X129804349Y-79689589D01*
X129770224Y-79646647D02*
X129787134Y-79668239D01*
X129753621Y-79624816D02*
X129770224Y-79646647D01*
X129737326Y-79602746D02*
X129753621Y-79624816D01*
X129721340Y-79580439D02*
X129737326Y-79602746D01*
X129705664Y-79557895D02*
X129721340Y-79580439D01*
X129690298Y-79535118D02*
X129705664Y-79557895D01*
X129675245Y-79512106D02*
X129690298Y-79535118D01*
X129660506Y-79488863D02*
X129675245Y-79512106D01*
X129646080Y-79465389D02*
X129660506Y-79488863D01*
X129631971Y-79441685D02*
X129646080Y-79465389D01*
X129618314Y-79417970D02*
X129631971Y-79441685D01*
X129605026Y-79394085D02*
X129618314Y-79417970D01*
X129592106Y-79370035D02*
X129605026Y-79394085D01*
X129579555Y-79345824D02*
X129592106Y-79370035D01*
X129567373Y-79321458D02*
X129579555Y-79345824D01*
X129555559Y-79296940D02*
X129567373Y-79321458D01*
X129544114Y-79272275D02*
X129555559Y-79296940D01*
X129533038Y-79247468D02*
X129544114Y-79272275D01*
X129522331Y-79222524D02*
X129533038Y-79247468D01*
X129511994Y-79197447D02*
X129522331Y-79222524D01*
X129502026Y-79172242D02*
X129511994Y-79197447D01*
X129492428Y-79146913D02*
X129502026Y-79172242D01*
X129483200Y-79121465D02*
X129492428Y-79146913D01*
X129474342Y-79095903D02*
X129483200Y-79121465D01*
X129465854Y-79070231D02*
X129474342Y-79095903D01*
X129457736Y-79044454D02*
X129465854Y-79070231D01*
X129449989Y-79018576D02*
X129457736Y-79044454D01*
X129442612Y-78992603D02*
X129449989Y-79018576D01*
X129435606Y-78966538D02*
X129442612Y-78992603D01*
X129428971Y-78940386D02*
X129435606Y-78966538D01*
X129422707Y-78914153D02*
X129428971Y-78940386D01*
X129416813Y-78887842D02*
X129422707Y-78914153D01*
X129411292Y-78861458D02*
X129416813Y-78887842D01*
X129406142Y-78835006D02*
X129411292Y-78861458D01*
X129401363Y-78808491D02*
X129406142Y-78835006D01*
X129396956Y-78781916D02*
X129401363Y-78808491D01*
X129392921Y-78755288D02*
X129396956Y-78781916D01*
X129389258Y-78728609D02*
X129392921Y-78755288D01*
X129385968Y-78701885D02*
X129389258Y-78728609D01*
X129383049Y-78675121D02*
X129385968Y-78701885D01*
X129380504Y-78648321D02*
X129383049Y-78675121D01*
X129378331Y-78621490D02*
X129380504Y-78648321D01*
X129376530Y-78594632D02*
X129378331Y-78621490D01*
X129375103Y-78567752D02*
X129376530Y-78594632D01*
X129374049Y-78540855D02*
X129375103Y-78567752D01*
X129373368Y-78513945D02*
X129374049Y-78540855D01*
X129373060Y-78487027D02*
X129373368Y-78513945D01*
X129373126Y-78460105D02*
X129373060Y-78487027D01*
X129373566Y-78433185D02*
X129373126Y-78460105D01*
X129374379Y-78406270D02*
X129373566Y-78433185D01*
X129375567Y-78379365D02*
X129374379Y-78406270D01*
X129377129Y-78352475D02*
X129375567Y-78379365D01*
X129379065Y-78325605D02*
X129377129Y-78352475D01*
X129381375Y-78298759D02*
X129379065Y-78325605D01*
X129384060Y-78271942D02*
X129381375Y-78298759D01*
X129387120Y-78245158D02*
X129384060Y-78271942D01*
X129390555Y-78218412D02*
X129387120Y-78245158D01*
X129394364Y-78191709D02*
X129390555Y-78218412D01*
X129398549Y-78165053D02*
X129394364Y-78191709D01*
X129403110Y-78138449D02*
X129398549Y-78165053D01*
X129408045Y-78111902D02*
X129403110Y-78138449D01*
X129413357Y-78085415D02*
X129408045Y-78111902D01*
X129419044Y-78058995D02*
X129413357Y-78085415D01*
X129425107Y-78032644D02*
X129419044Y-78058995D01*
X129431547Y-78006369D02*
X129425107Y-78032644D01*
X129438362Y-77980173D02*
X129431547Y-78006369D01*
X129445554Y-77954062D02*
X129438362Y-77980173D01*
X129453122Y-77928039D02*
X129445554Y-77954062D01*
X129461067Y-77902110D02*
X129453122Y-77928039D01*
X129469389Y-77876278D02*
X129461067Y-77902110D01*
X129478088Y-77850550D02*
X129469389Y-77876278D01*
X129487164Y-77824928D02*
X129478088Y-77850550D01*
X129496618Y-77799419D02*
X129487164Y-77824928D01*
X129506448Y-77774026D02*
X129496618Y-77799419D01*
X129516657Y-77748754D02*
X129506448Y-77774026D01*
X129527243Y-77723608D02*
X129516657Y-77748754D01*
X129538207Y-77698593D02*
X129527243Y-77723608D01*
X129549549Y-77673712D02*
X129538207Y-77698593D01*
X129561269Y-77648971D02*
X129549549Y-77673712D01*
X129573367Y-77624375D02*
X129561269Y-77648971D01*
X129586509Y-77598568D02*
X129573367Y-77624375D01*
X129599864Y-77573185D02*
X129586509Y-77598568D01*
X129613444Y-77548205D02*
X129599864Y-77573185D01*
X129627264Y-77523613D02*
X129613444Y-77548205D01*
X129641337Y-77499389D02*
X129627264Y-77523613D01*
X129655674Y-77475516D02*
X129641337Y-77499389D01*
X129670291Y-77451975D02*
X129655674Y-77475516D01*
X129685199Y-77428749D02*
X129670291Y-77451975D01*
X129700412Y-77405820D02*
X129685199Y-77428749D01*
X129715944Y-77383170D02*
X129700412Y-77405820D01*
X129731807Y-77360780D02*
X129715944Y-77383170D01*
X129748014Y-77338634D02*
X129731807Y-77360780D01*
X129764579Y-77316712D02*
X129748014Y-77338634D01*
X129781514Y-77294997D02*
X129764579Y-77316712D01*
X129798834Y-77273470D02*
X129781514Y-77294997D01*
X129816551Y-77252115D02*
X129798834Y-77273470D01*
X129834678Y-77230912D02*
X129816551Y-77252115D01*
X129853228Y-77209845D02*
X129834678Y-77230912D01*
X129872215Y-77188894D02*
X129853228Y-77209845D01*
X129891652Y-77168042D02*
X129872215Y-77188894D01*
X129911552Y-77147272D02*
X129891652Y-77168042D01*
X129931927Y-77126564D02*
X129911552Y-77147272D01*
X129952792Y-77105901D02*
X129931927Y-77126564D01*
X129972823Y-77086590D02*
X129952792Y-77105901D01*
X129993079Y-77067608D02*
X129972823Y-77086590D01*
X130013559Y-77048957D02*
X129993079Y-77067608D01*
X130034259Y-77030638D02*
X130013559Y-77048957D01*
X130055177Y-77012652D02*
X130034259Y-77030638D01*
X130076312Y-76995000D02*
X130055177Y-77012652D01*
X130097661Y-76977683D02*
X130076312Y-76995000D01*
X130119221Y-76960702D02*
X130097661Y-76977683D01*
X130140991Y-76944058D02*
X130119221Y-76960702D01*
X130162968Y-76927752D02*
X130140991Y-76944058D01*
X130185149Y-76911785D02*
X130162968Y-76927752D01*
X130207534Y-76896158D02*
X130185149Y-76911785D01*
X130230118Y-76880872D02*
X130207534Y-76896158D01*
X130252901Y-76865929D02*
X130230118Y-76880872D01*
X130275880Y-76851328D02*
X130252901Y-76865929D01*
X130299051Y-76837072D02*
X130275880Y-76851328D01*
X130322414Y-76823161D02*
X130299051Y-76837072D01*
X130345966Y-76809596D02*
X130322414Y-76823161D01*
X130369705Y-76796378D02*
X130345966Y-76809596D01*
X130393628Y-76783509D02*
X130369705Y-76796378D01*
X130417733Y-76770989D02*
X130393628Y-76783509D01*
X130442018Y-76758819D02*
X130417733Y-76770989D01*
X130466480Y-76747000D02*
X130442018Y-76758819D01*
X130491118Y-76735534D02*
X130466480Y-76747000D01*
X130515929Y-76724421D02*
X130491118Y-76735534D01*
X130540910Y-76713663D02*
X130515929Y-76724421D01*
X130566060Y-76703259D02*
X130540910Y-76713663D01*
X130591375Y-76693213D02*
X130566060Y-76703259D01*
X130616855Y-76683523D02*
X130591375Y-76693213D01*
X130642497Y-76674193D02*
X130616855Y-76683523D01*
X130668297Y-76665221D02*
X130642497Y-76674193D01*
X130694255Y-76656610D02*
X130668297Y-76665221D01*
X130720367Y-76648361D02*
X130694255Y-76656610D01*
X130746632Y-76640474D02*
X130720367Y-76648361D01*
X130773047Y-76632951D02*
X130746632Y-76640474D01*
X130799610Y-76625792D02*
X130773047Y-76632951D01*
X130826319Y-76618999D02*
X130799610Y-76625792D01*
X130853171Y-76612572D02*
X130826319Y-76618999D01*
X130880165Y-76606514D02*
X130853171Y-76612572D01*
X130907297Y-76600823D02*
X130880165Y-76606514D01*
X130934565Y-76595503D02*
X130907297Y-76600823D01*
X130961968Y-76590553D02*
X130934565Y-76595503D01*
X130989503Y-76585975D02*
X130961968Y-76590553D01*
X131017167Y-76581769D02*
X130989503Y-76585975D01*
X131044959Y-76577937D02*
X131017167Y-76581769D01*
X131072877Y-76574481D02*
X131044959Y-76577937D01*
X131100917Y-76571399D02*
X131072877Y-76574481D01*
X131129077Y-76568695D02*
X131100917Y-76571399D01*
X131157356Y-76566369D02*
X131129077Y-76568695D01*
D12*
G36*
X132679155Y-77910788D02*
X132653750Y-77920957D01*
X132632542Y-77932111D01*
X132614926Y-77944869D01*
X132600300Y-77959848D01*
X132588061Y-77977666D01*
X132577604Y-77998940D01*
X132568326Y-78024289D01*
X132562670Y-78043567D01*
X132557793Y-78063969D01*
X132553671Y-78085763D01*
X132550280Y-78109217D01*
X132547597Y-78134599D01*
X132545598Y-78162178D01*
X132544260Y-78192221D01*
X132543559Y-78224995D01*
X132543470Y-78260771D01*
X132543971Y-78299814D01*
X132544781Y-78332870D01*
X132545899Y-78364566D01*
X132547332Y-78394955D01*
X132549084Y-78424088D01*
X132551163Y-78452017D01*
X132553573Y-78478793D01*
X132556320Y-78504470D01*
X132559411Y-78529097D01*
X132562850Y-78552728D01*
X132566644Y-78575413D01*
X132570799Y-78597205D01*
X132575320Y-78618156D01*
X132580214Y-78638317D01*
X132590272Y-78676189D01*
X132600576Y-78712394D01*
X132611096Y-78746866D01*
X132621800Y-78779534D01*
X132632658Y-78810332D01*
X132643640Y-78839191D01*
X132654713Y-78866042D01*
X132665849Y-78890818D01*
X132677016Y-78913449D01*
X132688183Y-78933869D01*
X132699320Y-78952009D01*
X132710396Y-78967799D01*
X132721380Y-78981173D01*
X132732242Y-78992062D01*
X132742951Y-79000397D01*
X132762102Y-79010000D01*
X132791166Y-79011686D01*
X132810595Y-79011184D01*
X132826845Y-79009052D01*
X132840527Y-79004350D01*
X132852255Y-78996139D01*
X132862643Y-78983479D01*
X132872301Y-78965432D01*
X132881845Y-78941057D01*
X132891886Y-78909416D01*
X132903037Y-78869569D01*
X132915911Y-78820576D01*
X132922787Y-78793118D01*
X132928960Y-78766525D01*
X132934462Y-78740547D01*
X132939326Y-78714935D01*
X132943586Y-78689438D01*
X132947275Y-78663807D01*
X132950425Y-78637792D01*
X132953071Y-78611143D01*
X132955244Y-78583611D01*
X132956978Y-78554945D01*
X132958306Y-78524895D01*
X132959261Y-78493213D01*
X132960137Y-78453321D01*
X132960109Y-78426081D01*
X132958744Y-78405155D01*
X132955614Y-78384203D01*
X132950286Y-78356885D01*
X132943799Y-78325658D01*
X132936784Y-78294345D01*
X132929341Y-78263300D01*
X132921574Y-78232876D01*
X132913585Y-78203430D01*
X132905475Y-78175314D01*
X132897346Y-78148883D01*
X132889301Y-78124491D01*
X132881442Y-78102493D01*
X132873870Y-78083242D01*
X132866689Y-78067094D01*
X132860272Y-78054815D01*
X132851789Y-78040668D01*
X132840544Y-78023637D01*
X132825840Y-78002706D01*
X132806981Y-77976856D01*
X132783270Y-77945072D01*
X132765505Y-77925546D01*
X132746295Y-77912382D01*
X132725558Y-77905552D01*
X132703210Y-77905029D01*
X132679169Y-77910785D01*
X132679155Y-77910788D01*
X132679155Y-77910788D01*
G37*
X132679155Y-77910788D02*
X132653750Y-77920957D01*
X132632542Y-77932111D01*
X132614926Y-77944869D01*
X132600300Y-77959848D01*
X132588061Y-77977666D01*
X132577604Y-77998940D01*
X132568326Y-78024289D01*
X132562670Y-78043567D01*
X132557793Y-78063969D01*
X132553671Y-78085763D01*
X132550280Y-78109217D01*
X132547597Y-78134599D01*
X132545598Y-78162178D01*
X132544260Y-78192221D01*
X132543559Y-78224995D01*
X132543470Y-78260771D01*
X132543971Y-78299814D01*
X132544781Y-78332870D01*
X132545899Y-78364566D01*
X132547332Y-78394955D01*
X132549084Y-78424088D01*
X132551163Y-78452017D01*
X132553573Y-78478793D01*
X132556320Y-78504470D01*
X132559411Y-78529097D01*
X132562850Y-78552728D01*
X132566644Y-78575413D01*
X132570799Y-78597205D01*
X132575320Y-78618156D01*
X132580214Y-78638317D01*
X132590272Y-78676189D01*
X132600576Y-78712394D01*
X132611096Y-78746866D01*
X132621800Y-78779534D01*
X132632658Y-78810332D01*
X132643640Y-78839191D01*
X132654713Y-78866042D01*
X132665849Y-78890818D01*
X132677016Y-78913449D01*
X132688183Y-78933869D01*
X132699320Y-78952009D01*
X132710396Y-78967799D01*
X132721380Y-78981173D01*
X132732242Y-78992062D01*
X132742951Y-79000397D01*
X132762102Y-79010000D01*
X132791166Y-79011686D01*
X132810595Y-79011184D01*
X132826845Y-79009052D01*
X132840527Y-79004350D01*
X132852255Y-78996139D01*
X132862643Y-78983479D01*
X132872301Y-78965432D01*
X132881845Y-78941057D01*
X132891886Y-78909416D01*
X132903037Y-78869569D01*
X132915911Y-78820576D01*
X132922787Y-78793118D01*
X132928960Y-78766525D01*
X132934462Y-78740547D01*
X132939326Y-78714935D01*
X132943586Y-78689438D01*
X132947275Y-78663807D01*
X132950425Y-78637792D01*
X132953071Y-78611143D01*
X132955244Y-78583611D01*
X132956978Y-78554945D01*
X132958306Y-78524895D01*
X132959261Y-78493213D01*
X132960137Y-78453321D01*
X132960109Y-78426081D01*
X132958744Y-78405155D01*
X132955614Y-78384203D01*
X132950286Y-78356885D01*
X132943799Y-78325658D01*
X132936784Y-78294345D01*
X132929341Y-78263300D01*
X132921574Y-78232876D01*
X132913585Y-78203430D01*
X132905475Y-78175314D01*
X132897346Y-78148883D01*
X132889301Y-78124491D01*
X132881442Y-78102493D01*
X132873870Y-78083242D01*
X132866689Y-78067094D01*
X132860272Y-78054815D01*
X132851789Y-78040668D01*
X132840544Y-78023637D01*
X132825840Y-78002706D01*
X132806981Y-77976856D01*
X132783270Y-77945072D01*
X132765505Y-77925546D01*
X132746295Y-77912382D01*
X132725558Y-77905552D01*
X132703210Y-77905029D01*
X132679169Y-77910785D01*
X132679155Y-77910788D01*
D13*
G36*
X130886149Y-77927109D02*
X130942992Y-77832937D01*
X130957887Y-77826129D01*
X130974299Y-77809264D01*
X130989253Y-77784506D01*
X130999775Y-77754019D01*
X130999210Y-77727688D01*
X130987442Y-77717704D01*
X130968479Y-77729099D01*
X130955317Y-77744418D01*
X130943470Y-77764283D01*
X130934523Y-77785553D01*
X130930060Y-77805093D01*
X130931955Y-77826175D01*
X130941490Y-77833117D01*
X130941298Y-77832965D01*
X130942992Y-77832937D01*
X130886149Y-77927109D01*
X130864797Y-77923195D01*
X130850080Y-77910858D01*
X130841606Y-77889514D01*
X130838981Y-77858579D01*
X130841092Y-77833095D01*
X130846818Y-77806848D01*
X130855764Y-77780467D01*
X130867531Y-77754581D01*
X130881722Y-77729819D01*
X130897938Y-77706811D01*
X130915783Y-77686185D01*
X130934859Y-77668571D01*
X130954767Y-77654598D01*
X130975111Y-77644895D01*
X130997491Y-77640353D01*
X131016111Y-77643870D01*
X131030527Y-77655097D01*
X131040300Y-77673688D01*
X131044987Y-77699296D01*
X131044548Y-77723131D01*
X131040345Y-77748147D01*
X131032808Y-77773724D01*
X131022369Y-77799243D01*
X131009459Y-77824087D01*
X130994510Y-77847636D01*
X130977953Y-77869273D01*
X130960220Y-77888377D01*
X130941742Y-77904332D01*
X130922949Y-77916518D01*
X130904275Y-77924316D01*
X130886149Y-77927109D01*
X130886149Y-77927109D01*
G37*
G36*
X131949294Y-78108245D02*
X131935307Y-78107266D01*
X131945352Y-78024382D01*
X131963458Y-78021201D01*
X131979532Y-78011711D01*
X131991664Y-77995903D01*
X131997250Y-77974869D01*
X131994008Y-77954791D01*
X131983285Y-77937804D01*
X131966426Y-77926045D01*
X131944779Y-77921650D01*
X131929245Y-77923605D01*
X131916099Y-77929666D01*
X131898592Y-77948453D01*
X131892297Y-77971825D01*
X131898235Y-77996010D01*
X131910811Y-78011784D01*
X131927157Y-78021234D01*
X131945341Y-78024365D01*
X131945352Y-78024382D01*
X131935307Y-78107266D01*
X131920113Y-78104801D01*
X131894668Y-78097239D01*
X131872238Y-78085826D01*
X131852822Y-78070560D01*
X131836424Y-78051437D01*
X131823042Y-78028455D01*
X131815806Y-78011293D01*
X131812715Y-77995358D01*
X131812064Y-77971830D01*
X131812731Y-77948211D01*
X131815894Y-77932136D01*
X131823296Y-77914493D01*
X131835715Y-77892778D01*
X131850821Y-77874505D01*
X131868771Y-77859544D01*
X131889717Y-77847769D01*
X131913813Y-77839053D01*
X131935586Y-77835265D01*
X131958152Y-77835597D01*
X131980746Y-77839777D01*
X132002603Y-77847534D01*
X132022960Y-77858594D01*
X132041050Y-77872687D01*
X132056110Y-77889539D01*
X132068549Y-77910070D01*
X132076990Y-77931779D01*
X132081573Y-77954171D01*
X132082439Y-77976755D01*
X132079729Y-77999037D01*
X132073584Y-78020525D01*
X132064144Y-78040725D01*
X132051552Y-78059144D01*
X132035946Y-78075289D01*
X132017469Y-78088668D01*
X131996262Y-78098787D01*
X131971859Y-78105980D01*
X131949275Y-78108242D01*
X131949294Y-78108245D01*
X131949294Y-78108245D01*
G37*
D14*
G36*
X131869121Y-79946414D02*
X131912637Y-78212283D01*
X131938715Y-78210947D01*
X131964703Y-78206657D01*
X131990167Y-78199497D01*
X132014672Y-78189550D01*
X132037783Y-78176902D01*
X132059066Y-78161637D01*
X132078087Y-78143839D01*
X132094410Y-78123591D01*
X132107602Y-78100978D01*
X132117228Y-78076085D01*
X132123594Y-78051007D01*
X132126905Y-78025741D01*
X132127350Y-78000438D01*
X132125120Y-77975249D01*
X132120405Y-77950324D01*
X132113396Y-77925815D01*
X132104283Y-77901872D01*
X132093257Y-77878646D01*
X132080509Y-77856288D01*
X132066228Y-77834948D01*
X132050605Y-77814777D01*
X132033831Y-77795926D01*
X132015142Y-77776517D01*
X131995240Y-77758249D01*
X131974218Y-77741209D01*
X131952171Y-77725484D01*
X131929191Y-77711164D01*
X131905373Y-77698335D01*
X131880810Y-77687085D01*
X131855597Y-77677502D01*
X131829827Y-77669674D01*
X131803594Y-77663689D01*
X131776991Y-77659633D01*
X131750113Y-77657596D01*
X131723052Y-77657664D01*
X131695904Y-77659926D01*
X131672047Y-77663511D01*
X131648960Y-77670103D01*
X131626902Y-77679483D01*
X131606133Y-77691432D01*
X131586913Y-77705732D01*
X131569500Y-77722163D01*
X131554155Y-77740507D01*
X131541138Y-77760545D01*
X131530707Y-77782059D01*
X131523122Y-77804830D01*
X131518643Y-77828639D01*
X131516902Y-77854171D01*
X131517723Y-77879442D01*
X131520955Y-77904361D01*
X131526445Y-77928839D01*
X131534039Y-77952784D01*
X131543584Y-77976106D01*
X131554929Y-77998715D01*
X131567919Y-78020520D01*
X131582403Y-78041431D01*
X131598227Y-78061357D01*
X131615238Y-78080208D01*
X131633283Y-78097894D01*
X131652210Y-78114324D01*
X131672448Y-78130282D01*
X131693619Y-78145069D01*
X131715640Y-78158606D01*
X131738431Y-78170811D01*
X131761909Y-78181606D01*
X131785993Y-78190910D01*
X131810601Y-78198644D01*
X131835651Y-78204728D01*
X131861061Y-78209082D01*
X131886751Y-78211627D01*
X131912637Y-78212283D01*
X131869121Y-79946414D01*
X130777440Y-78080883D01*
X130802815Y-78076625D01*
X130827010Y-78069100D01*
X130850068Y-78058734D01*
X130872031Y-78045954D01*
X130892941Y-78031183D01*
X130912841Y-78014849D01*
X130931772Y-77997375D01*
X130949777Y-77979188D01*
X130966899Y-77960713D01*
X130983907Y-77939861D01*
X131000225Y-77918330D01*
X131015748Y-77896146D01*
X131030375Y-77873335D01*
X131044001Y-77849922D01*
X131056524Y-77825935D01*
X131067841Y-77801397D01*
X131077849Y-77776336D01*
X131086444Y-77750777D01*
X131093523Y-77724746D01*
X131098984Y-77698269D01*
X131101640Y-77675166D01*
X131101964Y-77651016D01*
X131099029Y-77627114D01*
X131091909Y-77604757D01*
X131079678Y-77585243D01*
X131061409Y-77569869D01*
X131039501Y-77562060D01*
X131017132Y-77560004D01*
X130994711Y-77562773D01*
X130972649Y-77569441D01*
X130951354Y-77579080D01*
X130931237Y-77590763D01*
X130912706Y-77603563D01*
X130891633Y-77619942D01*
X130871481Y-77637389D01*
X130852261Y-77655840D01*
X130833984Y-77675230D01*
X130816662Y-77695495D01*
X130800303Y-77716572D01*
X130784921Y-77738397D01*
X130770524Y-77760904D01*
X130757124Y-77784031D01*
X130744732Y-77807712D01*
X130733359Y-77831885D01*
X130723014Y-77856484D01*
X130713710Y-77881446D01*
X130705456Y-77906707D01*
X130699928Y-77930907D01*
X130696070Y-77956076D01*
X130694817Y-77981512D01*
X130697101Y-78006513D01*
X130703855Y-78030378D01*
X130716012Y-78052404D01*
X130733321Y-78067979D01*
X130754388Y-78077861D01*
X130777454Y-78080883D01*
X130777440Y-78080883D01*
X131869121Y-79946414D01*
X131841651Y-79946146D01*
X131814174Y-79945349D01*
X131786703Y-79944022D01*
X131759251Y-79942162D01*
X131731832Y-79939768D01*
X131704458Y-79936838D01*
X131677144Y-79933370D01*
X131442336Y-77028978D01*
X131447370Y-77046427D01*
X131460849Y-77057832D01*
X131479327Y-77056744D01*
X131502898Y-77051884D01*
X131526996Y-77047678D01*
X131551391Y-77044637D01*
X131575851Y-77043271D01*
X131600145Y-77044093D01*
X131624041Y-77047612D01*
X131647309Y-77054340D01*
X131669717Y-77064787D01*
X131694768Y-77075459D01*
X131720999Y-77082003D01*
X131721011Y-77081952D01*
X131736679Y-77074293D01*
X131743389Y-77058636D01*
X131740638Y-77041516D01*
X131727925Y-77029467D01*
X131705985Y-77017201D01*
X131683068Y-77006804D01*
X131659351Y-76998355D01*
X131635008Y-76991931D01*
X131610215Y-76987612D01*
X131585148Y-76985475D01*
X131559982Y-76985598D01*
X131534893Y-76988059D01*
X131512836Y-76991790D01*
X131490560Y-76996018D01*
X131469025Y-77002236D01*
X131449191Y-77011935D01*
X131442336Y-77028978D01*
X131677144Y-79933370D01*
X131649901Y-79929361D01*
X131622743Y-79924809D01*
X131595683Y-79919714D01*
X131568735Y-79914072D01*
X131541911Y-79907882D01*
X131515224Y-79901141D01*
X131488689Y-79893849D01*
X131462317Y-79886002D01*
X131436122Y-79877599D01*
X131410118Y-79868638D01*
X131384317Y-79859116D01*
X131358732Y-79849033D01*
X131333377Y-79838385D01*
X131308265Y-79827171D01*
X131283408Y-79815389D01*
X131258821Y-79803037D01*
X131235826Y-79790598D01*
X131213210Y-79777491D01*
X131190992Y-79763730D01*
X131169189Y-79749325D01*
X131147819Y-79734291D01*
X131126899Y-79718638D01*
X131106446Y-79702381D01*
X131086479Y-79685530D01*
X131067014Y-79668099D01*
X131048069Y-79650099D01*
X131029662Y-79631545D01*
X131011811Y-79612446D01*
X130994532Y-79592818D01*
X130977843Y-79572670D01*
X130961762Y-79552017D01*
X130944722Y-79530870D01*
X130927905Y-79509504D01*
X130911323Y-79487922D01*
X130894985Y-79466124D01*
X130878903Y-79444114D01*
X130863087Y-79421895D01*
X130847548Y-79399467D01*
X130832297Y-79376834D01*
X130817343Y-79353998D01*
X130802699Y-79330960D01*
X130788373Y-79307725D01*
X130774378Y-79284292D01*
X130760724Y-79260666D01*
X130747421Y-79236848D01*
X130734481Y-79212840D01*
X130721913Y-79188645D01*
X130709728Y-79164265D01*
X130697938Y-79139702D01*
X130686552Y-79114959D01*
X130675582Y-79090037D01*
X130665038Y-79064940D01*
X130654930Y-79039669D01*
X130645270Y-79014226D01*
X130636068Y-78988615D01*
X130627334Y-78962837D01*
X130619080Y-78936894D01*
X130611316Y-78910789D01*
X130604052Y-78884524D01*
X130597300Y-78858101D01*
X130591070Y-78831523D01*
X130585372Y-78804792D01*
X130580218Y-78777910D01*
X130575054Y-78750313D01*
X130570722Y-78722625D01*
X130567164Y-78694856D01*
X130564322Y-78667015D01*
X130562136Y-78639113D01*
X130560550Y-78611159D01*
X130559505Y-78583164D01*
X130558943Y-78555136D01*
X130558804Y-78527087D01*
X130559032Y-78499026D01*
X130559568Y-78470964D01*
X130560353Y-78442909D01*
X130561329Y-78414872D01*
X130562439Y-78386863D01*
X130563623Y-78358892D01*
X130566349Y-78331654D01*
X130569529Y-78304490D01*
X130573150Y-78277399D01*
X130577200Y-78250383D01*
X130581669Y-78223442D01*
X130586543Y-78196577D01*
X130591813Y-78169789D01*
X130597465Y-78143079D01*
X130603488Y-78116448D01*
X130609872Y-78089896D01*
X130616603Y-78063425D01*
X130623670Y-78037034D01*
X130631062Y-78010726D01*
X130638766Y-77984500D01*
X130646772Y-77958358D01*
X130655067Y-77932300D01*
X130663641Y-77906327D01*
X130672480Y-77880440D01*
X130681574Y-77854640D01*
X130690910Y-77828928D01*
X130700478Y-77803304D01*
X130710265Y-77777769D01*
X130720260Y-77752324D01*
X130730451Y-77726970D01*
X130740827Y-77701708D01*
X130751375Y-77676539D01*
X130762084Y-77651462D01*
X130773404Y-77626446D01*
X130784902Y-77601484D01*
X130796606Y-77576599D01*
X130808543Y-77551813D01*
X130820740Y-77527150D01*
X130833223Y-77502632D01*
X130846020Y-77478283D01*
X130859157Y-77454124D01*
X130872662Y-77430180D01*
X130886561Y-77406472D01*
X130900882Y-77383025D01*
X130915651Y-77359860D01*
X130930895Y-77337000D01*
X130946641Y-77314469D01*
X130964237Y-77293095D01*
X130982352Y-77272158D01*
X131000966Y-77251662D01*
X131020059Y-77231611D01*
X131039611Y-77212009D01*
X131059604Y-77192859D01*
X131080016Y-77174164D01*
X131100829Y-77155929D01*
X131122023Y-77138158D01*
X131143578Y-77120853D01*
X131165474Y-77104019D01*
X131187692Y-77087658D01*
X131210130Y-77072629D01*
X131233016Y-77058351D01*
X131256325Y-77044823D01*
X131280034Y-77032042D01*
X131304120Y-77020003D01*
X131328559Y-77008705D01*
X131353329Y-76998145D01*
X131378405Y-76988320D01*
X131403763Y-76979226D01*
X131429382Y-76970861D01*
X131455237Y-76963222D01*
X131481304Y-76956306D01*
X131507561Y-76950111D01*
X131533984Y-76944632D01*
X131560549Y-76939868D01*
X131587234Y-76935815D01*
X131614014Y-76932470D01*
X131640866Y-76929832D01*
X131667767Y-76927895D01*
X131695407Y-76925242D01*
X131723236Y-76923219D01*
X131751143Y-76922203D01*
X131779014Y-76922572D01*
X131806739Y-76924705D01*
X131834204Y-76928978D01*
X131861298Y-76935769D01*
X131887034Y-76942508D01*
X131912459Y-76950134D01*
X131937572Y-76958614D01*
X131962370Y-76967912D01*
X131986853Y-76977994D01*
X132011021Y-76988824D01*
X132034871Y-77000368D01*
X132058403Y-77012591D01*
X132081616Y-77025457D01*
X132104509Y-77038932D01*
X132127080Y-77052981D01*
X132149330Y-77067570D01*
X132171256Y-77082662D01*
X132192857Y-77098224D01*
X132214133Y-77114220D01*
X132235083Y-77130616D01*
X132255705Y-77147376D01*
X132275998Y-77164466D01*
X132295962Y-77181850D01*
X132316531Y-77199140D01*
X132336851Y-77216740D01*
X132356896Y-77234661D01*
X132376638Y-77252915D01*
X132396051Y-77271512D01*
X132415108Y-77290465D01*
X132433780Y-77309785D01*
X132452043Y-77329483D01*
X132469868Y-77349570D01*
X132487228Y-77370059D01*
X132504097Y-77390959D01*
X132520448Y-77412284D01*
X132536253Y-77434043D01*
X132551486Y-77456249D01*
X132566707Y-77478157D01*
X132581722Y-77500300D01*
X132596415Y-77522712D01*
X132610670Y-77545423D01*
X132624369Y-77568467D01*
X132637395Y-77591874D01*
X132649632Y-77615678D01*
X132660962Y-77639910D01*
X132671269Y-77664601D01*
X132680435Y-77689785D01*
X132688344Y-77715493D01*
X132689754Y-77737728D01*
X132686528Y-77759543D01*
X132681250Y-77781216D01*
X132676507Y-77803026D01*
X132674882Y-77825252D01*
X132673113Y-77849772D01*
X132671073Y-77874313D01*
X132667742Y-77898412D01*
X132643482Y-77909437D01*
X132620225Y-77922778D01*
X132599227Y-77939010D01*
X132581743Y-77958709D01*
X132569029Y-77982450D01*
X132558825Y-78007598D01*
X132550528Y-78033287D01*
X132543924Y-78059431D01*
X132538798Y-78085942D01*
X132534934Y-78112736D01*
X132532118Y-78139727D01*
X132530136Y-78166827D01*
X132528771Y-78193951D01*
X132527810Y-78221013D01*
X132527037Y-78247928D01*
X132527169Y-78275999D01*
X132527595Y-78304086D01*
X132528338Y-78332180D01*
X132529423Y-78360270D01*
X132530872Y-78388345D01*
X132532708Y-78416397D01*
X132534956Y-78444416D01*
X132537639Y-78472390D01*
X132540779Y-78500311D01*
X132544401Y-78528167D01*
X132548527Y-78555950D01*
X132553181Y-78583649D01*
X132558386Y-78611255D01*
X132564564Y-78637893D01*
X132571509Y-78664358D01*
X132578929Y-78690710D01*
X132586531Y-78717009D01*
X132594022Y-78743315D01*
X132601111Y-78769687D01*
X132607504Y-78796187D01*
X132606802Y-78823287D01*
X132606191Y-78850392D01*
X132605660Y-78877501D01*
X132605196Y-78904613D01*
X132604785Y-78931728D01*
X132604416Y-78958844D01*
X132604075Y-78985960D01*
X132603751Y-79013077D01*
X132603430Y-79040193D01*
X132603100Y-79067308D01*
X132602748Y-79094421D01*
X132602362Y-79121530D01*
X132601928Y-79148636D01*
X132601435Y-79175738D01*
X132600870Y-79202834D01*
X132600220Y-79229924D01*
X132599472Y-79257008D01*
X132598614Y-79284084D01*
X132597086Y-79311563D01*
X132595195Y-79339037D01*
X132592939Y-79366495D01*
X132590315Y-79393929D01*
X132587318Y-79421332D01*
X132583945Y-79448694D01*
X132580193Y-79476007D01*
X132576059Y-79503262D01*
X132571537Y-79530451D01*
X132566626Y-79557566D01*
X132561322Y-79584598D01*
X132555620Y-79611538D01*
X132549519Y-79638378D01*
X132543013Y-79665109D01*
X132536099Y-79691723D01*
X132516741Y-79711042D01*
X132496727Y-79729575D01*
X132476086Y-79747325D01*
X132454848Y-79764294D01*
X132433042Y-79780486D01*
X132410700Y-79795903D01*
X132387849Y-79810549D01*
X132364520Y-79824425D01*
X132340742Y-79837536D01*
X132316546Y-79849884D01*
X132291961Y-79861472D01*
X132267016Y-79872303D01*
X132241741Y-79882380D01*
X132216166Y-79891706D01*
X132190321Y-79900283D01*
X132164236Y-79908114D01*
X132137939Y-79915203D01*
X132111461Y-79921552D01*
X132084831Y-79927165D01*
X132058080Y-79932044D01*
X132031236Y-79936191D01*
X132004330Y-79939611D01*
X131977391Y-79942305D01*
X131950449Y-79944278D01*
X131923365Y-79945678D01*
X131896287Y-79946452D01*
X131869112Y-79946536D01*
X131869121Y-79946414D01*
X131869121Y-79946414D01*
G37*
X131869121Y-79946414D02*
X131912637Y-78212283D01*
X131938715Y-78210947D01*
X131964703Y-78206657D01*
X131990167Y-78199497D01*
X132014672Y-78189550D01*
X132037783Y-78176902D01*
X132059066Y-78161637D01*
X132078087Y-78143839D01*
X132094410Y-78123591D01*
X132107602Y-78100978D01*
X132117228Y-78076085D01*
X132123594Y-78051007D01*
X132126905Y-78025741D01*
X132127350Y-78000438D01*
X132125120Y-77975249D01*
X132120405Y-77950324D01*
X132113396Y-77925815D01*
X132104283Y-77901872D01*
X132093257Y-77878646D01*
X132080509Y-77856288D01*
X132066228Y-77834948D01*
X132050605Y-77814777D01*
X132033831Y-77795926D01*
X132015142Y-77776517D01*
X131995240Y-77758249D01*
X131974218Y-77741209D01*
X131952171Y-77725484D01*
X131929191Y-77711164D01*
X131905373Y-77698335D01*
X131880810Y-77687085D01*
X131855597Y-77677502D01*
X131829827Y-77669674D01*
X131803594Y-77663689D01*
X131776991Y-77659633D01*
X131750113Y-77657596D01*
X131723052Y-77657664D01*
X131695904Y-77659926D01*
X131672047Y-77663511D01*
X131648960Y-77670103D01*
X131626902Y-77679483D01*
X131606133Y-77691432D01*
X131586913Y-77705732D01*
X131569500Y-77722163D01*
X131554155Y-77740507D01*
X131541138Y-77760545D01*
X131530707Y-77782059D01*
X131523122Y-77804830D01*
X131518643Y-77828639D01*
X131516902Y-77854171D01*
X131517723Y-77879442D01*
X131520955Y-77904361D01*
X131526445Y-77928839D01*
X131534039Y-77952784D01*
X131543584Y-77976106D01*
X131554929Y-77998715D01*
X131567919Y-78020520D01*
X131582403Y-78041431D01*
X131598227Y-78061357D01*
X131615238Y-78080208D01*
X131633283Y-78097894D01*
X131652210Y-78114324D01*
X131672448Y-78130282D01*
X131693619Y-78145069D01*
X131715640Y-78158606D01*
X131738431Y-78170811D01*
X131761909Y-78181606D01*
X131785993Y-78190910D01*
X131810601Y-78198644D01*
X131835651Y-78204728D01*
X131861061Y-78209082D01*
X131886751Y-78211627D01*
X131912637Y-78212283D01*
X131869121Y-79946414D01*
X130777440Y-78080883D01*
X130802815Y-78076625D01*
X130827010Y-78069100D01*
X130850068Y-78058734D01*
X130872031Y-78045954D01*
X130892941Y-78031183D01*
X130912841Y-78014849D01*
X130931772Y-77997375D01*
X130949777Y-77979188D01*
X130966899Y-77960713D01*
X130983907Y-77939861D01*
X131000225Y-77918330D01*
X131015748Y-77896146D01*
X131030375Y-77873335D01*
X131044001Y-77849922D01*
X131056524Y-77825935D01*
X131067841Y-77801397D01*
X131077849Y-77776336D01*
X131086444Y-77750777D01*
X131093523Y-77724746D01*
X131098984Y-77698269D01*
X131101640Y-77675166D01*
X131101964Y-77651016D01*
X131099029Y-77627114D01*
X131091909Y-77604757D01*
X131079678Y-77585243D01*
X131061409Y-77569869D01*
X131039501Y-77562060D01*
X131017132Y-77560004D01*
X130994711Y-77562773D01*
X130972649Y-77569441D01*
X130951354Y-77579080D01*
X130931237Y-77590763D01*
X130912706Y-77603563D01*
X130891633Y-77619942D01*
X130871481Y-77637389D01*
X130852261Y-77655840D01*
X130833984Y-77675230D01*
X130816662Y-77695495D01*
X130800303Y-77716572D01*
X130784921Y-77738397D01*
X130770524Y-77760904D01*
X130757124Y-77784031D01*
X130744732Y-77807712D01*
X130733359Y-77831885D01*
X130723014Y-77856484D01*
X130713710Y-77881446D01*
X130705456Y-77906707D01*
X130699928Y-77930907D01*
X130696070Y-77956076D01*
X130694817Y-77981512D01*
X130697101Y-78006513D01*
X130703855Y-78030378D01*
X130716012Y-78052404D01*
X130733321Y-78067979D01*
X130754388Y-78077861D01*
X130777454Y-78080883D01*
X130777440Y-78080883D01*
X131869121Y-79946414D01*
X131841651Y-79946146D01*
X131814174Y-79945349D01*
X131786703Y-79944022D01*
X131759251Y-79942162D01*
X131731832Y-79939768D01*
X131704458Y-79936838D01*
X131677144Y-79933370D01*
X131442336Y-77028978D01*
X131447370Y-77046427D01*
X131460849Y-77057832D01*
X131479327Y-77056744D01*
X131502898Y-77051884D01*
X131526996Y-77047678D01*
X131551391Y-77044637D01*
X131575851Y-77043271D01*
X131600145Y-77044093D01*
X131624041Y-77047612D01*
X131647309Y-77054340D01*
X131669717Y-77064787D01*
X131694768Y-77075459D01*
X131720999Y-77082003D01*
X131721011Y-77081952D01*
X131736679Y-77074293D01*
X131743389Y-77058636D01*
X131740638Y-77041516D01*
X131727925Y-77029467D01*
X131705985Y-77017201D01*
X131683068Y-77006804D01*
X131659351Y-76998355D01*
X131635008Y-76991931D01*
X131610215Y-76987612D01*
X131585148Y-76985475D01*
X131559982Y-76985598D01*
X131534893Y-76988059D01*
X131512836Y-76991790D01*
X131490560Y-76996018D01*
X131469025Y-77002236D01*
X131449191Y-77011935D01*
X131442336Y-77028978D01*
X131677144Y-79933370D01*
X131649901Y-79929361D01*
X131622743Y-79924809D01*
X131595683Y-79919714D01*
X131568735Y-79914072D01*
X131541911Y-79907882D01*
X131515224Y-79901141D01*
X131488689Y-79893849D01*
X131462317Y-79886002D01*
X131436122Y-79877599D01*
X131410118Y-79868638D01*
X131384317Y-79859116D01*
X131358732Y-79849033D01*
X131333377Y-79838385D01*
X131308265Y-79827171D01*
X131283408Y-79815389D01*
X131258821Y-79803037D01*
X131235826Y-79790598D01*
X131213210Y-79777491D01*
X131190992Y-79763730D01*
X131169189Y-79749325D01*
X131147819Y-79734291D01*
X131126899Y-79718638D01*
X131106446Y-79702381D01*
X131086479Y-79685530D01*
X131067014Y-79668099D01*
X131048069Y-79650099D01*
X131029662Y-79631545D01*
X131011811Y-79612446D01*
X130994532Y-79592818D01*
X130977843Y-79572670D01*
X130961762Y-79552017D01*
X130944722Y-79530870D01*
X130927905Y-79509504D01*
X130911323Y-79487922D01*
X130894985Y-79466124D01*
X130878903Y-79444114D01*
X130863087Y-79421895D01*
X130847548Y-79399467D01*
X130832297Y-79376834D01*
X130817343Y-79353998D01*
X130802699Y-79330960D01*
X130788373Y-79307725D01*
X130774378Y-79284292D01*
X130760724Y-79260666D01*
X130747421Y-79236848D01*
X130734481Y-79212840D01*
X130721913Y-79188645D01*
X130709728Y-79164265D01*
X130697938Y-79139702D01*
X130686552Y-79114959D01*
X130675582Y-79090037D01*
X130665038Y-79064940D01*
X130654930Y-79039669D01*
X130645270Y-79014226D01*
X130636068Y-78988615D01*
X130627334Y-78962837D01*
X130619080Y-78936894D01*
X130611316Y-78910789D01*
X130604052Y-78884524D01*
X130597300Y-78858101D01*
X130591070Y-78831523D01*
X130585372Y-78804792D01*
X130580218Y-78777910D01*
X130575054Y-78750313D01*
X130570722Y-78722625D01*
X130567164Y-78694856D01*
X130564322Y-78667015D01*
X130562136Y-78639113D01*
X130560550Y-78611159D01*
X130559505Y-78583164D01*
X130558943Y-78555136D01*
X130558804Y-78527087D01*
X130559032Y-78499026D01*
X130559568Y-78470964D01*
X130560353Y-78442909D01*
X130561329Y-78414872D01*
X130562439Y-78386863D01*
X130563623Y-78358892D01*
X130566349Y-78331654D01*
X130569529Y-78304490D01*
X130573150Y-78277399D01*
X130577200Y-78250383D01*
X130581669Y-78223442D01*
X130586543Y-78196577D01*
X130591813Y-78169789D01*
X130597465Y-78143079D01*
X130603488Y-78116448D01*
X130609872Y-78089896D01*
X130616603Y-78063425D01*
X130623670Y-78037034D01*
X130631062Y-78010726D01*
X130638766Y-77984500D01*
X130646772Y-77958358D01*
X130655067Y-77932300D01*
X130663641Y-77906327D01*
X130672480Y-77880440D01*
X130681574Y-77854640D01*
X130690910Y-77828928D01*
X130700478Y-77803304D01*
X130710265Y-77777769D01*
X130720260Y-77752324D01*
X130730451Y-77726970D01*
X130740827Y-77701708D01*
X130751375Y-77676539D01*
X130762084Y-77651462D01*
X130773404Y-77626446D01*
X130784902Y-77601484D01*
X130796606Y-77576599D01*
X130808543Y-77551813D01*
X130820740Y-77527150D01*
X130833223Y-77502632D01*
X130846020Y-77478283D01*
X130859157Y-77454124D01*
X130872662Y-77430180D01*
X130886561Y-77406472D01*
X130900882Y-77383025D01*
X130915651Y-77359860D01*
X130930895Y-77337000D01*
X130946641Y-77314469D01*
X130964237Y-77293095D01*
X130982352Y-77272158D01*
X131000966Y-77251662D01*
X131020059Y-77231611D01*
X131039611Y-77212009D01*
X131059604Y-77192859D01*
X131080016Y-77174164D01*
X131100829Y-77155929D01*
X131122023Y-77138158D01*
X131143578Y-77120853D01*
X131165474Y-77104019D01*
X131187692Y-77087658D01*
X131210130Y-77072629D01*
X131233016Y-77058351D01*
X131256325Y-77044823D01*
X131280034Y-77032042D01*
X131304120Y-77020003D01*
X131328559Y-77008705D01*
X131353329Y-76998145D01*
X131378405Y-76988320D01*
X131403763Y-76979226D01*
X131429382Y-76970861D01*
X131455237Y-76963222D01*
X131481304Y-76956306D01*
X131507561Y-76950111D01*
X131533984Y-76944632D01*
X131560549Y-76939868D01*
X131587234Y-76935815D01*
X131614014Y-76932470D01*
X131640866Y-76929832D01*
X131667767Y-76927895D01*
X131695407Y-76925242D01*
X131723236Y-76923219D01*
X131751143Y-76922203D01*
X131779014Y-76922572D01*
X131806739Y-76924705D01*
X131834204Y-76928978D01*
X131861298Y-76935769D01*
X131887034Y-76942508D01*
X131912459Y-76950134D01*
X131937572Y-76958614D01*
X131962370Y-76967912D01*
X131986853Y-76977994D01*
X132011021Y-76988824D01*
X132034871Y-77000368D01*
X132058403Y-77012591D01*
X132081616Y-77025457D01*
X132104509Y-77038932D01*
X132127080Y-77052981D01*
X132149330Y-77067570D01*
X132171256Y-77082662D01*
X132192857Y-77098224D01*
X132214133Y-77114220D01*
X132235083Y-77130616D01*
X132255705Y-77147376D01*
X132275998Y-77164466D01*
X132295962Y-77181850D01*
X132316531Y-77199140D01*
X132336851Y-77216740D01*
X132356896Y-77234661D01*
X132376638Y-77252915D01*
X132396051Y-77271512D01*
X132415108Y-77290465D01*
X132433780Y-77309785D01*
X132452043Y-77329483D01*
X132469868Y-77349570D01*
X132487228Y-77370059D01*
X132504097Y-77390959D01*
X132520448Y-77412284D01*
X132536253Y-77434043D01*
X132551486Y-77456249D01*
X132566707Y-77478157D01*
X132581722Y-77500300D01*
X132596415Y-77522712D01*
X132610670Y-77545423D01*
X132624369Y-77568467D01*
X132637395Y-77591874D01*
X132649632Y-77615678D01*
X132660962Y-77639910D01*
X132671269Y-77664601D01*
X132680435Y-77689785D01*
X132688344Y-77715493D01*
X132689754Y-77737728D01*
X132686528Y-77759543D01*
X132681250Y-77781216D01*
X132676507Y-77803026D01*
X132674882Y-77825252D01*
X132673113Y-77849772D01*
X132671073Y-77874313D01*
X132667742Y-77898412D01*
X132643482Y-77909437D01*
X132620225Y-77922778D01*
X132599227Y-77939010D01*
X132581743Y-77958709D01*
X132569029Y-77982450D01*
X132558825Y-78007598D01*
X132550528Y-78033287D01*
X132543924Y-78059431D01*
X132538798Y-78085942D01*
X132534934Y-78112736D01*
X132532118Y-78139727D01*
X132530136Y-78166827D01*
X132528771Y-78193951D01*
X132527810Y-78221013D01*
X132527037Y-78247928D01*
X132527169Y-78275999D01*
X132527595Y-78304086D01*
X132528338Y-78332180D01*
X132529423Y-78360270D01*
X132530872Y-78388345D01*
X132532708Y-78416397D01*
X132534956Y-78444416D01*
X132537639Y-78472390D01*
X132540779Y-78500311D01*
X132544401Y-78528167D01*
X132548527Y-78555950D01*
X132553181Y-78583649D01*
X132558386Y-78611255D01*
X132564564Y-78637893D01*
X132571509Y-78664358D01*
X132578929Y-78690710D01*
X132586531Y-78717009D01*
X132594022Y-78743315D01*
X132601111Y-78769687D01*
X132607504Y-78796187D01*
X132606802Y-78823287D01*
X132606191Y-78850392D01*
X132605660Y-78877501D01*
X132605196Y-78904613D01*
X132604785Y-78931728D01*
X132604416Y-78958844D01*
X132604075Y-78985960D01*
X132603751Y-79013077D01*
X132603430Y-79040193D01*
X132603100Y-79067308D01*
X132602748Y-79094421D01*
X132602362Y-79121530D01*
X132601928Y-79148636D01*
X132601435Y-79175738D01*
X132600870Y-79202834D01*
X132600220Y-79229924D01*
X132599472Y-79257008D01*
X132598614Y-79284084D01*
X132597086Y-79311563D01*
X132595195Y-79339037D01*
X132592939Y-79366495D01*
X132590315Y-79393929D01*
X132587318Y-79421332D01*
X132583945Y-79448694D01*
X132580193Y-79476007D01*
X132576059Y-79503262D01*
X132571537Y-79530451D01*
X132566626Y-79557566D01*
X132561322Y-79584598D01*
X132555620Y-79611538D01*
X132549519Y-79638378D01*
X132543013Y-79665109D01*
X132536099Y-79691723D01*
X132516741Y-79711042D01*
X132496727Y-79729575D01*
X132476086Y-79747325D01*
X132454848Y-79764294D01*
X132433042Y-79780486D01*
X132410700Y-79795903D01*
X132387849Y-79810549D01*
X132364520Y-79824425D01*
X132340742Y-79837536D01*
X132316546Y-79849884D01*
X132291961Y-79861472D01*
X132267016Y-79872303D01*
X132241741Y-79882380D01*
X132216166Y-79891706D01*
X132190321Y-79900283D01*
X132164236Y-79908114D01*
X132137939Y-79915203D01*
X132111461Y-79921552D01*
X132084831Y-79927165D01*
X132058080Y-79932044D01*
X132031236Y-79936191D01*
X132004330Y-79939611D01*
X131977391Y-79942305D01*
X131950449Y-79944278D01*
X131923365Y-79945678D01*
X131896287Y-79946452D01*
X131869112Y-79946536D01*
X131869121Y-79946414D01*
G04 #@! TO.C,SPI_OUT2*
D15*
X138209523Y-87804761D02*
X138066666Y-87852380D01*
X137828571Y-87852380D01*
X137733333Y-87804761D01*
X137685714Y-87757142D01*
X137638095Y-87661904D01*
X137638095Y-87566666D01*
X137685714Y-87471428D01*
X137733333Y-87423809D01*
X137828571Y-87376190D01*
X138019047Y-87328571D01*
X138114285Y-87280952D01*
X138161904Y-87233333D01*
X138209523Y-87138095D01*
X138209523Y-87042857D01*
X138161904Y-86947619D01*
X138114285Y-86900000D01*
X138019047Y-86852380D01*
X137780952Y-86852380D01*
X137638095Y-86900000D01*
X137209523Y-87852380D02*
X137209523Y-86852380D01*
X136828571Y-86852380D01*
X136733333Y-86900000D01*
X136685714Y-86947619D01*
X136638095Y-87042857D01*
X136638095Y-87185714D01*
X136685714Y-87280952D01*
X136733333Y-87328571D01*
X136828571Y-87376190D01*
X137209523Y-87376190D01*
X136209523Y-87852380D02*
X136209523Y-86852380D01*
X135971428Y-87947619D02*
X135209523Y-87947619D01*
X134780952Y-86852380D02*
X134590476Y-86852380D01*
X134495238Y-86900000D01*
X134400000Y-86995238D01*
X134352380Y-87185714D01*
X134352380Y-87519047D01*
X134400000Y-87709523D01*
X134495238Y-87804761D01*
X134590476Y-87852380D01*
X134780952Y-87852380D01*
X134876190Y-87804761D01*
X134971428Y-87709523D01*
X135019047Y-87519047D01*
X135019047Y-87185714D01*
X134971428Y-86995238D01*
X134876190Y-86900000D01*
X134780952Y-86852380D01*
X133923809Y-86852380D02*
X133923809Y-87661904D01*
X133876190Y-87757142D01*
X133828571Y-87804761D01*
X133733333Y-87852380D01*
X133542857Y-87852380D01*
X133447619Y-87804761D01*
X133400000Y-87757142D01*
X133352380Y-87661904D01*
X133352380Y-86852380D01*
X133019047Y-86852380D02*
X132447619Y-86852380D01*
X132733333Y-87852380D02*
X132733333Y-86852380D01*
X132161904Y-86947619D02*
X132114285Y-86900000D01*
X132019047Y-86852380D01*
X131780952Y-86852380D01*
X131685714Y-86900000D01*
X131638095Y-86947619D01*
X131590476Y-87042857D01*
X131590476Y-87138095D01*
X131638095Y-87280952D01*
X132209523Y-87852380D01*
X131590476Y-87852380D01*
G04 #@! TO.C,SPI_IN*
X133345238Y-83566666D02*
X133297619Y-83423809D01*
X133297619Y-83185714D01*
X133345238Y-83090476D01*
X133392857Y-83042857D01*
X133488095Y-82995238D01*
X133583333Y-82995238D01*
X133678571Y-83042857D01*
X133726190Y-83090476D01*
X133773809Y-83185714D01*
X133821428Y-83376190D01*
X133869047Y-83471428D01*
X133916666Y-83519047D01*
X134011904Y-83566666D01*
X134107142Y-83566666D01*
X134202380Y-83519047D01*
X134250000Y-83471428D01*
X134297619Y-83376190D01*
X134297619Y-83138095D01*
X134250000Y-82995238D01*
X133297619Y-82566666D02*
X134297619Y-82566666D01*
X134297619Y-82185714D01*
X134250000Y-82090476D01*
X134202380Y-82042857D01*
X134107142Y-81995238D01*
X133964285Y-81995238D01*
X133869047Y-82042857D01*
X133821428Y-82090476D01*
X133773809Y-82185714D01*
X133773809Y-82566666D01*
X133297619Y-81566666D02*
X134297619Y-81566666D01*
X133202380Y-81328571D02*
X133202380Y-80566666D01*
X133297619Y-80328571D02*
X134297619Y-80328571D01*
X133297619Y-79852380D02*
X134297619Y-79852380D01*
X133297619Y-79280952D01*
X134297619Y-79280952D01*
G04 #@! TO.C,SPI_OUT1*
X128454761Y-77340476D02*
X128502380Y-77483333D01*
X128502380Y-77721428D01*
X128454761Y-77816666D01*
X128407142Y-77864285D01*
X128311904Y-77911904D01*
X128216666Y-77911904D01*
X128121428Y-77864285D01*
X128073809Y-77816666D01*
X128026190Y-77721428D01*
X127978571Y-77530952D01*
X127930952Y-77435714D01*
X127883333Y-77388095D01*
X127788095Y-77340476D01*
X127692857Y-77340476D01*
X127597619Y-77388095D01*
X127550000Y-77435714D01*
X127502380Y-77530952D01*
X127502380Y-77769047D01*
X127550000Y-77911904D01*
X128502380Y-78340476D02*
X127502380Y-78340476D01*
X127502380Y-78721428D01*
X127550000Y-78816666D01*
X127597619Y-78864285D01*
X127692857Y-78911904D01*
X127835714Y-78911904D01*
X127930952Y-78864285D01*
X127978571Y-78816666D01*
X128026190Y-78721428D01*
X128026190Y-78340476D01*
X128502380Y-79340476D02*
X127502380Y-79340476D01*
X128597619Y-79578571D02*
X128597619Y-80340476D01*
X127502380Y-80769047D02*
X127502380Y-80959523D01*
X127550000Y-81054761D01*
X127645238Y-81150000D01*
X127835714Y-81197619D01*
X128169047Y-81197619D01*
X128359523Y-81150000D01*
X128454761Y-81054761D01*
X128502380Y-80959523D01*
X128502380Y-80769047D01*
X128454761Y-80673809D01*
X128359523Y-80578571D01*
X128169047Y-80530952D01*
X127835714Y-80530952D01*
X127645238Y-80578571D01*
X127550000Y-80673809D01*
X127502380Y-80769047D01*
X127502380Y-81626190D02*
X128311904Y-81626190D01*
X128407142Y-81673809D01*
X128454761Y-81721428D01*
X128502380Y-81816666D01*
X128502380Y-82007142D01*
X128454761Y-82102380D01*
X128407142Y-82150000D01*
X128311904Y-82197619D01*
X127502380Y-82197619D01*
X127502380Y-82530952D02*
X127502380Y-83102380D01*
X128502380Y-82816666D02*
X127502380Y-82816666D01*
X128502380Y-83959523D02*
X128502380Y-83388095D01*
X128502380Y-83673809D02*
X127502380Y-83673809D01*
X127645238Y-83578571D01*
X127740476Y-83483333D01*
X127788095Y-83388095D01*
G04 #@! TD*
M02*
